<?xml version="1.0" encoding="UTF-8"?><svg xmlns="http://www.w3.org/2000/svg" width="212" height="212" viewBox="0 0 212 212"><rect width="100%" height="100%" fill="#000000"/><path d="M 106 106 L 106 101 L 106 96 L 106 91 L 111 91 L 111 86 L 111 81 L 111 76 L 106 76 L 101 76 L 101 71 L 101 66 L 101 61 L 96 61 L 96 66 L 91 66 L 91 71 L 86 71 L 86 76 L 81 76 L 81 81 L 76 81 L 76 76 L 81 76 L 86 76 L 86 81 L 81 81 L 76 81 L 76 86 L 81 86 L 86 86 L 91 86 L 96 86 L 96 81 L 91 81 L 86 81 L 81 81 L 76 81 L 71 81 L 66 81 L 66 86 L 71 86 L 71 91 L 71 96 L 71 101 L 71 106 L 71 111 L 71 116 L 76 116 L 81 116 L 81 121 L 76 121 L 76 116 L 76 111 L 71 111 L 66 111 L 61 111 L 61 106 L 61 101 L 66 101 L 66 96 L 61 96 L 61 101 L 56 101 L 56 106 L 51 106 L 51 101 L 56 101 L 61 101 L 61 96 L 61 91 L 61 86 L 61 81 L 61 76 L 66 76 L 66 81 L 66 86 L 61 86 L 56 86 L 56 91 L 51 91 L 46 91 L 46 96 L 46 101 L 41 101 L 41 106 L 46 106 L 46 101 L 41 101 L 41 96 L 46 96 L 46 91 L 46 86 L 51 86 L 56 86 L 56 81 L 56 76 L 61 76 L 61 71 L 61 66 L 56 66 L 51 66 L 46 66 L 46 71 L 51 71 L 51 76 L 56 76 L 61 76 L 66 76 L 66 71 L 61 71 L 61 66 L 56 66 L 56 71 L 51 71 L 46 71 L 46 66 L 46 61 L 51 61 L 56 61 L 56 66 L 61 66 L 66 66 L 71 66 L 76 66 L 81 66 L 86 66 L 86 61 L 86 56 L 81 56 L 81 51 L 86 51 L 86 46 L 91 46 L 91 41 L 91 36 L 91 31 L 86 31 L 86 26 L 86 21 L 81 21 L 81 26 L 76 26 L 71 26 L 71 21 L 66 21 L 61 21 L 61 26 L 66 26 L 71 26 L 76 26 L 76 31 L 76 36 L 71 36 L 66 36 L 61 36 L 61 41 L 61 46 L 61 51 L 66 51 L 71 51 L 71 46 L 76 46 L 76 41 L 71 41 L 71 46 L 76 46 L 81 46 L 81 51 L 86 51 L 86 46 L 91 46 L 96 46 L 101 46 L 106 46 L 106 41 L 106 36 L 106 31 L 111 31 L 111 26 L 111 21 L 106 21 L 106 26 L 106 31 L 101 31 L 101 26 L 96 26 L 96 21 L 96 16 L 101 16 L 101 11 L 101 6 L 96 6 L 96 11 L 96 16 L 91 16 L 91 11 L 91 6 L 96 6 L 101 6 L 101 11 L 101 16 L 106 16 L 106 21 L 101 21 L 101 16 L 106 16 L 111 16 L 116 16 L 116 11 L 116 6 L 121 6 L 126 6 L 131 6 L 131 11 L 126 11 L 126 6 L 121 6 L 116 6 L 116 11 L 116 16 L 116 21 L 116 26 L 116 31 L 116 36 L 116 41 L 121 41 L 121 46 L 126 46 L 126 41 L 121 41 L 116 41 L 116 36 L 116 31 L 111 31 L 111 36 L 116 36 L 121 36 L 121 31 L 126 31 L 126 26 L 121 26 L 116 26 L 111 26 L 111 21 L 106 21 L 106 16 L 106 11 L 101 11 L 101 6 L 106 6 L 111 6 L 116 6 L 116 11 L 116 16 L 121 16 L 126 16 L 131 16 L 136 16 L 141 16 L 146 16 L 146 11 L 151 11 L 151 6 L 156 6 L 161 6 L 161 11 L 161 16 L 166 16 L 166 21 L 171 21 L 171 16 L 166 16 L 161 16 L 161 11 L 161 6 L 166 6 L 166 11 L 171 11 L 171 16 L 176 16 L 181 16 L 181 11 L 176 11 L 176 16 L 181 16 L 181 11 L 181 6 L 186 6 L 191 6 L 196 6 L 196 11 L 196 16 L 196 21 L 201 21 L 201 16 L 201 11 L 206 11 L 206 6 L 201 6 L 196 6 L 191 6 L 186 6 L 186 11 L 181 11 L 181 16 L 186 16 L 186 11 L 191 11 L 196 11 L 201 11 L 206 11 L 206 16 L 201 16 L 201 21 L 196 21 L 196 16 L 191 16 L 186 16 L 186 21 L 181 21 L 181 26 L 186 26 L 191 26 L 191 21 L 196 21 L 196 26 L 196 31 L 201 31 L 201 36 L 196 36 L 191 36 L 186 36 L 186 31 L 191 31 L 191 36 L 186 36 L 181 36 L 176 36 L 171 36 L 166 36 L 166 31 L 171 31 L 171 26 L 171 21 L 171 16 L 176 16 L 176 11 L 181 11 L 181 16 L 186 16 L 186 21 L 191 21 L 191 26 L 196 26 L 196 31 L 191 31 L 191 36 L 196 36 L 201 36 L 201 41 L 201 46 L 196 46 L 196 41 L 196 36 L 191 36 L 191 31 L 196 31 L 201 31 L 206 31 L 206 36 L 201 36 L 201 41 L 196 41 L 191 41 L 191 46 L 191 51 L 186 51 L 181 51 L 176 51 L 171 51 L 171 56 L 171 61 L 176 61 L 176 66 L 171 66 L 171 71 L 176 71 L 176 66 L 181 66 L 181 71 L 176 71 L 171 71 L 171 76 L 171 81 L 176 81 L 176 76 L 181 76 L 186 76 L 186 71 L 186 66 L 186 61 L 191 61 L 191 66 L 196 66 L 196 61 L 191 61 L 191 66 L 196 66 L 196 71 L 196 76 L 201 76 L 206 76 L 206 81 L 201 81 L 196 81 L 196 86 L 191 86 L 186 86 L 186 81 L 181 81 L 176 81 L 176 86 L 176 91 L 171 91 L 171 86 L 166 86 L 161 86 L 161 91 L 161 96 L 161 101 L 156 101 L 151 101 L 151 96 L 151 91 L 146 91 L 146 96 L 151 96 L 151 101 L 156 101 L 156 106 L 161 106 L 161 101 L 156 101 L 156 106 L 161 106 L 166 106 L 166 101 L 171 101 L 171 106 L 171 111 L 166 111 L 166 106 L 161 106 L 161 111 L 166 111 L 166 116 L 161 116 L 156 116 L 156 121 L 156 126 L 161 126 L 161 121 L 161 116 L 161 111 L 166 111 L 171 111 L 176 111 L 176 116 L 171 116 L 171 111 L 176 111 L 176 106 L 171 106 L 166 106 L 166 111 L 171 111 L 171 106 L 176 106 L 176 101 L 176 96 L 171 96 L 171 101 L 171 106 L 176 106 L 176 101 L 181 101 L 181 96 L 186 96 L 186 101 L 191 101 L 191 106 L 186 106 L 181 106 L 176 106 L 176 101 L 171 101 L 171 106 L 166 106 L 161 106 L 161 101 L 156 101 L 151 101 L 151 106 L 156 106 L 156 101 L 151 101 L 146 101 L 141 101 L 141 106 L 141 111 L 146 111 L 146 106 L 146 101 L 151 101 L 151 96 L 151 91 L 146 91 L 146 86 L 141 86 L 141 81 L 146 81 L 151 81 L 156 81 L 156 86 L 151 86 L 151 81 L 156 81 L 156 76 L 151 76 L 151 71 L 151 66 L 156 66 L 161 66 L 161 71 L 166 71 L 166 76 L 171 76 L 171 71 L 171 66 L 166 66 L 161 66 L 161 71 L 166 71 L 171 71 L 171 76 L 176 76 L 176 81 L 181 81 L 181 76 L 176 76 L 171 76 L 171 81 L 171 86 L 176 86 L 176 81 L 181 81 L 186 81 L 186 86 L 181 86 L 181 81 L 186 81 L 191 81 L 196 81 L 196 86 L 201 86 L 206 86 L 206 81 L 206 76 L 206 71 L 201 71 L 196 71 L 196 66 L 196 61 L 191 61 L 186 61 L 181 61 L 176 61 L 176 56 L 181 56 L 186 56 L 186 51 L 191 51 L 191 46 L 191 41 L 196 41 L 201 41 L 201 46 L 206 46 L 206 51 L 206 56 L 201 56 L 201 51 L 201 46 L 201 41 L 196 41 L 191 41 L 186 41 L 186 46 L 181 46 L 176 46 L 176 41 L 176 36 L 176 31 L 181 31 L 181 36 L 181 41 L 176 41 L 176 46 L 181 46 L 181 41 L 176 41 L 176 36 L 181 36 L 181 31 L 181 26 L 181 21 L 186 21 L 186 16 L 186 11 L 191 11 L 191 16 L 191 21 L 196 21 L 201 21 L 201 16 L 201 11 L 201 6 L 206 6 L 206 11 L 206 16 L 206 21 L 206 26 L 206 31 L 201 31 L 201 36 L 201 41 L 206 41 L 206 46 L 201 46 L 201 51 L 201 56 L 201 61 L 196 61 L 196 56 L 191 56 L 186 56 L 186 61 L 186 66 L 186 71 L 181 71 L 181 66 L 181 61 L 176 61 L 176 56 L 181 56 L 181 51 L 181 46 L 181 41 L 176 41 L 176 46 L 176 51 L 176 56 L 171 56 L 166 56 L 166 61 L 166 66 L 161 66 L 156 66 L 156 61 L 151 61 L 151 56 L 146 56 L 141 56 L 141 61 L 136 61 L 131 61 L 131 66 L 126 66 L 121 66 L 116 66 L 116 61 L 121 61 L 121 56 L 121 51 L 126 51 L 126 46 L 131 46 L 131 51 L 131 56 L 136 56 L 136 61 L 141 61 L 146 61 L 151 61 L 151 66 L 156 66 L 156 61 L 161 61 L 166 61 L 166 66 L 166 71 L 161 71 L 161 66 L 156 66 L 156 61 L 151 61 L 146 61 L 146 66 L 146 71 L 146 76 L 146 81 L 151 81 L 151 76 L 151 71 L 146 71 L 146 76 L 151 76 L 151 71 L 151 66 L 156 66 L 161 66 L 166 66 L 171 66 L 171 61 L 171 56 L 166 56 L 161 56 L 156 56 L 156 51 L 161 51 L 166 51 L 171 51 L 171 46 L 176 46 L 176 41 L 176 36 L 176 31 L 171 31 L 166 31 L 166 36 L 171 36 L 171 41 L 166 41 L 161 41 L 161 36 L 166 36 L 166 41 L 166 46 L 166 51 L 166 56 L 171 56 L 171 51 L 171 46 L 171 41 L 176 41 L 181 41 L 186 41 L 186 36 L 186 31 L 191 31 L 191 36 L 186 36 L 186 31 L 191 31 L 191 26 L 196 26 L 196 21 L 201 21 L 201 16 L 206 16 L 206 21 L 206 26 L 201 26 L 196 26 L 196 21 L 196 16 L 191 16 L 186 16 L 186 11 L 191 11 L 191 6 L 196 6 L 196 11 L 196 16 L 196 21 L 191 21 L 191 26 L 186 26 L 186 21 L 181 21 L 181 16 L 181 11 L 186 11 L 191 11 L 196 11 L 196 16 L 196 21 L 201 21 L 206 21 L 206 26 L 206 31 L 201 31 L 201 26 L 206 26 L 206 21 L 201 21 L 201 16 L 201 11 L 196 11 L 196 6 L 201 6 L 201 11 L 196 11 L 191 11 L 191 6 L 196 6 L 196 11 L 196 16 L 191 16 L 191 11 L 186 11 L 186 16 L 191 16 L 191 11 L 186 11 L 186 16 L 191 16 L 191 21 L 196 21 L 196 16 L 196 11 L 201 11 L 201 6 L 196 6 L 191 6 L 186 6 L 186 11 L 186 16 L 186 21 L 186 26 L 191 26 L 196 26 L 196 31 L 191 31 L 191 26 L 186 26 L 181 26 L 176 26 L 171 26 L 166 26 L 166 31 L 166 36 L 166 41 L 166 46 L 166 51 L 171 51 L 171 46 L 176 46 L 176 41 L 176 36 L 176 31 L 176 26 L 176 21 L 171 21 L 171 16 L 166 16 L 166 11 L 161 11 L 156 11 L 156 16 L 161 16 L 166 16 L 171 16 L 171 11 L 171 6 L 176 6 L 181 6 L 181 11 L 181 16 L 186 16 L 186 11 L 191 11 L 191 6 L 196 6 L 196 11 L 196 16 L 191 16 L 191 11 L 186 11 L 186 16 L 181 16 L 181 21 L 176 21 L 171 21 L 171 16 L 176 16 L 181 16 L 181 11 L 186 11 L 186 6 L 181 6 L 181 11 L 186 11 L 186 16 L 191 16 L 191 21 L 191 26 L 186 26 L 186 21 L 181 21 L 176 21 L 171 21 L 171 26 L 176 26 L 176 21 L 171 21 L 171 26 L 171 31 L 166 31 L 166 36 L 166 41 L 161 41 L 156 41 L 156 46 L 161 46 L 166 46 L 171 46 L 176 46 L 176 51 L 181 51 L 181 46 L 186 46 L 186 41 L 186 36 L 191 36 L 196 36 L 196 41 L 191 41 L 191 46 L 186 46 L 181 46 L 181 51 L 181 56 L 181 61 L 176 61 L 171 61 L 171 66 L 171 71 L 166 71 L 161 71 L 156 71 L 156 66 L 156 61 L 151 61 L 146 61 L 146 56 L 146 51 L 141 51 L 136 51 L 131 51 L 126 51 L 126 46 L 131 46 L 136 46 L 136 51 L 136 56 L 131 56 L 126 56 L 126 61 L 121 61 L 121 56 L 116 56 L 116 61 L 121 61 L 121 66 L 121 71 L 116 71 L 116 66 L 116 61 L 111 61 L 111 66 L 106 66 L 101 66 L 96 66 L 96 71 L 96 76 L 96 81 L 91 81 L 86 81 L 86 86 L 91 86 L 96 86 L 96 91 L 96 96 L 101 96 L 106 96 L 111 96 L 116 96 L 116 91 L 116 86 L 116 81 L 111 81 L 111 76 L 111 71 L 111 66 L 106 66 L 106 61 L 111 61 L 116 61 L 116 66 L 116 71 L 111 71 L 111 76 L 111 81 L 116 81 L 121 81 L 121 86 L 126 86 L 126 91 L 131 91 L 136 91 L 136 86 L 131 86 L 126 86 L 126 91 L 131 91 L 136 91 L 141 91 L 141 96 L 136 96 L 136 91 L 136 86 L 141 86 L 141 81 L 141 76 L 136 76 L 136 81 L 141 81 L 141 86 L 136 86 L 136 91 L 136 96 L 131 96 L 131 91 L 136 91 L 141 91 L 141 96 L 146 96 L 151 96 L 151 91 L 151 86 L 151 81 L 156 81 L 161 81 L 161 76 L 156 76 L 156 81 L 156 86 L 161 86 L 166 86 L 166 81 L 171 81 L 171 86 L 176 86 L 176 91 L 171 91 L 171 96 L 171 101 L 176 101 L 176 96 L 181 96 L 186 96 L 186 91 L 181 91 L 181 86 L 186 86 L 186 91 L 181 91 L 176 91 L 176 86 L 171 86 L 166 86 L 161 86 L 161 91 L 166 91 L 166 86 L 161 86 L 156 86 L 156 91 L 161 91 L 166 91 L 166 86 L 161 86 L 156 86 L 156 91 L 156 96 L 161 96 L 161 91 L 161 86 L 166 86 L 166 81 L 161 81 L 161 76 L 166 76 L 166 81 L 166 86 L 171 86 L 176 86 L 176 81 L 181 81 L 186 81 L 186 86 L 186 91 L 186 96 L 186 101 L 191 101 L 191 106 L 191 111 L 186 111 L 181 111 L 181 116 L 186 116 L 186 111 L 191 111 L 191 116 L 196 116 L 196 121 L 201 121 L 201 126 L 206 126 L 206 121 L 206 116 L 201 116 L 201 121 L 206 121 L 206 126 L 206 131 L 201 131 L 196 131 L 196 126 L 196 121 L 201 121 L 201 116 L 196 116 L 196 121 L 201 121 L 201 126 L 196 126 L 196 121 L 191 121 L 191 116 L 186 116 L 181 116 L 181 121 L 186 121 L 186 116 L 186 111 L 181 111 L 181 106 L 186 106 L 186 111 L 191 111 L 196 111 L 196 106 L 191 106 L 186 106 L 186 111 L 181 111 L 176 111 L 176 106 L 181 106 L 186 106 L 191 106 L 191 101 L 186 101 L 186 106 L 186 111 L 186 116 L 191 116 L 191 121 L 186 121 L 186 126 L 191 126 L 196 126 L 201 126 L 206 126 L 206 121 L 201 121 L 201 116 L 206 116 L 206 121 L 201 121 L 201 116 L 196 116 L 191 116 L 191 121 L 196 121 L 201 121 L 206 121 L 206 116 L 206 111 L 201 111 L 201 116 L 206 116 L 206 121 L 206 126 L 206 131 L 201 131 L 196 131 L 196 126 L 191 126 L 191 131 L 191 136 L 196 136 L 196 141 L 191 141 L 191 136 L 191 131 L 186 131 L 186 136 L 181 136 L 181 141 L 176 141 L 171 141 L 171 136 L 171 131 L 176 131 L 176 126 L 176 121 L 176 116 L 176 111 L 176 106 L 171 106 L 171 111 L 171 116 L 176 116 L 176 121 L 171 121 L 166 121 L 161 121 L 161 126 L 156 126 L 156 121 L 156 116 L 161 116 L 161 121 L 161 126 L 156 126 L 156 121 L 156 116 L 161 116 L 161 111 L 156 111 L 156 106 L 151 106 L 151 111 L 146 111 L 141 111 L 136 111 L 136 116 L 141 116 L 141 121 L 141 126 L 146 126 L 146 131 L 146 136 L 146 141 L 146 146 L 151 146 L 151 151 L 156 151 L 156 156 L 161 156 L 161 151 L 156 151 L 156 156 L 151 156 L 151 151 L 156 151 L 161 151 L 166 151 L 166 146 L 161 146 L 161 141 L 166 141 L 171 141 L 171 136 L 166 136 L 166 141 L 161 141 L 161 146 L 166 146 L 166 151 L 161 151 L 161 146 L 166 146 L 171 146 L 171 141 L 171 136 L 171 131 L 176 131 L 176 136 L 176 141 L 176 146 L 176 151 L 171 151 L 171 146 L 176 146 L 176 151 L 176 156 L 181 156 L 181 161 L 176 161 L 176 166 L 171 166 L 171 171 L 171 176 L 171 181 L 166 181 L 166 186 L 161 186 L 156 186 L 156 181 L 151 181 L 151 176 L 156 176 L 156 171 L 161 171 L 161 166 L 166 166 L 171 166 L 171 161 L 166 161 L 166 156 L 161 156 L 161 151 L 161 146 L 156 146 L 156 141 L 156 136 L 156 131 L 161 131 L 166 131 L 166 136 L 166 141 L 171 141 L 176 141 L 176 136 L 181 136 L 181 131 L 181 126 L 176 126 L 176 131 L 176 136 L 176 141 L 176 146 L 181 146 L 181 141 L 176 141 L 176 136 L 181 136 L 186 136 L 191 136 L 191 131 L 191 126 L 186 126 L 181 126 L 176 126 L 176 121 L 181 121 L 181 126 L 176 126 L 171 126 L 166 126 L 166 121 L 166 116 L 166 111 L 171 111 L 171 106 L 166 106 L 166 101 L 161 101 L 161 96 L 166 96 L 166 91 L 171 91 L 176 91 L 181 91 L 181 96 L 186 96 L 186 101 L 191 101 L 191 96 L 186 96 L 186 101 L 181 101 L 181 96 L 181 91 L 181 86 L 186 86 L 186 81 L 181 81 L 181 76 L 181 71 L 176 71 L 176 76 L 176 81 L 176 86 L 181 86 L 181 81 L 176 81 L 171 81 L 171 86 L 176 86 L 181 86 L 186 86 L 186 91 L 186 96 L 191 96 L 191 101 L 196 101 L 196 106 L 191 106 L 191 111 L 186 111 L 186 106 L 181 106 L 181 101 L 181 96 L 176 96 L 176 101 L 171 101 L 166 101 L 161 101 L 161 106 L 156 106 L 156 101 L 156 96 L 156 91 L 161 91 L 161 96 L 156 96 L 156 101 L 161 101 L 161 106 L 166 106 L 166 101 L 166 96 L 161 96 L 161 101 L 156 101 L 156 106 L 161 106 L 161 101 L 156 101 L 156 106 L 151 106 L 146 106 L 146 111 L 141 111 L 141 116 L 141 121 L 136 121 L 131 121 L 126 121 L 121 121 L 116 121 L 116 126 L 116 131 L 116 136 L 116 141 L 111 141 L 111 136 L 106 136 L 106 131 L 106 126 L 111 126 L 116 126 L 116 121 L 121 121 L 121 126 L 121 131 L 126 131 L 126 136 L 121 136 L 116 136 L 116 141 L 116 146 L 111 146 L 111 141 L 111 136 L 116 136 L 116 141 L 111 141 L 106 141 L 101 141 L 101 136 L 106 136 L 111 136 L 111 141 L 106 141 L 101 141 L 96 141 L 91 141 L 91 146 L 96 146 L 101 146 L 101 141 L 96 141 L 96 136 L 96 131 L 101 131 L 101 126 L 96 126 L 96 131 L 101 131 L 106 131 L 106 136 L 111 136 L 111 141 L 116 141 L 116 146 L 116 151 L 116 156 L 116 161 L 116 166 L 121 166 L 126 166 L 126 171 L 131 171 L 131 176 L 136 176 L 141 176 L 141 171 L 141 166 L 136 166 L 131 166 L 131 161 L 126 161 L 121 161 L 121 166 L 116 166 L 116 171 L 121 171 L 126 171 L 131 171 L 131 166 L 136 166 L 136 161 L 136 156 L 141 156 L 141 161 L 136 161 L 136 156 L 131 156 L 131 161 L 136 161 L 136 156 L 141 156 L 146 156 L 146 151 L 151 151 L 151 146 L 156 146 L 161 146 L 161 141 L 161 136 L 166 136 L 171 136 L 176 136 L 181 136 L 186 136 L 191 136 L 191 131 L 186 131 L 186 136 L 186 141 L 191 141 L 191 146 L 191 151 L 186 151 L 181 151 L 181 146 L 176 146 L 171 146 L 171 151 L 171 156 L 171 161 L 176 161 L 176 166 L 171 166 L 171 161 L 171 156 L 166 156 L 166 161 L 161 161 L 156 161 L 151 161 L 151 166 L 151 171 L 151 176 L 156 176 L 156 171 L 161 171 L 166 171 L 171 171 L 171 176 L 171 181 L 171 186 L 176 186 L 176 191 L 171 191 L 166 191 L 166 186 L 166 181 L 161 181 L 161 176 L 156 176 L 156 181 L 156 186 L 156 191 L 161 191 L 166 191 L 166 186 L 166 181 L 166 176 L 161 176 L 161 171 L 166 171 L 166 176 L 166 181 L 171 181 L 176 181 L 176 176 L 181 176 L 186 176 L 186 171 L 191 171 L 196 171 L 196 176 L 196 181 L 196 186 L 196 191 L 191 191 L 186 191 L 186 196 L 186 201 L 191 201 L 191 206 L 196 206 L 201 206 L 206 206 L 206 201 L 201 201 L 201 196 L 206 196 L 206 191 L 206 186 L 206 181 L 206 176 L 201 176 L 201 171 L 201 166 L 196 166 L 196 171 L 196 176 L 201 176 L 201 171 L 206 171 L 206 176 L 201 176 L 196 176 L 196 181 L 191 181 L 191 186 L 196 186 L 196 191 L 201 191 L 206 191 L 206 196 L 201 196 L 196 196 L 196 201 L 201 201 L 201 206 L 206 206 L 206 201 L 201 201 L 196 201 L 196 196 L 196 191 L 191 191 L 191 186 L 191 181 L 191 176 L 186 176 L 186 171 L 186 166 L 191 166 L 191 161 L 186 161 L 181 161 L 181 166 L 176 166 L 176 171 L 171 171 L 171 166 L 176 166 L 176 161 L 171 161 L 166 161 L 166 166 L 171 166 L 171 161 L 176 161 L 176 156 L 176 151 L 176 146 L 176 141 L 171 141 L 171 136 L 176 136 L 176 131 L 181 131 L 186 131 L 186 136 L 186 141 L 191 141 L 191 136 L 191 131 L 186 131 L 186 126 L 181 126 L 176 126 L 171 126 L 171 121 L 171 116 L 171 111 L 176 111 L 181 111 L 181 106 L 176 106 L 176 111 L 176 116 L 181 116 L 186 116 L 186 121 L 191 121 L 191 116 L 191 111 L 191 106 L 196 106 L 196 101 L 201 101 L 201 106 L 206 106 L 206 111 L 201 111 L 201 106 L 196 106 L 196 111 L 191 111 L 191 106 L 191 101 L 191 96 L 191 91 L 191 86 L 186 86 L 186 81 L 186 76 L 186 71 L 186 66 L 191 66 L 191 71 L 186 71 L 186 66 L 186 61 L 181 61 L 176 61 L 171 61 L 171 56 L 171 51 L 176 51 L 176 46 L 181 46 L 186 46 L 191 46 L 191 51 L 191 56 L 196 56 L 196 51 L 191 51 L 191 46 L 186 46 L 181 46 L 181 41 L 176 41 L 171 41 L 166 41 L 161 41 L 161 36 L 161 31 L 161 26 L 161 21 L 166 21 L 171 21 L 171 26 L 171 31 L 171 36 L 171 41 L 176 41 L 181 41 L 186 41 L 186 36 L 181 36 L 176 36 L 171 36 L 171 31 L 166 31 L 166 26 L 166 21 L 161 21 L 156 21 L 156 26 L 156 31 L 156 36 L 151 36 L 146 36 L 141 36 L 141 31 L 141 26 L 141 21 L 136 21 L 131 21 L 131 26 L 131 31 L 131 36 L 136 36 L 136 31 L 131 31 L 126 31 L 126 26 L 131 26 L 136 26 L 136 21 L 131 21 L 126 21 L 126 16 L 121 16 L 121 11 L 121 6 L 126 6 L 126 11 L 131 11 L 136 11 L 136 6 L 141 6 L 146 6 L 151 6 L 156 6 L 156 11 L 151 11 L 146 11 L 146 6 L 151 6 L 156 6 L 156 11 L 161 11 L 161 16 L 166 16 L 166 21 L 171 21 L 176 21 L 176 26 L 176 31 L 176 36 L 171 36 L 171 31 L 176 31 L 181 31 L 186 31 L 186 26 L 191 26 L 196 26 L 196 21 L 196 16 L 196 11 L 196 6 L 201 6 L 201 11 L 196 11 L 191 11 L 191 6 L 196 6 L 201 6 L 206 6 L 206 11 L 206 16 L 201 16 L 201 21 L 206 21 L 206 16 L 206 11 L 201 11 L 196 11 L 191 11 L 191 16 L 191 21 L 191 26 L 191 31 L 191 36 L 196 36 L 196 41 L 196 46 L 191 46 L 191 51 L 196 51 L 196 56 L 201 56 L 201 61 L 206 61 L 206 56 L 201 56 L 201 61 L 206 61 L 206 56 L 206 51 L 206 46 L 201 46 L 201 41 L 201 36 L 196 36 L 191 36 L 191 31 L 191 26 L 191 21 L 191 16 L 186 16 L 186 11 L 181 11 L 181 6 L 186 6 L 191 6 L 191 11 L 196 11 L 196 6 L 201 6 L 206 6 L 206 11 L 206 16 L 206 21 L 206 26 L 206 31 L 206 36 L 206 41 L 201 41 L 201 36 L 206 36 L 206 31 L 206 26 L 206 21 L 201 21 L 196 21 L 196 26 L 191 26 L 186 26 L 186 31 L 181 31 L 181 36 L 176 36 L 171 36 L 166 36 L 166 31 L 166 26 L 171 26 L 171 21 L 166 21 L 166 26 L 166 31 L 166 36 L 161 36 L 156 36 L 156 41 L 156 46 L 161 46 L 161 41 L 161 36 L 161 31 L 166 31 L 166 36 L 166 41 L 161 41 L 161 36 L 166 36 L 171 36 L 171 31 L 166 31 L 161 31 L 161 26 L 161 21 L 156 21 L 156 26 L 156 31 L 161 31 L 166 31 L 166 36 L 166 41 L 161 41 L 156 41 L 156 46 L 156 51 L 161 51 L 161 46 L 161 41 L 166 41 L 166 46 L 171 46 L 171 51 L 166 51 L 166 56 L 171 56 L 171 61 L 166 61 L 161 61 L 156 61 L 151 61 L 151 66 L 146 66 L 146 61 L 141 61 L 136 61 L 136 66 L 136 71 L 131 71 L 131 66 L 126 66 L 121 66 L 121 61 L 126 61 L 131 61 L 136 61 L 136 56 L 131 56 L 131 51 L 136 51 L 136 56 L 141 56 L 146 56 L 146 61 L 141 61 L 141 56 L 146 56 L 146 61 L 151 61 L 156 61 L 156 56 L 156 51 L 161 51 L 161 46 L 161 41 L 161 36 L 166 36 L 171 36 L 171 31 L 166 31 L 161 31 L 161 36 L 161 41 L 156 41 L 156 36 L 161 36 L 161 41 L 166 41 L 166 46 L 171 46 L 171 51 L 166 51 L 166 46 L 171 46 L 171 41 L 176 41 L 181 41 L 181 46 L 181 51 L 181 56 L 186 56 L 186 51 L 186 46 L 181 46 L 181 41 L 176 41 L 176 46 L 176 51 L 176 56 L 181 56 L 181 51 L 186 51 L 191 51 L 196 51 L 201 51 L 206 51 L 206 56 L 206 61 L 201 61 L 201 56 L 201 51 L 201 46 L 201 41 L 206 41 L 206 36 L 201 36 L 196 36 L 196 41 L 196 46 L 201 46 L 206 46 L 206 51 L 201 51 L 196 51 L 191 51 L 186 51 L 181 51 L 181 56 L 181 61 L 181 66 L 186 66 L 186 71 L 191 71 L 196 71 L 196 66 L 191 66 L 186 66 L 186 61 L 181 61 L 181 66 L 186 66 L 186 61 L 191 61 L 196 61 L 196 66 L 201 66 L 206 66 L 206 71 L 201 71 L 201 66 L 206 66 L 206 61 L 201 61 L 196 61 L 196 56 L 196 51 L 196 46 L 196 41 L 201 41 L 201 36 L 196 36 L 196 31 L 201 31 L 201 36 L 196 36 L 196 31 L 201 31 L 201 26 L 206 26 L 206 31 L 201 31 L 196 31 L 191 31 L 191 26 L 196 26 L 201 26 L 206 26 L 206 21 L 201 21 L 201 16 L 196 16 L 196 21 L 201 21 L 201 16 L 201 11 L 201 6 L 196 6 L 191 6 L 186 6 L 186 11 L 186 16 L 186 21 L 191 21 L 196 21 L 196 16 L 191 16 L 191 11 L 196 11 L 196 16 L 196 21 L 191 21 L 191 26 L 196 26 L 201 26 L 201 31 L 206 31 L 206 26 L 206 21 L 206 16 L 201 16 L 196 16 L 191 16 L 191 11 L 196 11 L 196 16 L 196 21 L 201 21 L 201 16 L 201 11 L 201 6 L 206 6 L 206 11 L 201 11 L 201 6 L 196 6 L 196 11 L 196 16 L 191 16 L 191 11 L 196 11 L 196 16 L 191 16 L 186 16 L 181 16 L 181 11 L 176 11 L 176 16 L 171 16 L 171 11 L 166 11 L 166 16 L 171 16 L 171 21 L 176 21 L 176 16 L 176 11 L 181 11 L 181 16 L 176 16 L 171 16 L 171 21 L 166 21 L 166 26 L 171 26 L 171 21 L 171 16 L 171 11 L 176 11 L 181 11 L 181 16 L 186 16 L 186 11 L 191 11 L 191 6 L 196 6 L 201 6 L 201 11 L 201 16 L 206 16 L 206 21 L 201 21 L 201 26 L 201 31 L 206 31 L 206 26 L 206 21 L 201 21 L 201 26 L 196 26 L 196 21 L 191 21 L 186 21 L 186 26 L 186 31 L 181 31 L 181 36 L 181 41 L 181 46 L 181 51 L 186 51 L 186 46 L 186 41 L 181 41 L 181 36 L 176 36 L 176 31 L 181 31 L 181 36 L 176 36 L 176 41 L 171 41 L 171 46 L 176 46 L 176 51 L 171 51 L 171 56 L 166 56 L 161 56 L 161 61 L 156 61 L 156 66 L 151 66 L 151 71 L 151 76 L 151 81 L 146 81 L 141 81 L 141 76 L 141 71 L 136 71 L 136 66 L 141 66 L 141 71 L 136 71 L 136 66 L 141 66 L 141 61 L 146 61 L 146 56 L 146 51 L 146 46 L 141 46 L 141 41 L 146 41 L 146 46 L 151 46 L 156 46 L 161 46 L 166 46 L 166 41 L 166 36 L 161 36 L 156 36 L 156 31 L 156 26 L 151 26 L 151 21 L 151 16 L 156 16 L 161 16 L 166 16 L 171 16 L 171 21 L 166 21 L 166 16 L 161 16 L 161 21 L 156 21 L 156 16 L 151 16 L 146 16 L 146 11 L 151 11 L 156 11 L 156 16 L 161 16 L 161 11 L 166 11 L 166 6 L 171 6 L 176 6 L 176 11 L 171 11 L 171 16 L 171 21 L 176 21 L 176 16 L 171 16 L 171 11 L 166 11 L 166 6 L 171 6 L 171 11 L 171 16 L 171 21 L 166 21 L 166 16 L 171 16 L 176 16 L 176 11 L 171 11 L 171 6 L 166 6 L 161 6 L 156 6 L 151 6 L 146 6 L 141 6 L 141 11 L 141 16 L 146 16 L 146 21 L 141 21 L 136 21 L 136 26 L 136 31 L 131 31 L 131 36 L 131 41 L 126 41 L 121 41 L 121 36 L 121 31 L 121 26 L 116 26 L 111 26 L 111 31 L 116 31 L 116 26 L 116 21 L 111 21 L 111 16 L 111 11 L 106 11 L 101 11 L 101 16 L 101 21 L 106 21 L 106 16 L 101 16 L 96 16 L 96 11 L 91 11 L 91 16 L 91 21 L 86 21 L 86 26 L 81 26 L 76 26 L 76 21 L 76 16 L 71 16 L 71 11 L 71 6 L 66 6 L 61 6 L 61 11 L 56 11 L 51 11 L 46 11 L 46 16 L 46 21 L 51 21 L 51 16 L 46 16 L 46 11 L 46 6 L 41 6 L 41 11 L 36 11 L 31 11 L 26 11 L 21 11 L 21 6 L 26 6 L 26 11 L 31 11 L 31 16 L 36 16 L 36 21 L 41 21 L 41 16 L 41 11 L 41 6 L 46 6 L 46 11 L 46 16 L 51 16 L 51 11 L 46 11 L 41 11 L 41 16 L 46 16 L 51 16 L 51 21 L 46 21 L 46 16 L 51 16 L 51 21 L 51 26 L 56 26 L 56 31 L 61 31 L 61 26 L 56 26 L 51 26 L 51 31 L 56 31 L 61 31 L 61 26 L 66 26 L 66 31 L 66 36 L 61 36 L 61 41 L 66 41 L 66 46 L 71 46 L 76 46 L 76 51 L 76 56 L 71 56 L 71 51 L 66 51 L 66 56 L 66 61 L 66 66 L 66 71 L 66 76 L 71 76 L 71 81 L 66 81 L 66 76 L 61 76 L 61 81 L 61 86 L 61 91 L 66 91 L 71 91 L 76 91 L 81 91 L 81 86 L 86 86 L 86 91 L 86 96 L 86 101 L 81 101 L 81 106 L 86 106 L 91 106 L 91 111 L 96 111 L 101 111 L 101 116 L 96 116 L 91 116 L 91 111 L 96 111 L 96 106 L 91 106 L 91 101 L 91 96 L 86 96 L 81 96 L 81 101 L 81 106 L 86 106 L 91 106 L 96 106 L 96 111 L 91 111 L 91 106 L 96 106 L 96 111 L 101 111 L 101 116 L 96 116 L 96 111 L 96 106 L 91 106 L 91 101 L 96 101 L 96 96 L 96 91 L 101 91 L 106 91 L 106 96 L 101 96 L 101 91 L 101 86 L 106 86 L 111 86 L 111 91 L 106 91 L 106 96 L 111 96 L 111 91 L 116 91 L 116 96 L 111 96 L 106 96 L 106 91 L 106 86 L 111 86 L 116 86 L 116 81 L 111 81 L 111 86 L 106 86 L 106 91 L 106 96 L 111 96 L 111 101 L 116 101 L 121 101 L 121 106 L 116 106 L 111 106 L 106 106 L 106 111 L 106 116 L 106 121 L 111 121 L 111 116 L 116 116 L 116 121 L 111 121 L 111 116 L 106 116 L 106 121 L 101 121 L 96 121 L 96 116 L 91 116 L 86 116 L 81 116 L 81 121 L 86 121 L 86 116 L 91 116 L 96 116 L 101 116 L 106 116 L 106 121 L 106 126 L 101 126 L 96 126 L 96 121 L 91 121 L 91 126 L 91 131 L 91 136 L 91 141 L 96 141 L 101 141 L 106 141 L 111 141 L 111 146 L 106 146 L 106 141 L 111 141 L 116 141 L 121 141 L 121 146 L 126 146 L 131 146 L 131 151 L 126 151 L 126 156 L 121 156 L 121 161 L 116 161 L 111 161 L 106 161 L 106 156 L 101 156 L 101 151 L 96 151 L 96 146 L 96 141 L 101 141 L 106 141 L 106 136 L 101 136 L 96 136 L 96 131 L 101 131 L 101 136 L 101 141 L 106 141 L 106 146 L 111 146 L 116 146 L 116 151 L 111 151 L 111 156 L 106 156 L 106 161 L 111 161 L 111 166 L 116 166 L 116 171 L 121 171 L 121 176 L 126 176 L 126 171 L 131 171 L 131 176 L 126 176 L 126 181 L 126 186 L 126 191 L 121 191 L 116 191 L 116 186 L 116 181 L 111 181 L 111 176 L 111 171 L 111 166 L 116 166 L 116 171 L 111 171 L 111 166 L 116 166 L 116 171 L 111 171 L 111 166 L 116 166 L 116 161 L 111 161 L 106 161 L 106 166 L 101 166 L 101 161 L 96 161 L 91 161 L 91 156 L 96 156 L 96 161 L 96 166 L 96 171 L 91 171 L 91 176 L 96 176 L 96 171 L 101 171 L 101 176 L 101 181 L 106 181 L 106 176 L 106 171 L 111 171 L 111 176 L 111 181 L 111 186 L 106 186 L 101 186 L 101 191 L 106 191 L 106 196 L 101 196 L 96 196 L 96 201 L 91 201 L 91 206 L 86 206 L 81 206 L 81 201 L 76 201 L 76 206 L 71 206 L 71 201 L 66 201 L 61 201 L 61 196 L 61 191 L 66 191 L 66 186 L 71 186 L 76 186 L 81 186 L 86 186 L 86 191 L 91 191 L 91 186 L 96 186 L 101 186 L 101 181 L 101 176 L 101 171 L 106 171 L 106 166 L 101 166 L 96 166 L 96 171 L 101 171 L 101 176 L 106 176 L 106 171 L 101 171 L 96 171 L 96 166 L 91 166 L 86 166 L 86 161 L 81 161 L 81 166 L 86 166 L 91 166 L 96 166 L 96 161 L 101 161 L 106 161 L 111 161 L 111 166 L 106 166 L 106 161 L 106 156 L 101 156 L 96 156 L 96 151 L 96 146 L 91 146 L 91 141 L 91 136 L 96 136 L 96 141 L 101 141 L 101 146 L 101 151 L 101 156 L 96 156 L 96 161 L 91 161 L 91 156 L 91 151 L 91 146 L 96 146 L 101 146 L 101 141 L 101 136 L 106 136 L 106 131 L 111 131 L 116 131 L 116 126 L 111 126 L 111 121 L 116 121 L 116 116 L 111 116 L 111 121 L 106 121 L 106 126 L 106 131 L 111 131 L 116 131 L 121 131 L 126 131 L 131 131 L 136 131 L 136 136 L 136 141 L 136 146 L 136 151 L 141 151 L 141 146 L 146 146 L 146 151 L 141 151 L 136 151 L 136 146 L 136 141 L 131 141 L 131 136 L 126 136 L 121 136 L 116 136 L 116 131 L 116 126 L 111 126 L 106 126 L 106 131 L 106 136 L 106 141 L 111 141 L 111 136 L 116 136 L 116 141 L 121 141 L 121 146 L 126 146 L 126 141 L 126 136 L 126 131 L 121 131 L 121 136 L 116 136 L 116 141 L 116 146 L 121 146 L 121 141 L 116 141 L 116 146 L 116 151 L 121 151 L 121 146 L 116 146 L 116 151 L 121 151 L 121 156 L 126 156 L 131 156 L 131 161 L 131 166 L 131 171 L 126 171 L 126 166 L 131 166 L 131 171 L 131 176 L 136 176 L 136 181 L 131 181 L 131 186 L 126 186 L 126 181 L 121 181 L 121 176 L 126 176 L 126 181 L 126 186 L 126 191 L 121 191 L 121 196 L 126 196 L 131 196 L 131 191 L 126 191 L 126 196 L 126 201 L 131 201 L 131 196 L 126 196 L 126 191 L 121 191 L 121 186 L 116 186 L 116 181 L 121 181 L 126 181 L 126 186 L 131 186 L 131 181 L 126 181 L 126 186 L 131 186 L 131 181 L 131 176 L 131 171 L 126 171 L 126 166 L 131 166 L 131 171 L 126 171 L 126 166 L 121 166 L 116 166 L 111 166 L 111 171 L 106 171 L 101 171 L 101 166 L 101 161 L 106 161 L 106 166 L 101 166 L 101 161 L 101 156 L 101 151 L 96 151 L 96 156 L 96 161 L 91 161 L 91 166 L 96 166 L 101 166 L 106 166 L 106 171 L 101 171 L 96 171 L 96 166 L 96 161 L 91 161 L 91 156 L 91 151 L 96 151 L 96 156 L 101 156 L 101 151 L 101 146 L 96 146 L 96 151 L 96 156 L 96 161 L 96 166 L 91 166 L 91 171 L 86 171 L 81 171 L 76 171 L 71 171 L 66 171 L 66 166 L 61 166 L 61 161 L 56 161 L 51 161 L 46 161 L 46 156 L 46 151 L 46 146 L 41 146 L 41 141 L 41 136 L 36 136 L 31 136 L 26 136 L 26 141 L 31 141 L 31 146 L 36 146 L 36 141 L 31 141 L 31 146 L 36 146 L 36 141 L 31 141 L 31 146 L 26 146 L 26 151 L 21 151 L 21 146 L 26 146 L 31 146 L 31 141 L 26 141 L 26 136 L 21 136 L 21 141 L 21 146 L 16 146 L 16 141 L 16 136 L 16 131 L 16 126 L 16 121 L 16 116 L 16 111 L 16 106 L 16 101 L 11 101 L 11 96 L 6 96 L 6 91 L 6 86 L 11 86 L 11 81 L 11 76 L 11 71 L 16 71 L 16 76 L 11 76 L 6 76 L 6 71 L 11 71 L 11 76 L 6 76 L 6 81 L 11 81 L 11 76 L 11 71 L 16 71 L 21 71 L 21 66 L 26 66 L 26 61 L 26 56 L 21 56 L 21 61 L 21 66 L 26 66 L 26 61 L 21 61 L 21 56 L 21 51 L 16 51 L 11 51 L 11 46 L 11 41 L 11 36 L 16 36 L 16 31 L 21 31 L 21 26 L 26 26 L 26 21 L 21 21 L 21 16 L 26 16 L 26 11 L 21 11 L 16 11 L 16 6 L 11 6 L 6 6 L 6 11 L 6 16 L 6 21 L 11 21 L 11 16 L 11 11 L 11 6 L 6 6 L 6 11 L 11 11 L 11 6 L 16 6 L 16 11 L 21 11 L 21 6 L 16 6 L 16 11 L 16 16 L 16 21 L 16 26 L 16 31 L 16 36 L 11 36 L 6 36 L 6 31 L 6 26 L 11 26 L 11 31 L 16 31 L 16 36 L 16 41 L 11 41 L 11 46 L 16 46 L 21 46 L 26 46 L 26 51 L 31 51 L 36 51 L 36 56 L 41 56 L 41 61 L 46 61 L 51 61 L 51 56 L 51 51 L 56 51 L 56 56 L 56 61 L 56 66 L 56 71 L 56 76 L 61 76 L 66 76 L 71 76 L 76 76 L 81 76 L 81 71 L 76 71 L 71 71 L 71 76 L 66 76 L 66 71 L 71 71 L 71 66 L 76 66 L 76 61 L 81 61 L 81 56 L 76 56 L 76 51 L 76 46 L 71 46 L 71 41 L 66 41 L 66 46 L 61 46 L 56 46 L 51 46 L 51 41 L 51 36 L 56 36 L 61 36 L 61 31 L 61 26 L 61 21 L 66 21 L 66 16 L 61 16 L 61 21 L 61 26 L 61 31 L 56 31 L 56 26 L 61 26 L 66 26 L 66 31 L 66 36 L 66 41 L 61 41 L 61 36 L 61 31 L 56 31 L 56 36 L 51 36 L 51 31 L 46 31 L 41 31 L 41 26 L 41 21 L 46 21 L 46 16 L 41 16 L 41 21 L 41 26 L 36 26 L 36 31 L 36 36 L 31 36 L 31 41 L 31 46 L 36 46 L 36 51 L 41 51 L 41 56 L 46 56 L 51 56 L 56 56 L 56 61 L 51 61 L 51 66 L 56 66 L 56 71 L 51 71 L 51 66 L 46 66 L 46 61 L 51 61 L 51 56 L 51 51 L 51 46 L 56 46 L 56 41 L 51 41 L 46 41 L 41 41 L 41 36 L 46 36 L 51 36 L 51 31 L 51 26 L 46 26 L 46 21 L 41 21 L 36 21 L 36 26 L 36 31 L 41 31 L 46 31 L 46 26 L 41 26 L 41 31 L 41 36 L 36 36 L 36 41 L 36 46 L 41 46 L 46 46 L 51 46 L 51 41 L 56 41 L 56 36 L 56 31 L 51 31 L 51 26 L 51 21 L 56 21 L 56 26 L 56 31 L 61 31 L 66 31 L 66 36 L 71 36 L 76 36 L 76 31 L 76 26 L 71 26 L 71 31 L 66 31 L 66 26 L 61 26 L 61 31 L 61 36 L 56 36 L 56 41 L 56 46 L 61 46 L 66 46 L 66 41 L 71 41 L 71 46 L 71 51 L 66 51 L 66 46 L 61 46 L 56 46 L 56 41 L 56 36 L 51 36 L 51 41 L 51 46 L 56 46 L 56 51 L 51 51 L 51 46 L 46 46 L 46 41 L 46 36 L 46 31 L 41 31 L 41 36 L 46 36 L 46 31 L 46 26 L 41 26 L 36 26 L 31 26 L 31 31 L 26 31 L 26 36 L 21 36 L 21 31 L 21 26 L 26 26 L 26 21 L 26 16 L 31 16 L 31 21 L 26 21 L 21 21 L 16 21 L 11 21 L 11 26 L 16 26 L 16 31 L 16 36 L 11 36 L 11 31 L 6 31 L 6 36 L 11 36 L 11 41 L 11 46 L 6 46 L 6 51 L 11 51 L 16 51 L 16 46 L 11 46 L 6 46 L 6 51 L 6 56 L 6 61 L 6 66 L 11 66 L 16 66 L 16 71 L 21 71 L 21 66 L 16 66 L 11 66 L 11 61 L 16 61 L 16 66 L 11 66 L 11 61 L 11 56 L 6 56 L 6 61 L 6 66 L 6 71 L 6 76 L 11 76 L 11 81 L 11 86 L 11 91 L 11 96 L 6 96 L 6 91 L 11 91 L 11 86 L 11 81 L 11 76 L 6 76 L 6 71 L 11 71 L 11 76 L 16 76 L 16 81 L 11 81 L 6 81 L 6 76 L 11 76 L 11 81 L 16 81 L 16 76 L 11 76 L 11 81 L 6 81 L 6 86 L 6 91 L 6 96 L 6 101 L 6 106 L 11 106 L 16 106 L 21 106 L 21 101 L 26 101 L 31 101 L 31 106 L 36 106 L 36 101 L 41 101 L 46 101 L 46 106 L 41 106 L 36 106 L 31 106 L 31 101 L 26 101 L 26 106 L 26 111 L 21 111 L 21 106 L 26 106 L 26 111 L 21 111 L 21 106 L 26 106 L 26 111 L 26 116 L 31 116 L 31 111 L 26 111 L 26 106 L 21 106 L 21 111 L 16 111 L 16 106 L 21 106 L 21 111 L 26 111 L 26 116 L 26 121 L 21 121 L 16 121 L 16 116 L 11 116 L 11 111 L 6 111 L 6 106 L 6 101 L 6 96 L 11 96 L 11 101 L 6 101 L 6 96 L 6 91 L 6 86 L 6 81 L 11 81 L 11 76 L 16 76 L 16 81 L 11 81 L 11 76 L 11 71 L 16 71 L 21 71 L 21 66 L 21 61 L 21 56 L 16 56 L 16 51 L 21 51 L 21 46 L 26 46 L 26 51 L 26 56 L 31 56 L 31 51 L 26 51 L 26 46 L 31 46 L 31 51 L 36 51 L 36 46 L 36 41 L 36 36 L 41 36 L 41 31 L 36 31 L 36 36 L 31 36 L 26 36 L 26 41 L 21 41 L 21 36 L 21 31 L 26 31 L 31 31 L 31 26 L 36 26 L 41 26 L 41 31 L 36 31 L 31 31 L 31 36 L 36 36 L 36 41 L 31 41 L 31 36 L 26 36 L 21 36 L 21 41 L 16 41 L 16 36 L 11 36 L 11 41 L 6 41 L 6 36 L 11 36 L 16 36 L 21 36 L 21 41 L 21 46 L 16 46 L 16 41 L 21 41 L 21 46 L 21 51 L 16 51 L 11 51 L 11 46 L 6 46 L 6 41 L 6 36 L 11 36 L 11 31 L 11 26 L 6 26 L 6 21 L 6 16 L 6 11 L 6 6 L 11 6 L 16 6 L 21 6 L 26 6 L 31 6 L 31 11 L 26 11 L 26 16 L 31 16 L 36 16 L 36 11 L 36 6 L 31 6 L 31 11 L 36 11 L 36 6 L 41 6 L 46 6 L 51 6 L 56 6 L 61 6 L 66 6 L 66 11 L 61 11 L 61 6 L 56 6 L 56 11 L 56 16 L 56 21 L 61 21 L 61 26 L 56 26 L 51 26 L 51 31 L 46 31 L 46 36 L 51 36 L 51 41 L 46 41 L 46 36 L 41 36 L 41 31 L 41 26" fill="none" stroke="#FFFFFF" stroke-opacity="1" stroke-width="1" stroke-linecap="round" stroke-linejoin="round"/><path d="M 106 106 L 106 101 L 106 96 L 106 91 L 106 86 L 101 86 L 101 81 L 96 81 L 91 81 L 91 86 L 91 91 L 91 96 L 91 101 L 91 106 L 91 111 L 86 111 L 86 106 L 81 106 L 81 111 L 76 111 L 76 116 L 71 116 L 71 111 L 71 106 L 76 106 L 81 106 L 81 101 L 81 96 L 76 96 L 76 91 L 71 91 L 66 91 L 61 91 L 61 96 L 61 101 L 56 101 L 56 96 L 61 96 L 61 101 L 56 101 L 56 96 L 51 96 L 51 91 L 56 91 L 56 86 L 61 86 L 66 86 L 66 81 L 71 81 L 71 76 L 66 76 L 66 71 L 71 71 L 71 76 L 66 76 L 61 76 L 61 71 L 56 71 L 56 66 L 61 66 L 61 71 L 66 71" fill="none" stroke="#FF3B30" stroke-opacity="1" stroke-width="1" stroke-linecap="round" stroke-linejoin="round"/></svg>