<?xml version="1.0" encoding="UTF-8"?><svg xmlns="http://www.w3.org/2000/svg" width="212" height="212" viewBox="0 0 212 212"><rect width="100%" height="100%" fill="#000000"/><path d="M 106 106 L 106 101 L 111 101 L 111 106 L 116 106 L 116 111 L 121 111 L 121 106 L 121 101 L 121 96 L 126 96 L 131 96 L 131 91 L 126 91 L 126 86 L 126 81 L 121 81 L 121 86 L 121 91 L 116 91 L 116 86 L 111 86 L 111 91 L 116 91 L 121 91 L 121 96 L 121 101 L 126 101 L 131 101 L 136 101 L 136 106 L 131 106 L 131 111 L 131 116 L 136 116 L 136 121 L 131 121 L 131 116 L 131 111 L 126 111 L 126 106 L 126 101 L 121 101 L 121 96 L 126 96 L 126 101 L 121 101 L 121 106 L 116 106 L 116 101 L 111 101 L 111 96 L 116 96 L 116 101 L 111 101 L 111 106 L 116 106 L 116 101 L 121 101 L 121 96 L 126 96 L 131 96 L 131 91 L 126 91 L 121 91 L 116 91 L 116 96 L 116 101 L 111 101 L 106 101 L 106 96 L 101 96 L 101 101 L 106 101 L 106 96 L 106 91 L 101 91 L 101 96 L 101 101 L 96 101 L 96 96 L 96 91 L 101 91 L 101 96 L 101 101 L 106 101 L 106 106 L 101 106 L 101 111 L 101 116 L 106 116 L 106 111 L 106 106 L 106 101 L 106 96 L 111 96 L 116 96 L 116 91 L 116 86 L 121 86 L 121 81 L 121 76 L 121 71 L 116 71 L 116 66 L 116 61 L 121 61 L 126 61 L 126 56 L 131 56 L 131 51 L 136 51 L 136 56 L 141 56 L 141 61 L 146 61 L 151 61 L 151 66 L 156 66 L 156 71 L 151 71 L 151 66 L 146 66 L 146 61 L 151 61 L 156 61 L 156 56 L 151 56 L 151 51 L 146 51 L 141 51 L 141 56 L 146 56 L 146 61 L 151 61 L 156 61 L 156 66 L 156 71 L 156 76 L 156 81 L 156 86 L 151 86 L 146 86 L 146 81 L 146 76 L 146 71 L 151 71 L 156 71 L 156 76 L 151 76 L 151 71 L 146 71 L 146 76 L 146 81 L 141 81 L 141 86 L 146 86 L 146 81 L 141 81 L 141 86 L 141 91 L 141 96 L 141 101 L 141 106 L 146 106 L 146 101 L 151 101 L 151 106 L 156 106 L 156 111 L 156 116 L 151 116 L 146 116 L 146 121 L 151 121 L 151 126 L 146 126 L 141 126 L 136 126 L 136 121 L 141 121 L 146 121 L 146 116 L 141 116 L 141 121 L 141 126 L 141 131 L 141 136 L 141 141 L 136 141 L 131 141 L 131 136 L 131 131 L 126 131 L 126 136 L 126 141 L 121 141 L 121 146 L 126 146 L 126 151 L 131 151 L 131 146 L 131 141 L 136 141 L 136 146 L 131 146 L 126 146 L 126 151 L 121 151 L 121 156 L 116 156 L 116 151 L 121 151 L 121 146 L 116 146 L 116 141 L 121 141 L 121 146 L 116 146 L 116 141 L 121 141 L 126 141 L 126 136 L 131 136 L 131 141 L 131 146 L 131 151 L 136 151 L 141 151 L 146 151 L 146 146 L 151 146 L 151 151 L 156 151 L 161 151 L 161 156 L 161 161 L 166 161 L 166 166 L 166 171 L 166 176 L 166 181 L 161 181 L 161 176 L 166 176 L 166 171 L 171 171 L 176 171 L 176 166 L 176 161 L 181 161 L 181 166 L 186 166 L 191 166 L 191 171 L 186 171 L 186 166 L 191 166 L 196 166 L 196 171 L 191 171 L 186 171 L 186 176 L 181 176 L 181 181 L 176 181 L 171 181 L 166 181 L 166 176 L 171 176 L 171 171 L 176 171 L 176 166 L 181 166 L 186 166 L 191 166 L 196 166 L 196 161 L 191 161 L 191 166 L 191 171 L 186 171 L 186 166 L 191 166 L 191 171 L 186 171 L 186 176 L 191 176 L 191 171 L 191 166 L 191 161 L 196 161 L 201 161 L 201 156 L 206 156 L 206 161 L 206 166 L 206 171 L 206 176 L 206 181 L 201 181 L 196 181 L 191 181 L 191 186 L 196 186 L 196 181 L 196 176 L 191 176 L 186 176 L 181 176 L 176 176 L 176 171 L 181 171 L 181 166 L 176 166 L 171 166 L 166 166 L 166 161 L 166 156 L 161 156 L 161 151 L 166 151 L 166 146 L 161 146 L 161 151 L 161 156 L 156 156 L 151 156 L 151 161 L 146 161 L 146 156 L 151 156 L 156 156 L 156 161 L 156 166 L 151 166 L 146 166 L 141 166 L 141 171 L 146 171 L 146 166 L 151 166 L 151 161 L 156 161 L 156 166 L 161 166 L 166 166 L 166 171 L 161 171 L 161 166 L 166 166 L 171 166 L 176 166 L 176 171 L 171 171 L 166 171 L 166 166 L 161 166 L 161 161 L 161 156 L 166 156 L 166 151 L 171 151 L 171 146 L 171 141 L 176 141 L 176 136 L 176 131 L 181 131 L 181 136 L 181 141 L 186 141 L 191 141 L 191 146 L 196 146 L 196 141 L 196 136 L 196 131 L 196 126 L 201 126 L 206 126 L 206 121 L 206 116 L 201 116 L 201 121 L 206 121 L 206 126 L 206 131 L 206 136 L 201 136 L 201 131 L 196 131 L 191 131 L 186 131 L 186 126 L 181 126 L 181 131 L 186 131 L 186 136 L 191 136 L 191 141 L 196 141 L 196 136 L 201 136 L 206 136 L 206 131 L 201 131 L 201 136 L 201 141 L 196 141 L 196 146 L 191 146 L 191 151 L 191 156 L 186 156 L 186 151 L 191 151 L 191 146 L 191 141 L 186 141 L 186 136 L 191 136 L 191 131 L 196 131 L 196 126 L 191 126 L 186 126 L 186 131 L 186 136 L 186 141 L 186 146 L 181 146 L 176 146 L 176 141 L 181 141 L 186 141 L 191 141 L 196 141 L 201 141 L 201 146 L 206 146 L 206 151 L 206 156 L 201 156 L 201 151 L 201 146 L 201 141 L 201 136 L 196 136 L 196 131 L 196 126 L 191 126 L 191 121 L 196 121 L 196 126 L 196 131 L 191 131 L 191 126 L 191 121 L 196 121 L 196 126 L 191 126 L 191 131 L 196 131 L 196 136 L 196 141 L 196 146 L 191 146 L 186 146 L 186 151 L 181 151 L 181 146 L 186 146 L 186 151 L 181 151 L 181 156 L 186 156 L 186 161 L 186 166 L 186 171 L 181 171 L 181 166 L 176 166 L 176 171 L 176 176 L 171 176 L 166 176 L 161 176 L 161 171 L 161 166 L 166 166 L 171 166 L 171 161 L 171 156 L 171 151 L 166 151 L 161 151 L 161 146 L 156 146 L 151 146 L 151 141 L 156 141 L 156 136 L 156 131 L 156 126 L 156 121 L 151 121 L 151 126 L 156 126 L 161 126 L 161 121 L 156 121 L 156 116 L 161 116 L 161 121 L 161 126 L 156 126 L 156 131 L 151 131 L 151 136 L 151 141 L 146 141 L 146 146 L 141 146 L 136 146 L 136 141 L 141 141 L 141 146 L 136 146 L 131 146 L 131 151 L 126 151 L 126 146 L 131 146 L 131 151 L 136 151 L 136 146 L 141 146 L 141 151 L 136 151 L 136 146 L 136 141 L 131 141 L 131 136 L 131 131 L 136 131 L 141 131 L 141 126 L 146 126 L 151 126 L 156 126 L 156 121 L 161 121 L 161 126 L 156 126 L 156 121 L 161 121 L 161 116 L 161 111 L 156 111 L 151 111 L 151 116 L 151 121 L 151 126 L 146 126 L 141 126 L 141 121 L 141 116 L 136 116 L 136 121 L 136 126 L 141 126 L 141 121 L 141 116 L 136 116 L 131 116 L 131 121 L 136 121 L 136 116 L 136 111 L 131 111 L 131 116 L 136 116 L 141 116 L 146 116 L 151 116 L 156 116 L 156 121 L 156 126 L 161 126 L 166 126 L 166 121 L 171 121 L 171 116 L 171 111 L 176 111 L 176 106 L 171 106 L 171 101 L 166 101 L 166 106 L 171 106 L 176 106 L 176 111 L 171 111 L 171 106 L 171 101 L 166 101 L 166 106 L 171 106 L 176 106 L 176 101 L 176 96 L 181 96 L 181 91 L 176 91 L 171 91 L 171 86 L 176 86 L 176 81 L 171 81 L 171 86 L 176 86 L 176 81 L 181 81 L 181 76 L 176 76 L 171 76 L 171 71 L 171 66 L 176 66 L 181 66 L 181 61 L 186 61 L 186 66 L 181 66 L 176 66 L 176 71 L 176 76 L 181 76 L 186 76 L 186 81 L 186 86 L 181 86 L 181 81 L 186 81 L 186 86 L 181 86 L 181 91 L 186 91 L 186 96 L 186 101 L 191 101 L 191 96 L 186 96 L 186 91 L 191 91 L 191 86 L 186 86 L 186 81 L 191 81 L 191 76 L 196 76 L 196 81 L 201 81 L 201 86 L 206 86 L 206 91 L 206 96 L 201 96 L 201 91 L 196 91 L 196 86 L 196 81 L 201 81 L 201 86 L 206 86 L 206 81 L 201 81 L 196 81 L 191 81 L 191 86 L 191 91 L 191 96 L 191 101 L 196 101 L 201 101 L 206 101 L 206 106 L 206 111 L 206 116 L 201 116 L 201 121 L 206 121 L 206 116 L 201 116 L 201 111 L 196 111 L 196 106 L 196 101 L 196 96 L 191 96 L 191 101 L 191 106 L 186 106 L 181 106 L 181 111 L 181 116 L 186 116 L 186 111 L 186 106 L 186 101 L 186 96 L 191 96 L 191 101 L 186 101 L 186 96 L 191 96 L 191 91 L 191 86 L 196 86 L 201 86 L 206 86 L 206 81 L 206 76 L 206 71 L 206 66 L 206 61 L 201 61 L 196 61 L 196 66 L 196 71 L 201 71 L 206 71 L 206 66 L 201 66 L 196 66 L 191 66 L 191 61 L 186 61 L 186 56 L 186 51 L 181 51 L 181 56 L 181 61 L 181 66 L 181 71 L 176 71 L 176 76 L 181 76 L 186 76 L 186 71 L 181 71 L 176 71 L 176 66 L 181 66 L 186 66 L 186 71 L 191 71 L 191 76 L 191 81 L 196 81 L 196 86 L 196 91 L 196 96 L 191 96 L 186 96 L 181 96 L 181 101 L 176 101 L 176 96 L 176 91 L 181 91 L 181 96 L 181 101 L 186 101 L 191 101 L 196 101 L 196 96 L 196 91 L 201 91 L 201 86 L 206 86 L 206 91 L 201 91 L 201 96 L 201 101 L 206 101 L 206 106 L 206 111 L 206 116 L 206 121 L 206 126 L 206 131 L 201 131 L 201 136 L 206 136 L 206 141 L 201 141 L 201 136 L 201 131 L 206 131 L 206 136 L 201 136 L 196 136 L 196 141 L 191 141 L 191 146 L 191 151 L 196 151 L 196 156 L 196 161 L 196 166 L 196 171 L 191 171 L 186 171 L 181 171 L 176 171 L 176 176 L 176 181 L 171 181 L 171 186 L 166 186 L 166 191 L 161 191 L 161 196 L 161 201 L 166 201 L 166 206 L 161 206 L 156 206 L 151 206 L 146 206 L 146 201 L 141 201 L 136 201 L 136 196 L 136 191 L 136 186 L 131 186 L 126 186 L 126 181 L 121 181 L 121 186 L 126 186 L 126 181 L 131 181 L 131 186 L 136 186 L 136 191 L 131 191 L 131 196 L 126 196 L 126 201 L 121 201 L 121 196 L 126 196 L 126 191 L 126 186 L 121 186 L 121 191 L 126 191 L 126 186 L 131 186 L 136 186 L 141 186 L 141 181 L 146 181 L 146 186 L 146 191 L 151 191 L 151 196 L 151 201 L 151 206 L 146 206 L 141 206 L 136 206 L 131 206 L 131 201 L 131 196 L 126 196 L 126 201 L 126 206 L 121 206 L 116 206 L 116 201 L 111 201 L 106 201 L 101 201 L 101 196 L 106 196 L 106 201 L 101 201 L 101 206 L 96 206 L 96 201 L 96 196 L 101 196 L 101 201 L 106 201 L 106 206 L 101 206 L 96 206 L 96 201 L 96 196 L 101 196 L 106 196 L 106 191 L 106 186 L 106 181 L 111 181 L 111 186 L 116 186 L 116 191 L 111 191 L 106 191 L 106 186 L 106 181 L 111 181 L 116 181 L 121 181 L 126 181 L 131 181 L 131 176 L 131 171 L 126 171 L 126 176 L 131 176 L 131 181 L 136 181 L 136 176 L 141 176 L 141 181 L 146 181 L 151 181 L 151 186 L 146 186 L 146 191 L 151 191 L 151 186 L 156 186 L 161 186 L 166 186 L 171 186 L 171 181 L 166 181 L 161 181 L 161 186 L 166 186 L 166 191 L 161 191 L 156 191 L 156 196 L 156 201 L 161 201 L 161 206 L 166 206 L 166 201 L 171 201 L 171 196 L 171 191 L 171 186 L 176 186 L 176 191 L 176 196 L 181 196 L 181 191 L 176 191 L 171 191 L 166 191 L 166 186 L 161 186 L 161 181 L 161 176 L 166 176 L 166 181 L 171 181 L 171 186 L 176 186 L 181 186 L 186 186 L 191 186 L 191 181 L 186 181 L 181 181 L 181 176 L 181 171 L 181 166 L 181 161 L 176 161 L 176 156 L 171 156 L 171 161 L 166 161 L 166 156 L 161 156 L 156 156 L 156 151 L 156 146 L 156 141 L 156 136 L 161 136 L 166 136 L 166 131 L 171 131 L 176 131 L 176 126 L 181 126 L 181 131 L 181 136 L 181 141 L 181 146 L 176 146 L 176 141 L 171 141 L 171 146 L 166 146 L 161 146 L 156 146 L 151 146 L 146 146 L 141 146 L 141 151 L 136 151 L 136 146 L 136 141 L 131 141 L 131 136 L 126 136 L 121 136 L 121 131 L 116 131 L 116 136 L 121 136 L 121 131 L 126 131 L 126 136 L 131 136 L 136 136 L 136 131 L 136 126 L 136 121 L 141 121 L 141 116 L 141 111 L 141 106 L 141 101 L 141 96 L 141 91 L 141 86 L 141 81 L 146 81 L 146 76 L 146 71 L 151 71 L 156 71 L 156 66 L 151 66 L 146 66 L 146 61 L 146 56 L 146 51 L 141 51 L 136 51 L 131 51 L 131 56 L 136 56 L 136 61 L 131 61 L 126 61 L 126 56 L 121 56 L 121 51 L 126 51 L 126 56 L 126 61 L 126 66 L 131 66 L 131 71 L 126 71 L 126 66 L 131 66 L 131 71 L 136 71 L 136 76 L 141 76 L 146 76 L 151 76 L 156 76 L 161 76 L 166 76 L 166 81 L 166 86 L 166 91 L 171 91 L 171 86 L 166 86 L 166 81 L 161 81 L 156 81 L 156 76 L 161 76 L 166 76 L 171 76 L 171 71 L 171 66 L 176 66 L 176 61 L 171 61 L 166 61 L 166 56 L 171 56 L 171 51 L 171 46 L 176 46 L 181 46 L 186 46 L 191 46 L 191 41 L 196 41 L 196 46 L 191 46 L 191 51 L 186 51 L 186 46 L 186 41 L 186 36 L 186 31 L 181 31 L 181 36 L 181 41 L 181 46 L 186 46 L 186 51 L 186 56 L 186 61 L 181 61 L 181 66 L 186 66 L 191 66 L 191 71 L 196 71 L 196 66 L 201 66 L 206 66 L 206 71 L 206 76 L 206 81 L 201 81 L 196 81 L 196 86 L 196 91 L 196 96 L 201 96 L 201 101 L 206 101 L 206 96 L 201 96 L 196 96 L 191 96 L 186 96 L 186 91 L 186 86 L 181 86 L 176 86 L 176 81 L 171 81 L 171 86 L 171 91 L 171 96 L 176 96 L 181 96 L 181 101 L 181 106 L 186 106 L 191 106 L 191 111 L 186 111 L 186 106 L 186 101 L 186 96 L 191 96 L 196 96 L 196 91 L 191 91 L 191 86 L 191 81 L 191 76 L 191 71 L 186 71 L 181 71 L 181 66 L 186 66 L 186 71 L 191 71 L 191 66 L 191 61 L 196 61 L 201 61 L 201 56 L 201 51 L 206 51 L 206 46 L 206 41 L 201 41 L 196 41 L 191 41 L 186 41 L 181 41 L 176 41 L 171 41 L 171 46 L 176 46 L 176 51 L 171 51 L 171 56 L 166 56 L 166 51 L 171 51 L 171 46 L 166 46 L 161 46 L 161 51 L 161 56 L 156 56 L 156 61 L 161 61 L 161 56 L 156 56 L 156 51 L 156 46 L 156 41 L 161 41 L 166 41 L 166 36 L 166 31 L 166 26 L 161 26 L 161 21 L 156 21 L 156 16 L 156 11 L 151 11 L 151 6 L 156 6 L 156 11 L 156 16 L 156 21 L 156 26 L 161 26 L 161 21 L 161 16 L 166 16 L 166 21 L 166 26 L 171 26 L 176 26 L 181 26 L 186 26 L 186 31 L 191 31 L 191 36 L 191 41 L 196 41 L 201 41 L 206 41 L 206 46 L 206 51 L 206 56 L 201 56 L 201 61 L 206 61 L 206 56 L 201 56 L 196 56 L 196 61 L 201 61 L 206 61 L 206 66 L 206 71 L 201 71 L 201 76 L 196 76 L 196 81 L 196 86 L 201 86 L 206 86 L 206 91 L 201 91 L 201 96 L 206 96 L 206 101 L 206 106 L 206 111 L 201 111 L 201 116 L 201 121 L 206 121 L 206 126 L 201 126 L 201 121 L 201 116 L 196 116 L 196 111 L 191 111 L 191 116 L 186 116 L 186 121 L 191 121 L 191 126 L 186 126 L 186 121 L 186 116 L 186 111 L 191 111 L 191 116 L 186 116 L 181 116 L 181 111 L 181 106 L 176 106 L 176 101 L 171 101 L 171 106 L 171 111 L 176 111 L 176 106 L 181 106 L 181 101 L 181 96 L 176 96 L 176 91 L 171 91 L 171 86 L 171 81 L 166 81 L 161 81 L 156 81 L 151 81 L 146 81 L 141 81 L 141 76 L 136 76 L 131 76 L 131 81 L 131 86 L 131 91 L 136 91 L 141 91 L 141 96 L 136 96 L 131 96 L 131 101 L 131 106 L 131 111 L 136 111 L 136 116 L 131 116 L 131 121 L 136 121 L 136 116 L 136 111 L 131 111 L 131 106 L 136 106 L 141 106 L 141 111 L 136 111 L 136 106 L 131 106 L 131 111 L 126 111 L 121 111 L 121 106 L 116 106 L 116 101 L 111 101 L 106 101 L 106 106 L 106 111 L 111 111 L 111 116 L 116 116 L 116 111 L 116 106 L 121 106 L 121 101 L 126 101 L 131 101 L 136 101 L 136 106 L 141 106 L 141 111 L 141 116 L 146 116 L 146 111 L 146 106 L 141 106 L 141 101 L 136 101 L 136 106 L 131 106 L 131 111 L 136 111 L 136 106 L 131 106 L 131 111 L 131 116 L 126 116 L 121 116 L 121 121 L 121 126 L 121 131 L 126 131 L 131 131 L 131 126 L 126 126 L 126 121 L 131 121 L 131 126 L 131 131 L 126 131 L 126 126 L 121 126 L 121 121 L 121 116 L 116 116 L 116 121 L 116 126 L 116 131 L 111 131 L 106 131 L 106 136 L 111 136 L 111 141 L 106 141 L 106 146 L 101 146 L 96 146 L 91 146 L 86 146 L 81 146 L 76 146 L 71 146 L 66 146 L 66 141 L 61 141 L 61 146 L 56 146 L 56 151 L 61 151 L 61 156 L 56 156 L 56 151 L 51 151 L 46 151 L 41 151 L 41 156 L 41 161 L 41 166 L 46 166 L 46 171 L 41 171 L 36 171 L 36 166 L 41 166 L 46 166 L 51 166 L 56 166 L 61 166 L 61 171 L 61 176 L 56 176 L 56 181 L 61 181 L 66 181 L 66 186 L 71 186 L 71 191 L 66 191 L 66 186 L 71 186 L 71 191 L 71 196 L 71 201 L 71 206 L 66 206 L 66 201 L 61 201 L 61 196 L 56 196 L 51 196 L 46 196 L 46 201 L 46 206 L 41 206 L 36 206 L 31 206 L 26 206 L 21 206 L 21 201 L 26 201 L 26 206 L 31 206 L 36 206 L 36 201 L 31 201 L 26 201 L 26 196 L 21 196 L 21 191 L 21 186 L 26 186 L 26 181 L 26 176 L 31 176 L 36 176 L 36 181 L 31 181 L 31 176 L 36 176 L 41 176 L 46 176 L 51 176 L 56 176 L 56 181 L 51 181 L 51 176 L 46 176 L 41 176 L 36 176 L 31 176 L 31 181 L 36 181 L 36 176 L 41 176 L 41 171 L 36 171 L 31 171 L 26 171 L 21 171 L 16 171 L 11 171 L 11 166 L 11 161 L 11 156 L 6 156 L 6 161 L 11 161 L 16 161 L 21 161 L 21 156 L 21 151 L 21 146 L 16 146 L 16 151 L 21 151 L 26 151 L 26 146 L 21 146 L 21 151 L 26 151 L 26 156 L 21 156 L 16 156 L 11 156 L 11 151 L 16 151 L 16 146 L 21 146 L 21 151 L 21 156 L 26 156 L 26 161 L 21 161 L 21 166 L 16 166 L 16 161 L 21 161 L 26 161 L 26 166 L 26 171 L 21 171 L 21 166 L 21 161 L 21 156 L 21 151 L 26 151 L 26 146 L 21 146 L 21 141 L 21 136 L 16 136 L 16 131 L 16 126 L 21 126 L 21 131 L 26 131 L 26 136 L 21 136 L 16 136 L 16 141 L 16 146 L 21 146 L 21 151 L 26 151 L 26 146 L 21 146 L 16 146 L 16 141 L 16 136 L 16 131 L 16 126 L 11 126 L 11 131 L 6 131 L 6 126 L 11 126 L 16 126 L 21 126 L 26 126 L 26 121 L 21 121 L 16 121 L 16 126 L 21 126 L 21 131 L 21 136 L 16 136 L 16 141 L 16 146 L 11 146 L 11 141 L 11 136 L 16 136 L 21 136 L 26 136 L 26 141 L 26 146 L 31 146 L 36 146 L 41 146 L 41 141 L 46 141 L 46 146 L 46 151 L 51 151 L 51 156 L 46 156 L 46 161 L 41 161 L 41 156 L 41 151 L 41 146 L 41 141 L 46 141 L 46 136 L 46 131 L 41 131 L 41 136 L 41 141 L 41 146 L 36 146 L 31 146 L 31 151 L 31 156 L 26 156 L 21 156 L 16 156 L 11 156 L 11 161 L 6 161 L 6 156 L 11 156 L 16 156 L 21 156 L 21 161 L 26 161 L 31 161 L 31 156 L 36 156 L 41 156 L 46 156 L 51 156 L 56 156 L 56 161 L 56 166 L 61 166 L 66 166 L 71 166 L 71 171 L 66 171 L 61 171 L 61 166 L 66 166 L 66 161 L 71 161 L 76 161 L 76 166 L 76 171 L 71 171 L 71 176 L 66 176 L 61 176 L 61 181 L 61 186 L 61 191 L 66 191 L 66 196 L 71 196 L 71 201 L 66 201 L 61 201 L 56 201 L 51 201 L 46 201 L 41 201 L 36 201 L 31 201 L 26 201 L 26 206 L 31 206 L 36 206 L 41 206 L 41 201 L 41 196 L 41 191 L 36 191 L 36 186 L 36 181 L 36 176 L 36 171 L 36 166 L 41 166 L 46 166 L 46 161 L 46 156 L 51 156 L 56 156 L 61 156 L 61 161 L 61 166 L 61 171 L 61 176 L 56 176 L 51 176 L 51 171 L 51 166 L 51 161 L 56 161 L 56 156 L 56 151 L 61 151 L 61 146 L 66 146 L 66 141 L 71 141 L 71 136 L 71 131 L 66 131 L 66 136 L 71 136 L 71 131 L 66 131 L 66 136 L 71 136 L 71 141 L 71 146 L 76 146 L 76 151 L 81 151 L 81 156 L 76 156 L 71 156 L 71 151 L 76 151 L 81 151 L 86 151 L 86 146 L 91 146 L 91 141 L 91 136 L 91 131 L 86 131 L 86 126 L 86 121 L 86 116 L 91 116 L 91 121 L 91 126 L 96 126 L 96 121 L 101 121 L 101 126 L 96 126 L 91 126 L 91 121 L 96 121 L 101 121 L 106 121 L 106 116 L 106 111 L 101 111 L 101 106 L 101 101 L 106 101 L 106 96 L 106 91 L 111 91 L 111 96 L 111 101 L 111 106 L 106 106 L 106 111 L 111 111 L 111 116 L 111 121 L 106 121 L 101 121 L 101 126 L 106 126 L 106 131 L 111 131 L 116 131 L 116 126 L 121 126 L 126 126 L 126 131 L 131 131 L 131 136 L 126 136 L 121 136 L 121 141 L 126 141 L 126 146 L 131 146 L 136 146 L 136 151 L 141 151 L 141 146 L 136 146 L 131 146 L 126 146 L 126 151 L 126 156 L 126 161 L 126 166 L 131 166 L 131 161 L 131 156 L 126 156 L 121 156 L 116 156 L 116 161 L 121 161 L 121 156 L 121 151 L 121 146 L 116 146 L 111 146 L 111 141 L 116 141 L 116 136 L 116 131 L 121 131 L 121 126 L 116 126 L 116 121 L 111 121 L 111 126 L 111 131 L 116 131 L 116 126 L 116 121 L 121 121 L 121 126 L 126 126 L 126 131 L 131 131 L 131 136 L 131 141 L 131 146 L 136 146 L 136 141 L 136 136 L 136 131 L 141 131 L 141 126 L 141 121 L 146 121 L 146 116 L 151 116 L 151 121 L 156 121 L 161 121 L 166 121 L 171 121 L 171 116 L 166 116 L 166 111 L 161 111 L 161 116 L 161 121 L 156 121 L 156 126 L 156 131 L 151 131 L 151 136 L 146 136 L 141 136 L 141 141 L 136 141 L 131 141 L 126 141 L 126 146 L 131 146 L 131 141 L 126 141 L 126 146 L 131 146 L 136 146 L 136 141 L 141 141 L 141 146 L 146 146 L 146 141 L 141 141 L 141 146 L 146 146 L 146 141 L 146 136 L 151 136 L 151 141 L 156 141 L 156 146 L 161 146 L 161 141 L 161 136 L 166 136 L 166 131 L 166 126 L 171 126 L 171 131 L 171 136 L 171 141 L 171 146 L 176 146 L 176 141 L 176 136 L 181 136 L 181 141 L 186 141 L 191 141 L 196 141 L 196 136 L 201 136 L 201 131 L 201 126 L 201 121 L 196 121 L 196 126 L 191 126 L 186 126 L 181 126 L 181 121 L 176 121 L 171 121 L 171 126 L 171 131 L 176 131 L 176 126 L 171 126 L 171 121 L 166 121 L 166 126 L 171 126 L 171 121 L 176 121 L 176 126 L 171 126 L 171 131 L 176 131 L 176 126 L 171 126 L 166 126 L 166 131 L 161 131 L 161 126 L 166 126 L 171 126 L 171 131 L 171 136 L 171 141 L 166 141 L 166 136 L 166 131 L 166 126 L 161 126 L 161 131 L 156 131 L 151 131 L 146 131 L 141 131 L 141 136 L 141 141 L 136 141 L 136 136 L 131 136 L 126 136 L 121 136 L 121 131 L 126 131 L 126 136 L 121 136 L 116 136 L 116 141 L 116 146 L 121 146 L 126 146 L 131 146 L 131 141 L 131 136 L 136 136 L 141 136 L 141 141 L 146 141 L 146 136 L 146 131 L 141 131 L 141 136 L 146 136 L 146 131 L 141 131 L 141 136 L 146 136 L 146 131 L 151 131 L 151 126 L 151 121 L 146 121 L 141 121 L 141 116 L 146 116 L 146 121 L 141 121 L 141 126 L 146 126 L 146 131 L 151 131 L 156 131 L 161 131 L 166 131 L 166 126 L 166 121 L 171 121 L 171 116 L 176 116 L 176 121 L 176 126 L 176 131 L 176 136 L 176 141 L 176 146 L 181 146 L 186 146 L 186 151 L 186 156 L 186 161 L 191 161 L 196 161 L 201 161 L 201 166 L 201 171 L 206 171 L 206 166 L 201 166 L 201 161 L 201 156 L 206 156 L 206 151 L 206 146 L 201 146 L 196 146 L 196 151 L 191 151 L 186 151 L 186 156 L 186 161 L 181 161 L 176 161 L 176 166 L 176 171 L 171 171 L 166 171 L 166 176 L 171 176 L 171 181 L 166 181 L 161 181 L 156 181 L 151 181 L 151 186 L 156 186 L 156 191 L 151 191 L 146 191 L 146 186 L 151 186 L 156 186 L 156 191 L 161 191 L 166 191 L 166 186 L 166 181 L 171 181 L 171 176 L 171 171 L 171 166 L 166 166 L 166 171 L 166 176 L 161 176 L 161 181 L 156 181 L 151 181 L 151 186 L 151 191 L 156 191 L 156 186 L 161 186 L 161 181 L 161 176 L 161 171 L 166 171 L 166 166 L 171 166 L 176 166 L 176 161 L 181 161 L 181 166 L 176 166 L 171 166 L 171 161 L 176 161 L 176 156 L 176 151 L 176 146 L 171 146 L 171 151 L 176 151 L 176 146 L 181 146 L 186 146 L 191 146 L 191 141 L 186 141 L 186 136 L 186 131 L 186 126 L 186 121 L 191 121 L 191 116 L 191 111 L 186 111 L 181 111 L 176 111 L 176 116 L 171 116 L 171 121 L 166 121 L 161 121 L 161 116 L 156 116 L 156 121 L 151 121 L 151 116 L 146 116 L 146 111 L 151 111 L 151 116 L 146 116 L 146 111 L 141 111 L 141 116 L 136 116 L 136 121 L 131 121 L 131 116 L 131 111 L 136 111 L 136 106 L 131 106 L 131 111 L 131 116 L 131 121 L 131 126 L 131 131 L 131 136 L 126 136 L 121 136 L 121 131 L 116 131 L 116 126 L 121 126 L 121 131 L 121 136 L 116 136 L 116 141 L 121 141 L 121 146 L 121 151 L 116 151 L 116 146 L 111 146 L 111 151 L 106 151 L 101 151 L 101 146 L 101 141 L 106 141 L 106 136 L 101 136 L 96 136 L 91 136 L 91 141 L 96 141 L 101 141 L 101 146 L 101 151 L 106 151 L 106 156 L 101 156 L 101 151 L 96 151 L 96 156 L 101 156 L 101 151 L 101 146 L 106 146 L 106 141 L 106 136 L 106 131 L 101 131 L 101 126 L 96 126 L 91 126 L 86 126 L 86 131 L 81 131 L 76 131 L 71 131 L 66 131 L 66 136 L 66 141 L 66 146 L 66 151 L 66 156 L 66 161 L 71 161 L 76 161 L 76 156 L 76 151 L 71 151 L 71 146 L 76 146 L 76 141 L 71 141 L 71 136 L 66 136 L 66 131 L 66 126 L 66 121 L 71 121 L 71 126 L 66 126 L 66 121 L 71 121 L 76 121 L 81 121 L 81 116 L 86 116 L 91 116 L 91 111 L 91 106 L 91 101 L 86 101 L 81 101 L 81 96 L 86 96 L 86 101 L 86 106 L 91 106 L 91 111 L 96 111 L 101 111 L 101 116 L 101 121 L 106 121 L 106 126 L 111 126 L 111 131 L 116 131 L 116 136 L 116 141 L 121 141 L 126 141 L 126 146 L 131 146 L 131 141 L 126 141 L 126 146 L 131 146 L 136 146 L 141 146 L 146 146 L 146 141 L 146 136 L 146 131 L 146 126 L 146 121 L 141 121 L 141 116 L 146 116 L 146 111 L 151 111 L 151 106 L 146 106 L 141 106 L 136 106 L 136 111 L 141 111 L 146 111 L 146 106 L 141 106 L 136 106 L 131 106 L 126 106 L 126 111 L 131 111 L 136 111 L 136 116 L 136 121 L 136 126 L 131 126 L 131 121 L 131 116 L 136 116 L 136 121 L 136 126 L 131 126 L 126 126 L 126 131 L 131 131 L 136 131 L 136 136 L 141 136 L 141 131 L 136 131 L 136 126 L 136 121 L 136 116 L 131 116 L 131 111 L 131 106 L 131 101 L 126 101 L 126 96 L 131 96 L 136 96 L 136 101 L 141 101 L 141 96 L 146 96 L 146 101 L 146 106 L 151 106 L 151 111 L 146 111 L 146 116 L 141 116 L 141 111 L 141 106 L 146 106 L 146 111 L 151 111 L 151 106 L 146 106 L 141 106 L 141 101 L 141 96 L 146 96 L 146 101 L 141 101 L 136 101 L 131 101 L 131 106 L 136 106 L 136 101 L 141 101 L 146 101 L 146 106 L 146 111 L 151 111 L 151 116 L 156 116 L 156 121 L 161 121 L 161 126 L 161 131 L 166 131 L 166 126 L 161 126 L 156 126 L 151 126 L 151 121 L 151 116 L 156 116 L 156 121 L 151 121 L 146 121 L 141 121 L 136 121 L 136 126 L 141 126 L 146 126 L 146 131 L 146 136 L 141 136 L 141 131 L 146 131 L 151 131 L 156 131 L 161 131 L 161 136 L 156 136 L 151 136 L 146 136 L 146 131 L 141 131 L 141 136 L 136 136 L 136 141 L 136 146 L 136 151 L 131 151 L 126 151 L 126 146 L 121 146 L 121 141 L 121 136 L 126 136 L 131 136 L 131 141 L 126 141 L 121 141 L 121 136 L 126 136 L 126 141 L 121 141 L 121 136 L 121 131 L 126 131 L 126 136 L 131 136 L 131 141 L 136 141 L 136 146 L 136 151 L 141 151 L 146 151 L 146 146 L 146 141 L 146 136 L 141 136 L 141 131 L 136 131 L 136 136 L 131 136 L 126 136 L 126 141 L 126 146 L 131 146 L 131 141 L 126 141 L 126 136 L 121 136 L 121 131 L 121 126 L 126 126 L 126 121 L 126 116 L 121 116 L 116 116 L 116 121 L 111 121 L 111 116 L 106 116 L 106 111 L 111 111 L 111 106 L 111 101 L 116 101 L 116 96 L 121 96 L 126 96 L 126 91 L 131 91 L 131 86 L 136 86 L 136 91 L 141 91 L 141 86 L 146 86 L 146 81 L 141 81 L 141 86 L 141 91 L 141 96 L 136 96 L 131 96 L 131 101 L 136 101 L 136 96 L 136 91 L 136 86 L 136 81 L 141 81 L 141 86 L 146 86 L 146 91 L 151 91 L 151 96 L 151 101 L 146 101 L 141 101 L 141 96 L 136 96 L 136 91 L 131 91 L 126 91 L 126 86 L 131 86 L 131 81 L 136 81 L 141 81 L 146 81 L 146 86 L 151 86 L 151 91 L 156 91 L 161 91 L 166 91 L 166 86 L 166 81 L 166 76 L 171 76 L 171 81 L 171 86 L 166 86 L 161 86 L 161 91 L 166 91 L 166 86 L 161 86 L 156 86 L 156 81 L 151 81 L 146 81 L 146 86 L 141 86 L 141 81 L 141 76 L 146 76 L 146 81 L 141 81 L 141 86 L 146 86 L 146 81 L 141 81 L 141 86 L 146 86 L 151 86 L 156 86 L 156 91 L 161 91 L 166 91 L 166 86 L 171 86 L 171 81 L 166 81 L 166 86 L 166 91 L 171 91 L 171 96 L 166 96 L 161 96 L 161 101 L 166 101 L 166 96 L 171 96 L 171 101 L 171 106 L 166 106 L 166 111 L 171 111 L 171 106 L 166 106 L 166 101 L 166 96 L 166 91 L 161 91 L 156 91 L 156 96 L 151 96 L 151 101 L 146 101 L 146 96 L 146 91 L 151 91 L 156 91 L 156 96 L 161 96 L 161 91 L 156 91 L 156 96 L 151 96 L 151 101 L 151 106 L 146 106 L 141 106 L 141 101 L 146 101 L 146 96 L 151 96 L 151 91 L 151 86 L 146 86 L 146 81 L 146 76 L 146 71 L 151 71 L 151 66 L 151 61 L 146 61 L 146 56 L 146 51 L 151 51 L 151 56 L 156 56 L 156 61 L 151 61 L 151 56 L 146 56 L 146 51 L 151 51 L 151 46 L 146 46 L 146 41 L 146 36 L 141 36 L 141 31 L 141 26 L 136 26 L 136 31 L 141 31 L 146 31 L 146 36 L 146 41 L 146 46 L 151 46 L 151 41 L 146 41 L 146 46 L 141 46 L 136 46 L 131 46 L 131 41 L 136 41 L 141 41 L 141 36 L 146 36 L 146 41 L 151 41 L 151 46 L 146 46 L 146 41 L 151 41 L 156 41 L 161 41 L 161 36 L 156 36 L 151 36 L 146 36 L 146 41 L 151 41 L 156 41 L 161 41 L 161 46 L 166 46 L 166 41 L 166 36 L 161 36 L 161 31 L 161 26 L 156 26 L 151 26 L 151 21 L 146 21 L 146 26 L 151 26 L 151 31 L 151 36 L 156 36 L 156 41 L 156 46 L 161 46 L 161 41 L 156 41 L 156 46 L 156 51 L 151 51 L 151 46 L 156 46 L 156 41 L 161 41 L 166 41 L 166 46 L 171 46 L 171 41 L 171 36 L 176 36 L 176 31 L 171 31 L 171 26 L 176 26 L 176 31 L 181 31 L 186 31 L 186 36 L 186 41 L 186 46 L 191 46 L 196 46 L 196 51 L 201 51 L 201 46 L 201 41 L 196 41 L 191 41 L 191 36 L 191 31 L 196 31 L 201 31 L 206 31 L 206 36 L 201 36 L 201 41 L 206 41 L 206 36 L 206 31 L 201 31 L 201 36 L 201 41 L 201 46 L 196 46 L 196 51 L 196 56 L 201 56 L 206 56 L 206 51 L 201 51 L 196 51 L 196 46 L 196 41 L 201 41 L 201 46 L 206 46 L 206 51 L 201 51 L 196 51 L 196 56 L 191 56 L 191 61 L 191 66 L 191 71 L 196 71 L 201 71 L 201 76 L 196 76 L 196 81 L 191 81 L 191 86 L 196 86 L 201 86 L 206 86 L 206 81 L 201 81 L 201 86 L 196 86 L 196 81 L 201 81 L 201 76 L 201 71 L 206 71 L 206 66 L 206 61 L 201 61 L 196 61 L 196 66 L 201 66 L 206 66 L 206 61 L 206 56 L 201 56 L 201 51 L 206 51 L 206 46 L 201 46 L 196 46 L 191 46 L 191 51 L 196 51 L 196 56 L 196 61 L 201 61 L 201 66 L 201 71 L 196 71 L 196 66 L 191 66 L 191 71 L 186 71 L 186 76 L 186 81 L 191 81 L 191 76 L 191 71 L 191 66 L 186 66 L 186 71 L 186 76 L 181 76 L 176 76 L 176 71 L 176 66 L 176 61 L 171 61 L 171 66 L 176 66 L 176 61 L 171 61 L 166 61 L 166 66 L 166 71 L 166 76 L 166 81 L 161 81 L 161 86 L 166 86 L 171 86 L 171 81 L 176 81 L 176 76 L 176 71 L 176 66 L 176 61 L 181 61 L 186 61 L 186 56 L 191 56 L 191 61 L 196 61 L 196 56 L 201 56 L 201 51 L 206 51 L 206 56 L 206 61 L 201 61 L 196 61 L 191 61 L 191 66 L 191 71 L 186 71 L 181 71 L 181 76 L 181 81 L 186 81 L 186 86 L 186 91 L 191 91 L 196 91 L 196 96 L 196 101 L 191 101 L 186 101 L 186 106 L 191 106 L 191 101 L 196 101 L 201 101 L 201 106 L 206 106 L 206 111 L 201 111 L 201 116 L 206 116 L 206 111 L 201 111 L 196 111 L 196 106 L 196 101 L 191 101 L 186 101 L 186 96 L 181 96 L 176 96 L 171 96 L 171 91 L 176 91 L 176 86 L 176 81 L 181 81 L 181 86 L 186 86 L 191 86 L 191 91 L 186 91 L 186 96 L 191 96 L 196 96 L 196 91 L 191 91 L 191 96 L 196 96 L 196 91 L 201 91 L 201 86 L 201 81 L 206 81 L 206 76 L 206 71 L 206 66 L 206 61 L 206 56 L 206 51 L 201 51 L 201 56 L 206 56 L 206 61 L 201 61 L 201 66 L 206 66 L 206 61 L 201 61 L 201 56 L 201 51 L 206 51 L 206 56 L 206 61 L 206 66 L 206 71 L 206 76 L 206 81 L 201 81 L 196 81 L 196 86 L 191 86 L 191 81 L 196 81 L 201 81 L 201 86 L 196 86 L 196 91 L 201 91 L 206 91 L 206 86 L 201 86 L 201 91 L 206 91 L 206 96 L 201 96 L 196 96 L 196 101 L 201 101 L 206 101 L 206 106 L 206 111 L 201 111 L 201 116 L 206 116 L 206 121 L 206 126 L 206 131 L 201 131 L 196 131 L 196 126 L 191 126 L 191 121 L 186 121 L 186 116 L 186 111 L 186 106 L 186 101 L 191 101 L 196 101 L 196 106 L 201 106 L 206 106 L 206 101 L 206 96 L 201 96 L 196 96 L 191 96 L 191 91 L 186 91 L 181 91 L 176 91 L 171 91 L 171 86 L 176 86 L 176 91 L 181 91 L 181 96 L 186 96 L 186 101 L 186 106 L 191 106 L 191 101 L 191 96 L 191 91 L 191 86 L 191 81 L 191 76 L 196 76 L 196 81 L 201 81 L 206 81 L 206 86 L 201 86 L 201 81 L 196 81 L 196 76 L 191 76 L 186 76 L 181 76 L 181 71 L 186 71 L 186 66 L 181 66 L 176 66 L 176 71 L 176 76 L 171 76 L 166 76 L 161 76 L 161 81 L 166 81 L 171 81 L 171 86 L 171 91 L 176 91 L 176 86 L 176 81 L 176 76 L 176 71 L 176 66 L 176 61 L 171 61 L 166 61 L 166 66 L 161 66 L 161 71 L 156 71 L 156 76 L 161 76 L 166 76 L 171 76 L 171 71 L 166 71 L 166 76 L 171 76 L 171 71 L 176 71 L 181 71 L 181 76 L 186 76 L 186 71 L 191 71 L 196 71 L 196 66 L 201 66 L 201 71 L 206 71 L 206 66 L 206 61 L 201 61 L 201 56 L 206 56 L 206 61 L 206 66 L 201 66 L 201 61 L 206 61 L 206 66 L 206 71 L 201 71 L 201 66 L 206 66 L 206 71 L 206 76 L 201 76 L 201 71 L 196 71 L 191 71 L 186 71 L 181 71 L 181 66 L 181 61 L 176 61 L 176 56 L 171 56 L 171 61 L 171 66 L 171 71 L 171 76 L 171 81 L 176 81 L 176 76 L 171 76 L 171 71 L 176 71 L 176 76 L 171 76 L 171 71 L 166 71 L 161 71 L 161 76 L 156 76 L 156 71 L 161 71 L 161 66 L 166 66 L 166 61 L 171 61 L 176 61 L 181 61 L 181 56 L 186 56 L 191 56 L 191 51 L 196 51 L 196 56 L 196 61 L 191 61 L 191 56 L 186 56 L 181 56 L 181 51 L 176 51 L 176 56 L 171 56 L 171 51 L 171 46 L 166 46 L 161 46 L 156 46 L 156 51 L 156 56 L 151 56 L 146 56 L 146 51 L 141 51 L 141 46 L 141 41 L 136 41 L 136 36 L 136 31 L 131 31 L 131 36 L 136 36 L 136 41 L 141 41 L 146 41 L 146 46 L 151 46 L 151 41 L 151 36 L 156 36 L 161 36 L 166 36 L 171 36 L 171 41 L 171 46 L 176 46 L 181 46 L 186 46 L 186 41 L 191 41 L 191 46 L 196 46 L 196 41 L 191 41 L 191 36 L 186 36 L 181 36 L 176 36 L 176 41 L 181 41 L 186 41 L 186 46 L 186 51 L 186 56 L 181 56 L 176 56 L 176 51 L 181 51 L 181 46 L 181 41 L 176 41 L 171 41 L 171 46 L 176 46 L 181 46 L 181 51 L 181 56 L 176 56 L 176 61 L 171 61 L 171 56 L 171 51 L 176 51 L 181 51 L 181 56 L 176 56 L 176 61 L 176 66 L 181 66 L 181 61 L 176 61 L 176 56 L 181 56 L 181 61 L 181 66 L 186 66 L 186 71 L 186 76 L 191 76 L 191 71 L 186 71 L 181 71 L 176 71 L 176 66 L 181 66 L 186 66 L 186 71 L 181 71 L 181 76 L 186 76 L 186 81 L 191 81 L 191 76 L 191 71 L 196 71 L 201 71 L 201 76 L 206 76 L 206 81 L 201 81 L 196 81 L 196 76 L 196 71 L 201 71 L 201 76 L 206 76 L 206 71 L 206 66 L 201 66 L 201 71 L 196 71 L 191 71 L 191 76 L 186 76 L 186 81 L 186 86 L 191 86 L 191 91 L 191 96 L 186 96 L 186 91 L 186 86 L 181 86 L 176 86 L 176 91 L 171 91 L 171 86 L 171 81 L 171 76 L 171 71 L 166 71 L 166 66 L 166 61 L 171 61 L 171 66 L 166 66 L 161 66 L 161 71 L 166 71 L 166 66 L 166 61 L 161 61 L 161 56 L 161 51 L 161 46 L 161 41 L 156 41 L 156 46 L 156 51 L 151 51 L 151 46 L 151 41 L 146 41 L 146 46 L 146 51 L 141 51 L 141 56 L 146 56 L 151 56 L 156 56 L 156 61 L 151 61 L 151 66 L 151 71 L 146 71 L 146 76 L 141 76 L 141 71 L 146 71 L 146 76 L 141 76 L 136 76 L 136 81 L 131 81 L 131 76 L 136 76 L 136 81 L 141 81 L 141 86 L 136 86 L 136 81 L 136 76 L 131 76 L 126 76 L 126 71 L 121 71 L 116 71 L 116 76 L 111 76 L 106 76 L 106 71 L 101 71 L 96 71 L 96 76 L 101 76 L 101 71 L 106 71 L 106 66 L 101 66 L 96 66 L 91 66 L 91 71 L 91 76 L 96 76 L 96 71 L 101 71 L 106 71 L 106 66 L 101 66 L 101 61 L 106 61 L 106 56 L 101 56 L 101 51 L 96 51 L 91 51 L 91 46 L 91 41 L 96 41 L 96 36 L 91 36 L 91 31 L 86 31 L 86 36 L 81 36 L 81 41 L 86 41 L 86 46 L 91 46 L 91 51 L 86 51 L 86 46 L 81 46 L 81 51 L 81 56 L 76 56 L 76 61 L 81 61 L 81 66 L 76 66 L 76 71 L 81 71 L 81 66 L 76 66 L 76 71 L 71 71 L 71 76 L 71 81 L 66 81 L 61 81 L 61 86 L 66 86 L 66 81 L 66 76 L 71 76 L 71 81 L 66 81 L 66 76 L 71 76 L 71 71 L 66 71 L 66 66 L 66 61 L 66 56 L 61 56 L 61 61 L 66 61 L 66 56 L 66 51 L 71 51 L 71 46 L 71 41 L 76 41 L 76 36 L 76 31 L 81 31 L 81 36 L 86 36 L 91 36 L 96 36 L 96 41 L 101 41 L 101 46 L 101 51 L 101 56 L 106 56 L 106 61 L 106 66 L 111 66 L 111 61 L 116 61 L 121 61 L 121 66 L 126 66 L 126 61 L 121 61 L 116 61 L 116 56 L 121 56 L 121 51 L 116 51 L 111 51 L 111 46 L 106 46 L 106 51 L 101 51 L 101 46 L 101 41 L 96 41 L 91 41 L 91 46 L 86 46 L 81 46 L 81 51 L 86 51 L 86 46 L 91 46 L 91 41 L 96 41 L 96 46 L 91 46 L 86 46 L 86 51 L 81 51 L 81 56 L 86 56 L 86 61 L 86 66 L 81 66 L 76 66 L 76 61 L 81 61 L 86 61 L 86 56 L 91 56 L 96 56 L 101 56 L 101 51 L 106 51 L 106 56 L 111 56 L 111 61 L 111 66 L 106 66 L 106 61 L 106 56 L 106 51 L 111 51 L 111 56 L 106 56 L 101 56 L 101 51 L 101 46 L 106 46 L 111 46 L 111 51 L 116 51 L 121 51 L 121 46 L 121 41 L 116 41 L 116 46 L 121 46 L 126 46 L 126 41 L 121 41 L 121 36 L 126 36 L 131 36 L 131 41 L 136 41 L 136 46 L 141 46 L 141 51 L 136 51 L 131 51 L 131 56 L 136 56 L 141 56 L 146 56 L 146 61 L 151 61 L 151 56 L 151 51 L 151 46 L 156 46 L 156 51 L 156 56 L 161 56 L 161 61 L 156 61 L 156 66 L 161 66 L 161 61 L 166 61 L 166 56 L 161 56 L 156 56 L 156 61 L 151 61 L 146 61 L 141 61 L 141 56 L 146 56 L 146 51 L 146 46 L 151 46 L 151 41 L 151 36 L 156 36 L 156 31 L 156 26 L 151 26 L 151 21 L 156 21 L 156 26 L 151 26 L 146 26 L 146 21 L 146 16 L 141 16 L 141 21 L 141 26 L 141 31 L 146 31 L 146 26 L 151 26 L 156 26 L 156 31 L 156 36 L 156 41 L 156 46 L 156 51" fill="none" stroke="#FFFFFF" stroke-opacity="1" stroke-width="1" stroke-linecap="round" stroke-linejoin="round"/><path d="M 106 106 L 106 101 L 106 96 L 106 91 L 101 91 L 101 86 L 96 86 L 96 91 L 101 91 L 101 96 L 96 96 L 91 96 L 86 96 L 86 101 L 91 101 L 91 106 L 86 106 L 86 101 L 91 101 L 91 96 L 96 96 L 96 91 L 96 86 L 91 86 L 91 81 L 91 76 L 96 76 L 101 76 L 101 81 L 96 81 L 96 76 L 96 71 L 101 71 L 101 66 L 101 61 L 96 61 L 96 66 L 101 66 L 101 61 L 101 56 L 106 56 L 111 56 L 116 56 L 116 51 L 121 51 L 121 56 L 116 56 L 116 61 L 111 61 L 111 56 L 111 51 L 106 51 L 106 46 L 101 46 L 101 51 L 106 51 L 106 46 L 106 41 L 101 41 L 101 46 L 106 46 L 111 46" fill="none" stroke="#FF3B30" stroke-opacity="1" stroke-width="1" stroke-linecap="round" stroke-linejoin="round"/></svg>