<?xml version="1.0" encoding="UTF-8"?><svg xmlns="http://www.w3.org/2000/svg" width="212" height="212" viewBox="0 0 212 212"><rect width="100%" height="100%" fill="#000000"/><path d="M 106 106 L 106 101 L 106 96 L 111 96 L 111 91 L 106 91 L 106 96 L 111 96 L 111 91 L 106 91 L 101 91 L 101 96 L 96 96 L 96 101 L 101 101 L 101 96 L 106 96 L 111 96 L 111 91 L 106 91 L 106 96 L 106 101 L 101 101 L 101 96 L 101 91 L 106 91 L 106 96 L 101 96 L 96 96 L 96 91 L 96 86 L 91 86 L 91 91 L 96 91 L 101 91 L 106 91 L 111 91 L 111 86 L 116 86 L 121 86 L 121 81 L 116 81 L 111 81 L 111 86 L 116 86 L 116 91 L 111 91 L 106 91 L 106 86 L 101 86 L 101 91 L 101 96 L 101 101 L 101 106 L 101 111 L 101 116 L 106 116 L 106 111 L 101 111 L 96 111 L 96 106 L 91 106 L 91 111 L 96 111 L 101 111 L 101 106 L 96 106 L 91 106 L 86 106 L 86 101 L 81 101 L 81 96 L 86 96 L 86 101 L 81 101 L 81 106 L 86 106 L 86 101 L 81 101 L 76 101 L 71 101 L 71 106 L 76 106 L 76 111 L 76 116 L 71 116 L 66 116 L 66 121 L 61 121 L 61 126 L 61 131 L 66 131 L 66 126 L 61 126 L 56 126 L 56 121 L 51 121 L 46 121 L 46 126 L 41 126 L 41 121 L 46 121 L 46 116 L 41 116 L 41 111 L 46 111 L 51 111 L 56 111 L 61 111 L 66 111 L 71 111 L 76 111 L 76 116 L 81 116 L 81 121 L 76 121 L 71 121 L 71 116 L 66 116 L 66 111 L 61 111 L 61 116 L 61 121 L 66 121 L 66 126 L 66 131 L 66 136 L 71 136 L 71 131 L 66 131 L 61 131 L 56 131 L 56 126 L 56 121 L 56 116 L 51 116 L 46 116 L 46 121 L 51 121 L 56 121 L 61 121 L 61 116 L 61 111 L 66 111 L 71 111 L 71 106 L 76 106 L 76 101 L 76 96 L 71 96 L 71 91 L 76 91 L 76 96 L 71 96 L 66 96 L 61 96 L 61 101 L 66 101 L 66 106 L 66 111 L 71 111 L 71 116 L 66 116 L 66 121 L 61 121 L 61 126 L 61 131 L 61 136 L 66 136 L 71 136 L 71 131 L 66 131 L 61 131 L 61 136 L 56 136 L 56 131 L 56 126 L 51 126 L 51 121 L 56 121 L 61 121 L 61 126 L 66 126 L 71 126 L 76 126 L 76 131 L 71 131 L 71 136 L 71 141 L 66 141 L 66 136 L 61 136 L 61 131 L 66 131 L 66 136 L 71 136 L 71 141 L 71 146 L 76 146 L 76 151 L 76 156 L 71 156 L 71 151 L 71 146 L 76 146 L 76 151 L 71 151 L 66 151 L 61 151 L 61 156 L 61 161 L 61 166 L 56 166 L 56 171 L 61 171 L 66 171 L 66 166 L 61 166 L 61 171 L 56 171 L 56 176 L 51 176 L 51 181 L 56 181 L 61 181 L 66 181 L 66 176 L 71 176 L 76 176 L 81 176 L 81 171 L 81 166 L 86 166 L 91 166 L 96 166 L 101 166 L 101 161 L 96 161 L 96 166 L 96 171 L 91 171 L 86 171 L 86 166 L 81 166 L 76 166 L 71 166 L 66 166 L 66 161 L 66 156 L 71 156 L 71 151 L 76 151 L 76 146 L 81 146 L 81 151 L 81 156 L 76 156 L 76 151 L 81 151 L 81 156 L 81 161 L 86 161 L 86 156 L 86 151 L 81 151 L 81 156 L 81 161 L 81 166 L 86 166 L 86 171 L 91 171 L 91 166 L 96 166 L 96 171 L 91 171 L 86 171 L 86 176 L 91 176 L 96 176 L 101 176 L 101 181 L 96 181 L 96 176 L 91 176 L 86 176 L 86 181 L 86 186 L 91 186 L 96 186 L 96 191 L 101 191 L 106 191 L 111 191 L 116 191 L 116 196 L 116 201 L 116 206 L 121 206 L 126 206 L 131 206 L 131 201 L 126 201 L 121 201 L 121 196 L 116 196 L 116 191 L 111 191 L 111 196 L 111 201 L 116 201 L 121 201 L 121 196 L 121 191 L 116 191 L 116 186 L 116 181 L 121 181 L 121 186 L 116 186 L 116 191 L 116 196 L 121 196 L 126 196 L 126 201 L 131 201 L 136 201 L 141 201 L 141 196 L 146 196 L 146 191 L 146 186 L 151 186 L 156 186 L 161 186 L 161 191 L 156 191 L 156 196 L 161 196 L 166 196 L 166 201 L 171 201 L 171 196 L 176 196 L 176 201 L 181 201 L 186 201 L 186 206 L 191 206 L 191 201 L 186 201 L 186 196 L 181 196 L 181 191 L 181 186 L 186 186 L 186 191 L 186 196 L 186 201 L 186 206 L 191 206 L 191 201 L 186 201 L 181 201 L 181 206 L 176 206 L 176 201 L 181 201 L 181 196 L 181 191 L 186 191 L 191 191 L 196 191 L 196 186 L 191 186 L 186 186 L 181 186 L 181 191 L 181 196 L 186 196 L 186 201 L 191 201 L 191 206 L 186 206 L 181 206 L 181 201 L 176 201 L 176 196 L 171 196 L 171 191 L 166 191 L 166 186 L 171 186 L 171 191 L 166 191 L 161 191 L 161 186 L 156 186 L 151 186 L 151 181 L 151 176 L 146 176 L 141 176 L 141 171 L 141 166 L 146 166 L 151 166 L 151 161 L 156 161 L 156 156 L 151 156 L 146 156 L 146 161 L 141 161 L 141 156 L 141 151 L 136 151 L 136 156 L 136 161 L 141 161 L 141 156 L 141 151 L 146 151 L 146 156 L 141 156 L 141 161 L 146 161 L 146 166 L 141 166 L 136 166 L 136 171 L 141 171 L 141 176 L 141 181 L 141 186 L 146 186 L 146 191 L 151 191 L 151 196 L 156 196 L 156 201 L 151 201 L 151 196 L 146 196 L 146 201 L 151 201 L 151 196 L 151 191 L 146 191 L 146 186 L 141 186 L 141 181 L 141 176 L 146 176 L 151 176 L 156 176 L 156 171 L 151 171 L 146 171 L 146 166 L 146 161 L 151 161 L 151 156 L 151 151 L 151 146 L 156 146 L 156 151 L 156 156 L 156 161 L 161 161 L 166 161 L 166 166 L 161 166 L 161 161 L 161 156 L 166 156 L 166 151 L 161 151 L 161 146 L 156 146 L 156 141 L 151 141 L 146 141 L 141 141 L 141 146 L 141 151 L 146 151 L 151 151 L 151 156 L 146 156 L 146 161 L 146 166 L 141 166 L 141 171 L 136 171 L 131 171 L 126 171 L 126 166 L 131 166 L 136 166 L 136 161 L 136 156 L 141 156 L 141 161 L 141 166 L 141 171 L 146 171 L 151 171 L 156 171 L 161 171 L 166 171 L 166 176 L 161 176 L 156 176 L 156 181 L 161 181 L 161 186 L 166 186 L 166 191 L 171 191 L 171 196 L 166 196 L 166 201 L 171 201 L 176 201 L 176 196 L 176 191 L 171 191 L 171 196 L 171 201 L 166 201 L 161 201 L 161 196 L 161 191 L 166 191 L 171 191 L 171 196 L 176 196 L 176 201 L 171 201 L 171 196 L 176 196 L 176 191 L 176 186 L 176 181 L 171 181 L 171 186 L 176 186 L 181 186 L 181 191 L 181 196 L 186 196 L 186 201 L 186 206 L 191 206 L 196 206 L 196 201 L 201 201 L 206 201 L 206 206 L 201 206 L 201 201 L 196 201 L 191 201 L 191 196 L 191 191 L 186 191 L 181 191 L 176 191 L 176 186 L 176 181 L 176 176 L 171 176 L 166 176 L 166 171 L 166 166 L 171 166 L 171 161 L 176 161 L 176 156 L 176 151 L 171 151 L 166 151 L 161 151 L 161 146 L 166 146 L 166 151 L 171 151 L 171 146 L 176 146 L 181 146 L 186 146 L 186 141 L 191 141 L 196 141 L 201 141 L 201 136 L 206 136 L 206 141 L 201 141 L 201 136 L 196 136 L 196 131 L 191 131 L 191 126 L 186 126 L 186 121 L 191 121 L 191 116 L 186 116 L 181 116 L 176 116 L 176 111 L 176 106 L 176 101 L 176 96 L 181 96 L 186 96 L 191 96 L 191 91 L 191 86 L 196 86 L 196 81 L 201 81 L 206 81 L 206 86 L 201 86 L 201 81 L 206 81 L 206 76 L 201 76 L 201 71 L 206 71 L 206 76 L 206 81 L 201 81 L 201 86 L 201 91 L 196 91 L 196 96 L 191 96 L 191 101 L 196 101 L 201 101 L 206 101 L 206 106 L 206 111 L 201 111 L 201 116 L 201 121 L 206 121 L 206 126 L 201 126 L 196 126 L 196 121 L 191 121 L 186 121 L 181 121 L 176 121 L 176 126 L 181 126 L 186 126 L 186 131 L 186 136 L 191 136 L 191 131 L 191 126 L 196 126 L 196 131 L 201 131 L 206 131 L 206 126 L 201 126 L 196 126 L 196 131 L 191 131 L 186 131 L 186 136 L 191 136 L 196 136 L 196 131 L 191 131 L 191 126 L 191 121 L 196 121 L 201 121 L 206 121 L 206 116 L 206 111 L 201 111 L 196 111 L 196 116 L 196 121 L 196 126 L 196 131 L 201 131 L 201 126 L 196 126 L 196 131 L 201 131 L 206 131 L 206 136 L 201 136 L 201 141 L 206 141 L 206 136 L 201 136 L 201 141 L 201 146 L 196 146 L 196 151 L 196 156 L 196 161 L 191 161 L 191 166 L 196 166 L 201 166 L 201 161 L 206 161 L 206 166 L 206 171 L 206 176 L 201 176 L 201 181 L 201 186 L 196 186 L 196 191 L 191 191 L 191 186 L 191 181 L 196 181 L 196 186 L 196 191 L 201 191 L 201 186 L 206 186 L 206 191 L 201 191 L 201 196 L 206 196 L 206 201 L 206 206 L 201 206 L 196 206 L 196 201 L 191 201 L 186 201 L 181 201 L 181 206 L 176 206 L 171 206 L 171 201 L 171 196 L 166 196 L 166 191 L 166 186 L 166 181 L 171 181 L 171 176 L 176 176 L 176 171 L 181 171 L 181 166 L 176 166 L 171 166 L 171 171 L 176 171 L 176 176 L 176 181 L 176 186 L 181 186 L 186 186 L 186 191 L 191 191 L 191 186 L 196 186 L 196 181 L 201 181 L 201 176 L 196 176 L 191 176 L 191 181 L 186 181 L 186 186 L 191 186 L 191 181 L 191 176 L 191 171 L 186 171 L 186 176 L 191 176 L 191 171 L 191 166 L 196 166 L 196 171 L 191 171 L 191 166 L 191 161 L 186 161 L 181 161 L 181 166 L 176 166 L 176 171 L 176 176 L 171 176 L 171 181 L 171 186 L 166 186 L 161 186 L 161 181 L 166 181 L 166 176 L 166 171 L 161 171 L 161 176 L 166 176 L 166 181 L 171 181 L 176 181 L 176 176 L 171 176 L 171 181 L 176 181 L 176 176 L 181 176 L 181 171 L 181 166 L 181 161 L 186 161 L 186 156 L 186 151 L 186 146 L 191 146 L 191 151 L 186 151 L 186 156 L 186 161 L 186 166 L 186 171 L 181 171 L 176 171 L 176 166 L 181 166 L 186 166 L 186 171 L 186 176 L 186 181 L 191 181 L 191 186 L 196 186 L 196 181 L 196 176 L 196 171 L 201 171 L 201 176 L 206 176 L 206 171 L 206 166 L 201 166 L 201 161 L 201 156 L 206 156 L 206 161 L 206 166 L 206 171 L 206 176 L 201 176 L 196 176 L 196 171 L 196 166 L 191 166 L 186 166 L 186 171 L 186 176 L 181 176 L 176 176 L 176 181 L 176 186 L 181 186 L 181 181 L 176 181 L 176 176 L 176 171 L 171 171 L 171 176 L 176 176 L 176 171 L 171 171 L 171 176 L 176 176 L 176 171 L 181 171 L 186 171 L 186 166 L 186 161 L 186 156 L 186 151 L 191 151 L 191 156 L 196 156 L 201 156 L 201 161 L 196 161 L 196 156 L 201 156 L 201 161 L 201 166 L 206 166 L 206 171 L 201 171 L 201 166 L 206 166 L 206 161 L 206 156 L 201 156 L 201 151 L 201 146 L 201 141 L 206 141 L 206 136 L 201 136 L 196 136 L 196 131 L 191 131 L 191 126 L 196 126 L 196 131 L 196 136 L 196 141 L 201 141 L 201 136 L 206 136 L 206 131 L 206 126 L 206 121 L 206 116 L 206 111 L 206 106 L 206 101 L 201 101 L 196 101 L 196 106 L 201 106 L 201 111 L 206 111 L 206 116 L 201 116 L 201 111 L 196 111 L 196 116 L 196 121 L 201 121 L 201 126 L 201 131 L 206 131 L 206 136 L 201 136 L 196 136 L 191 136 L 186 136 L 186 141 L 181 141 L 176 141 L 171 141 L 171 146 L 176 146 L 181 146 L 186 146 L 186 151 L 191 151 L 191 156 L 186 156 L 181 156 L 176 156 L 176 161 L 181 161 L 181 166 L 181 171 L 181 176 L 181 181 L 176 181 L 176 186 L 181 186 L 181 181 L 176 181 L 176 176 L 176 171 L 181 171 L 181 176 L 176 176 L 176 181 L 171 181 L 171 186 L 171 191 L 176 191 L 176 196 L 176 201 L 171 201 L 171 206 L 176 206 L 176 201 L 171 201 L 171 206 L 176 206 L 176 201 L 176 196 L 181 196 L 186 196 L 186 201 L 191 201 L 196 201 L 196 196 L 196 191 L 201 191 L 201 196 L 201 201 L 201 206 L 196 206 L 191 206 L 191 201 L 186 201 L 186 206 L 191 206 L 191 201 L 191 196 L 186 196 L 181 196 L 176 196 L 176 201 L 171 201 L 171 206 L 176 206 L 181 206 L 186 206 L 191 206 L 191 201 L 186 201 L 186 206 L 181 206 L 176 206 L 171 206 L 171 201 L 171 196 L 171 191 L 166 191 L 166 196 L 161 196 L 161 201 L 166 201 L 166 206 L 161 206 L 161 201 L 166 201 L 166 206 L 161 206 L 156 206 L 151 206 L 146 206 L 141 206 L 136 206 L 136 201 L 131 201 L 126 201 L 126 206 L 131 206 L 136 206 L 136 201 L 131 201 L 131 196 L 136 196 L 136 201 L 141 201 L 146 201 L 146 206 L 151 206 L 151 201 L 146 201 L 146 196 L 141 196 L 141 201 L 146 201 L 146 196 L 141 196 L 136 196 L 136 201 L 131 201 L 131 196 L 136 196 L 136 191 L 131 191 L 131 186 L 136 186 L 136 191 L 141 191 L 141 186 L 141 181 L 141 176 L 141 171 L 141 166 L 136 166 L 131 166 L 131 161 L 136 161 L 141 161 L 141 156 L 136 156 L 136 161 L 141 161 L 141 156 L 141 151 L 146 151 L 146 156 L 146 161 L 146 166 L 151 166 L 151 171 L 156 171 L 156 166 L 161 166 L 161 161 L 156 161 L 156 166 L 151 166 L 146 166 L 146 161 L 146 156 L 141 156 L 141 151 L 136 151 L 136 156 L 131 156 L 126 156 L 121 156 L 121 161 L 126 161 L 131 161 L 131 166 L 136 166 L 141 166 L 141 161 L 146 161 L 146 166 L 146 171 L 141 171 L 136 171 L 131 171 L 126 171 L 126 166 L 131 166 L 136 166 L 141 166 L 146 166 L 146 161 L 141 161 L 141 166 L 146 166 L 146 161 L 141 161 L 141 156 L 141 151 L 146 151 L 146 146 L 146 141 L 146 136 L 146 131 L 141 131 L 141 126 L 136 126 L 136 121 L 131 121 L 131 116 L 131 111 L 136 111 L 136 116 L 131 116 L 131 111 L 136 111 L 141 111 L 146 111 L 146 116 L 146 121 L 151 121 L 151 126 L 151 131 L 156 131 L 156 126 L 156 121 L 161 121 L 161 116 L 166 116 L 166 111 L 171 111 L 171 106 L 166 106 L 166 101 L 161 101 L 161 96 L 166 96 L 166 91 L 171 91 L 171 86 L 171 81 L 171 76 L 176 76 L 176 71 L 181 71 L 181 76 L 176 76 L 176 81 L 171 81 L 166 81 L 166 76 L 161 76 L 161 71 L 166 71 L 171 71 L 176 71 L 176 76 L 181 76 L 181 81 L 186 81 L 186 86 L 191 86 L 191 81 L 186 81 L 186 76 L 181 76 L 176 76 L 176 81 L 181 81 L 181 86 L 186 86 L 186 81 L 191 81 L 191 86 L 196 86 L 196 91 L 191 91 L 191 96 L 191 101 L 196 101 L 201 101 L 206 101 L 206 106 L 206 111 L 206 116 L 201 116 L 201 111 L 201 106 L 201 101 L 206 101 L 206 96 L 201 96 L 196 96 L 191 96 L 191 101 L 196 101 L 196 106 L 191 106 L 186 106 L 186 101 L 181 101 L 181 96 L 186 96 L 191 96 L 196 96 L 196 101 L 196 106 L 196 111 L 196 116 L 201 116 L 201 121 L 196 121 L 196 116 L 191 116 L 186 116 L 186 121 L 191 121 L 196 121 L 196 126 L 196 131 L 191 131 L 191 126 L 191 121 L 186 121 L 186 126 L 191 126 L 191 121 L 191 116 L 196 116 L 196 111 L 201 111 L 201 116 L 196 116 L 191 116 L 191 121 L 191 126 L 186 126 L 181 126 L 181 121 L 186 121 L 191 121 L 196 121 L 196 126 L 196 131 L 201 131 L 206 131 L 206 126 L 201 126 L 201 131 L 196 131 L 191 131 L 191 126 L 186 126 L 186 131 L 191 131 L 191 136 L 191 141 L 186 141 L 186 136 L 181 136 L 181 131 L 186 131 L 186 136 L 191 136 L 191 141 L 186 141 L 186 146 L 181 146 L 181 141 L 176 141 L 171 141 L 171 146 L 171 151 L 166 151 L 166 146 L 166 141 L 166 136 L 166 131 L 161 131 L 161 136 L 156 136 L 156 141 L 156 146 L 151 146 L 151 141 L 156 141 L 156 136 L 151 136 L 151 131 L 151 126 L 146 126 L 141 126 L 141 131 L 146 131 L 151 131 L 156 131 L 156 126 L 156 121 L 151 121 L 151 126 L 146 126 L 146 121 L 151 121 L 151 116 L 151 111 L 156 111 L 156 116 L 156 121 L 151 121 L 151 126 L 146 126 L 146 131 L 141 131 L 141 136 L 146 136 L 151 136 L 156 136 L 156 131 L 161 131 L 161 136 L 166 136 L 166 131 L 171 131 L 171 136 L 176 136 L 176 141 L 171 141 L 171 136 L 171 131 L 166 131 L 166 136 L 171 136 L 171 141 L 176 141 L 176 136 L 181 136 L 181 141 L 186 141 L 186 136 L 181 136 L 181 131 L 181 126 L 186 126 L 186 121 L 191 121 L 196 121 L 196 116 L 196 111 L 196 106 L 191 106 L 191 111 L 186 111 L 186 106 L 181 106 L 176 106 L 176 101 L 171 101 L 166 101 L 166 106 L 171 106 L 171 111 L 171 116 L 166 116 L 166 121 L 166 126 L 166 131 L 171 131 L 176 131 L 181 131 L 181 136 L 176 136 L 176 141 L 176 146 L 171 146 L 171 151 L 176 151 L 176 156 L 181 156 L 181 151 L 186 151 L 191 151 L 191 146 L 186 146 L 186 151 L 191 151 L 196 151 L 201 151 L 201 156 L 201 161 L 201 166 L 196 166 L 196 161 L 191 161 L 191 156 L 196 156 L 196 161 L 201 161 L 206 161 L 206 156 L 206 151 L 201 151 L 196 151 L 196 156 L 191 156 L 191 151 L 191 146 L 191 141 L 196 141 L 196 146 L 201 146 L 201 141 L 196 141 L 196 136 L 201 136 L 206 136 L 206 131 L 201 131 L 196 131 L 191 131 L 191 126 L 196 126 L 201 126 L 201 131 L 196 131 L 196 136 L 196 141 L 191 141 L 191 136 L 186 136 L 186 141 L 191 141 L 191 146 L 191 151 L 186 151 L 186 156 L 186 161 L 181 161 L 181 166 L 181 171 L 176 171 L 176 176 L 181 176 L 186 176 L 186 171 L 191 171 L 191 176 L 196 176 L 201 176 L 201 171 L 196 171 L 196 176 L 191 176 L 191 171 L 186 171 L 186 176 L 191 176 L 196 176 L 201 176 L 201 171 L 201 166 L 201 161 L 201 156 L 196 156 L 191 156 L 186 156 L 186 161 L 186 166 L 186 171 L 181 171 L 181 176 L 176 176 L 176 181 L 176 186 L 181 186 L 181 181 L 176 181 L 176 186 L 181 186 L 181 191 L 181 196 L 181 201 L 186 201 L 186 196 L 191 196 L 191 191 L 196 191 L 201 191 L 201 196 L 206 196 L 206 191 L 206 186 L 201 186 L 201 191 L 201 196 L 206 196 L 206 191 L 201 191 L 196 191 L 196 186 L 191 186 L 191 191 L 186 191 L 181 191 L 181 186 L 176 186 L 171 186 L 171 191 L 171 196 L 171 201 L 171 206 L 166 206 L 166 201 L 161 201 L 161 196 L 161 191 L 156 191 L 151 191 L 151 186 L 156 186 L 156 191 L 156 196 L 161 196 L 161 201 L 156 201 L 151 201 L 151 206 L 156 206 L 156 201 L 151 201 L 151 196 L 156 196 L 156 201 L 151 201 L 151 206 L 146 206 L 141 206 L 141 201 L 146 201 L 146 206 L 151 206 L 156 206 L 156 201 L 161 201 L 161 206 L 166 206 L 171 206 L 176 206 L 181 206 L 186 206 L 191 206 L 196 206 L 196 201 L 196 196 L 196 191 L 201 191 L 201 186 L 196 186 L 196 181 L 191 181 L 186 181 L 186 186 L 186 191 L 191 191 L 191 196 L 196 196 L 196 191 L 201 191 L 201 196 L 196 196 L 196 191 L 196 186 L 201 186 L 206 186 L 206 181 L 201 181 L 201 186 L 206 186 L 206 191 L 201 191 L 201 196 L 201 201 L 206 201 L 206 196 L 206 191 L 201 191 L 196 191 L 196 186 L 201 186 L 201 191 L 206 191 L 206 186 L 201 186 L 201 191 L 201 196 L 206 196 L 206 191 L 201 191 L 196 191 L 196 186 L 191 186 L 191 181 L 191 176 L 186 176 L 186 181 L 191 181 L 191 186 L 186 186 L 181 186 L 176 186 L 176 181 L 171 181 L 166 181 L 166 176 L 161 176 L 161 181 L 156 181 L 156 176 L 151 176 L 146 176 L 141 176 L 141 181 L 136 181 L 136 176 L 131 176 L 131 181 L 131 186 L 126 186 L 126 191 L 121 191 L 121 196 L 121 201 L 126 201 L 131 201 L 131 196 L 126 196 L 126 191 L 121 191 L 121 186 L 126 186 L 126 181 L 121 181 L 116 181 L 111 181 L 111 176 L 111 171 L 111 166 L 116 166 L 121 166 L 121 171 L 116 171 L 111 171 L 106 171 L 101 171 L 101 176 L 101 181 L 106 181 L 106 186 L 106 191 L 106 196 L 111 196 L 116 196 L 116 191 L 121 191 L 121 196 L 126 196 L 131 196 L 136 196 L 141 196 L 146 196 L 146 201 L 146 206 L 151 206 L 156 206 L 156 201 L 156 196 L 156 191 L 161 191 L 161 186 L 161 181 L 161 176 L 166 176 L 171 176 L 171 181 L 171 186 L 176 186 L 176 181 L 171 181 L 166 181 L 161 181 L 161 186 L 156 186 L 156 181 L 151 181 L 151 176 L 156 176 L 156 181 L 156 186 L 156 191 L 161 191 L 161 186 L 166 186 L 166 181 L 171 181 L 171 186 L 176 186 L 176 191 L 181 191 L 186 191 L 191 191 L 191 186 L 186 186 L 186 181 L 191 181 L 191 176 L 186 176 L 186 171 L 191 171 L 196 171 L 201 171 L 201 176 L 201 181 L 196 181 L 196 186 L 201 186 L 201 181 L 201 176 L 201 171 L 206 171 L 206 166 L 201 166 L 196 166 L 196 161 L 196 156 L 196 151 L 191 151 L 186 151 L 186 156 L 191 156 L 196 156 L 196 151 L 191 151 L 191 156 L 196 156 L 201 156 L 206 156 L 206 161 L 206 166 L 201 166 L 201 161 L 206 161 L 206 156 L 201 156 L 196 156 L 196 161 L 196 166 L 191 166 L 186 166 L 186 171 L 186 176 L 191 176 L 191 171 L 191 166 L 196 166 L 201 166 L 201 161 L 196 161 L 196 166 L 196 171 L 196 176 L 196 181 L 196 186 L 191 186 L 186 186 L 186 191 L 191 191 L 196 191 L 196 186 L 196 181 L 196 176 L 201 176 L 206 176 L 206 181 L 206 186 L 201 186 L 196 186 L 191 186 L 191 181 L 196 181 L 196 186 L 201 186 L 206 186 L 206 181 L 206 176 L 201 176 L 196 176 L 196 181 L 196 186 L 196 191 L 196 196 L 196 201 L 201 201 L 201 196 L 196 196 L 191 196 L 191 201 L 186 201 L 186 206 L 181 206 L 181 201 L 186 201 L 186 206 L 191 206 L 191 201 L 191 196 L 186 196 L 186 191 L 181 191 L 181 196 L 176 196 L 171 196 L 171 191 L 171 186 L 176 186 L 176 181 L 181 181 L 181 186 L 181 191 L 181 196 L 176 196 L 176 201 L 176 206 L 181 206 L 186 206 L 191 206 L 191 201 L 186 201 L 186 206 L 191 206 L 191 201 L 196 201 L 201 201 L 201 206 L 196 206 L 191 206 L 191 201 L 191 196 L 196 196 L 201 196 L 206 196 L 206 201 L 201 201 L 201 206 L 196 206 L 191 206 L 186 206 L 181 206 L 176 206 L 171 206 L 166 206 L 161 206 L 161 201 L 156 201 L 156 206 L 151 206 L 151 201 L 156 201 L 156 196 L 156 191 L 161 191 L 161 196 L 156 196 L 156 201 L 161 201 L 161 206 L 156 206 L 151 206 L 151 201 L 146 201 L 146 196 L 141 196 L 141 191 L 136 191 L 136 196 L 141 196 L 141 201 L 136 201 L 131 201 L 131 206 L 126 206 L 126 201 L 126 196 L 131 196 L 136 196 L 141 196 L 141 201 L 141 206 L 146 206 L 146 201 L 141 201 L 141 206 L 146 206 L 146 201 L 141 201 L 141 206 L 146 206 L 151 206 L 156 206 L 161 206 L 161 201 L 161 196 L 161 191 L 161 186 L 166 186 L 166 181 L 166 176 L 166 171 L 161 171 L 156 171 L 151 171 L 151 166 L 146 166 L 146 161 L 141 161 L 141 166 L 136 166 L 136 171 L 141 171 L 141 176 L 146 176 L 146 171 L 141 171 L 141 176 L 146 176 L 151 176 L 156 176 L 156 171 L 156 166 L 151 166 L 151 171 L 151 176 L 146 176 L 146 171 L 141 171 L 136 171 L 136 176 L 141 176 L 146 176 L 146 181 L 141 181 L 141 176 L 146 176 L 151 176 L 151 181 L 151 186 L 146 186 L 146 181 L 146 176 L 141 176 L 141 181 L 146 181 L 146 176 L 146 171 L 141 171 L 136 171 L 136 176 L 136 181 L 136 186 L 136 191 L 136 196 L 131 196 L 131 201 L 136 201 L 136 196 L 131 196 L 126 196 L 121 196 L 121 201 L 126 201 L 131 201 L 131 206 L 136 206 L 141 206 L 141 201 L 146 201 L 146 196 L 151 196 L 156 196 L 156 191 L 161 191 L 161 186 L 161 181 L 166 181 L 166 186 L 171 186 L 171 191 L 171 196 L 176 196 L 181 196 L 181 201 L 176 201 L 176 196 L 181 196 L 186 196 L 191 196 L 191 201 L 191 206 L 196 206 L 201 206 L 206 206 L 206 201 L 201 201 L 196 201 L 191 201 L 191 196 L 196 196 L 196 201 L 196 206 L 201 206 L 201 201 L 201 196 L 201 191 L 206 191 L 206 196 L 201 196 L 201 191 L 196 191 L 196 186 L 201 186 L 201 191 L 206 191 L 206 186 L 206 181 L 206 176 L 206 171 L 206 166 L 206 161 L 206 156 L 206 151 L 201 151 L 201 146 L 201 141 L 206 141 L 206 136 L 206 131 L 201 131 L 201 126 L 201 121 L 201 116 L 206 116 L 206 121 L 206 126 L 206 131 L 206 136 L 206 141 L 201 141 L 201 146 L 196 146 L 196 151 L 201 151 L 201 156 L 196 156 L 191 156 L 191 161 L 186 161 L 186 166 L 186 171 L 186 176 L 186 181 L 181 181 L 181 186 L 186 186 L 186 181 L 191 181 L 191 176 L 186 176 L 186 181 L 186 186 L 191 186 L 191 191 L 196 191 L 201 191 L 201 186 L 206 186 L 206 181 L 206 176 L 201 176 L 201 171 L 206 171 L 206 176 L 206 181 L 206 186 L 206 191 L 206 196 L 206 201 L 206 206 L 201 206 L 201 201 L 196 201 L 196 196 L 201 196 L 201 191 L 196 191 L 196 196 L 196 201 L 191 201 L 191 196 L 196 196 L 201 196 L 206 196 L 206 201 L 206 206 L 201 206 L 201 201 L 196 201 L 196 196 L 201 196 L 206 196 L 206 201 L 206 206 L 201 206 L 201 201 L 206 201 L 206 206 L 201 206 L 201 201 L 206 201 L 206 206 L 201 206 L 201 201 L 196 201 L 191 201 L 191 196 L 191 191 L 191 186 L 186 186 L 186 191 L 191 191 L 191 186 L 186 186 L 181 186 L 181 181 L 176 181 L 176 176 L 181 176 L 181 181 L 176 181 L 176 186 L 176 191 L 176 196 L 171 196 L 166 196 L 166 191 L 166 186 L 171 186 L 176 186 L 176 181 L 181 181 L 186 181 L 186 176 L 186 171 L 181 171 L 181 176 L 176 176 L 176 171 L 176 166 L 181 166 L 181 161 L 181 156 L 181 151 L 186 151 L 186 156 L 186 161 L 186 166 L 186 171 L 186 176 L 191 176 L 196 176 L 196 171 L 191 171 L 191 176 L 186 176 L 181 176 L 176 176 L 176 181 L 176 186 L 176 191 L 176 196 L 181 196 L 181 191 L 176 191 L 176 186 L 171 186 L 166 186 L 166 191 L 161 191 L 156 191 L 156 186 L 161 186 L 161 191 L 156 191 L 156 196 L 151 196 L 151 191 L 156 191 L 156 196 L 156 201 L 156 206 L 161 206 L 161 201 L 156 201 L 156 196 L 151 196 L 146 196 L 141 196 L 141 201 L 141 206 L 136 206 L 136 201 L 141 201 L 141 196 L 141 191 L 136 191 L 136 186 L 141 186 L 146 186 L 151 186 L 151 181 L 151 176 L 146 176 L 141 176 L 141 181 L 136 181 L 136 186 L 131 186 L 126 186 L 121 186 L 121 191 L 126 191 L 126 186 L 121 186 L 121 191 L 121 196 L 121 201 L 121 206 L 126 206 L 131 206 L 131 201 L 126 201 L 126 206 L 121 206 L 116 206 L 111 206 L 111 201 L 111 196 L 111 191 L 111 186 L 116 186 L 121 186 L 121 191 L 126 191 L 126 196 L 121 196 L 116 196 L 116 201 L 111 201 L 106 201 L 101 201 L 101 206 L 106 206 L 106 201 L 101 201 L 101 196 L 96 196 L 91 196 L 91 201 L 91 206 L 86 206 L 86 201 L 86 196 L 81 196 L 76 196 L 76 191 L 71 191 L 71 196 L 76 196 L 76 201 L 81 201 L 81 196 L 76 196 L 71 196 L 71 191 L 66 191 L 66 196 L 71 196 L 71 191 L 71 186 L 76 186 L 76 191 L 71 191 L 71 196 L 71 201 L 71 206 L 76 206 L 81 206 L 86 206 L 91 206 L 96 206 L 101 206 L 106 206 L 106 201 L 106 196 L 101 196 L 96 196 L 96 201 L 91 201 L 91 196 L 91 191 L 91 186 L 86 186 L 86 191 L 81 191 L 81 196 L 76 196 L 71 196 L 71 201 L 66 201 L 66 196 L 71 196 L 76 196 L 76 191 L 71 191 L 66 191 L 66 196 L 66 201 L 71 201 L 71 206 L 66 206 L 61 206 L 56 206 L 56 201 L 56 196 L 61 196 L 61 191 L 56 191 L 51 191 L 51 186 L 51 181 L 51 176 L 46 176 L 46 171 L 41 171 L 41 166 L 36 166 L 36 171 L 41 171 L 41 166 L 36 166 L 36 171 L 31 171 L 31 176 L 31 181 L 36 181 L 36 176 L 31 176 L 31 181 L 26 181 L 21 181 L 16 181 L 11 181 L 11 176 L 11 171 L 11 166 L 6 166 L 6 161 L 6 156 L 11 156 L 11 161 L 11 166 L 11 171 L 11 176 L 16 176 L 21 176 L 26 176 L 31 176 L 31 181 L 31 186 L 26 186 L 21 186 L 21 191 L 16 191 L 16 186 L 21 186 L 21 181 L 16 181 L 16 176 L 21 176 L 21 171 L 16 171 L 11 171 L 11 176 L 11 181 L 11 186 L 6 186 L 6 191 L 11 191 L 16 191 L 16 196 L 11 196 L 11 201 L 6 201 L 6 206 L 11 206 L 16 206 L 16 201 L 21 201 L 26 201 L 26 206 L 31 206 L 36 206 L 41 206 L 41 201 L 46 201 L 46 196 L 51 196 L 56 196 L 56 191 L 56 186 L 51 186 L 46 186 L 41 186 L 41 181 L 36 181 L 31 181 L 31 186 L 26 186 L 26 191 L 31 191 L 31 186 L 26 186 L 26 181 L 31 181 L 36 181 L 36 176 L 31 176 L 31 171 L 26 171 L 26 166 L 21 166 L 21 171 L 26 171 L 31 171 L 31 176 L 36 176 L 41 176 L 41 171 L 36 171 L 36 176 L 31 176 L 26 176 L 26 171 L 31 171 L 31 176 L 26 176 L 26 181 L 26 186 L 26 191 L 26 196 L 31 196 L 36 196 L 36 201 L 41 201 L 46 201 L 51 201 L 51 206 L 56 206 L 56 201 L 61 201 L 61 196 L 56 196 L 56 201 L 51 201 L 51 206 L 56 206 L 61 206 L 66 206 L 71 206 L 76 206 L 76 201 L 76 196 L 81 196 L 86 196 L 86 191 L 91 191 L 96 191 L 96 196 L 96 201 L 91 201 L 91 196 L 96 196 L 96 201 L 96 206 L 101 206 L 106 206 L 111 206 L 116 206 L 116 201 L 116 196 L 121 196 L 126 196 L 131 196 L 131 191 L 131 186 L 131 181 L 126 181 L 126 186 L 131 186 L 136 186 L 141 186 L 141 191 L 146 191 L 146 186 L 146 181 L 141 181 L 141 176 L 136 176 L 136 171 L 131 171 L 131 166 L 126 166 L 126 171 L 131 171 L 131 166 L 131 161 L 131 156 L 136 156 L 136 151 L 131 151 L 126 151 L 121 151 L 121 146 L 121 141 L 121 136 L 121 131 L 121 126 L 126 126 L 126 131 L 126 136 L 131 136 L 131 131 L 126 131 L 126 136 L 121 136 L 121 131 L 121 126 L 126 126 L 126 121 L 126 116 L 121 116 L 121 121 L 116 121 L 116 126 L 121 126 L 121 131 L 116 131 L 111 131 L 111 136 L 106 136 L 106 131 L 101 131 L 101 126 L 96 126 L 96 121 L 101 121 L 101 126 L 101 131 L 106 131 L 111 131 L 111 136 L 116 136 L 121 136 L 126 136 L 126 131 L 131 131 L 136 131 L 141 131 L 141 126 L 146 126 L 151 126 L 151 121 L 146 121 L 146 126 L 151 126 L 151 121 L 156 121 L 161 121 L 161 126 L 156 126 L 156 131 L 151 131 L 146 131 L 146 126 L 151 126 L 156 126 L 156 121 L 156 116 L 161 116 L 161 121 L 166 121 L 166 116 L 161 116 L 156 116 L 156 121 L 161 121 L 161 126 L 156 126 L 151 126 L 146 126 L 146 121 L 146 116 L 146 111 L 146 106 L 141 106 L 136 106 L 131 106 L 131 101 L 136 101 L 141 101 L 146 101 L 151 101 L 151 106 L 146 106 L 146 101 L 146 96 L 141 96 L 141 101 L 146 101 L 146 96 L 146 91 L 151 91 L 151 86 L 151 81 L 156 81 L 156 76 L 161 76 L 161 81 L 161 86 L 156 86 L 151 86 L 151 81 L 156 81 L 156 76 L 156 71 L 156 66 L 156 61 L 156 56 L 151 56 L 151 51 L 156 51 L 156 56 L 156 61 L 151 61 L 151 56 L 146 56 L 146 61 L 146 66 L 151 66 L 156 66 L 161 66 L 161 71 L 156 71 L 156 76 L 161 76 L 161 81 L 161 86 L 161 91 L 161 96 L 166 96 L 166 101 L 166 106 L 171 106 L 171 101 L 171 96 L 176 96 L 181 96 L 181 91 L 186 91 L 186 86 L 181 86 L 181 91 L 186 91 L 186 96 L 186 101 L 186 106 L 191 106 L 191 101 L 191 96 L 196 96 L 201 96 L 206 96 L 206 101 L 206 106 L 201 106 L 201 111 L 206 111 L 206 106 L 206 101 L 206 96 L 201 96 L 201 91 L 201 86 L 206 86 L 206 81 L 206 76 L 201 76 L 201 81 L 196 81 L 196 86 L 191 86 L 191 91 L 186 91 L 186 96 L 181 96 L 176 96 L 176 91 L 176 86 L 171 86 L 171 81 L 166 81 L 166 86 L 166 91 L 161 91 L 161 86 L 161 81 L 166 81 L 166 86 L 161 86 L 161 81 L 156 81 L 156 86 L 156 91 L 156 96 L 151 96 L 146 96 L 141 96 L 136 96 L 136 101 L 131 101 L 126 101 L 121 101 L 121 96 L 116 96 L 116 101 L 121 101 L 121 106 L 116 106 L 116 111 L 121 111 L 126 111 L 131 111 L 136 111 L 141 111 L 141 116 L 141 121 L 146 121 L 146 126 L 146 131 L 146 136 L 141 136 L 136 136 L 136 131 L 141 131 L 141 126 L 146 126 L 146 131 L 141 131 L 141 126 L 146 126 L 146 121 L 146 116 L 146 111 L 151 111 L 156 111 L 156 116 L 151 116 L 146 116 L 146 121 L 151 121 L 151 116 L 151 111 L 156 111 L 156 116 L 161 116 L 161 121 L 161 126 L 166 126 L 166 121 L 171 121 L 176 121 L 181 121 L 186 121 L 186 116 L 186 111 L 181 111 L 181 106 L 176 106 L 171 106 L 166 106 L 166 101 L 171 101 L 176 101 L 176 106 L 176 111 L 171 111 L 171 116 L 176 116 L 176 121 L 176 126 L 181 126 L 181 131 L 181 136 L 186 136 L 191 136 L 191 131 L 186 131 L 181 131 L 176 131 L 171 131 L 166 131 L 161 131 L 161 126 L 161 121 L 161 116 L 166 116 L 171 116 L 171 111 L 176 111 L 176 116 L 181 116 L 181 121 L 181 126 L 186 126 L 186 121 L 186 116 L 181 116 L 176 116 L 176 111 L 176 106 L 181 106 L 181 101 L 176 101 L 176 106 L 171 106 L 171 111 L 176 111 L 181 111 L 181 106 L 186 106 L 186 101 L 186 96 L 181 96 L 181 101 L 176 101 L 171 101 L 171 96 L 171 91 L 171 86 L 176 86 L 176 81 L 171 81 L 166 81 L 166 86 L 161 86 L 161 91 L 166 91 L 166 96 L 171 96 L 171 101 L 166 101 L 166 106 L 171 106 L 171 111 L 171 116 L 176 116 L 181 116 L 181 121 L 186 121 L 191 121 L 191 116 L 196 116 L 196 111 L 196 106 L 196 101 L 191 101 L 191 106 L 196 106 L 196 101 L 191 101 L 191 106 L 196 106 L 196 111 L 196 116 L 196 121 L 191 121 L 186 121 L 186 116 L 181 116 L 176 116 L 171 116 L 166 116 L 166 121 L 171 121 L 176 121 L 176 116 L 171 116 L 171 121 L 166 121 L 166 116 L 166 111 L 166 106 L 171 106 L 171 111 L 166 111 L 166 116 L 161 116 L 156 116 L 156 121 L 151 121 L 151 126 L 146 126 L 141 126 L 141 121 L 141 116 L 146 116 L 146 111 L 141 111 L 141 106 L 146 106 L 146 101 L 141 101 L 136 101 L 136 106 L 136 111 L 141 111 L 141 106 L 136 106 L 131 106 L 131 101 L 131 96 L 136 96 L 136 101 L 141 101 L 141 96 L 136 96 L 136 101 L 131 101 L 126 101 L 126 106 L 131 106 L 131 101 L 126 101 L 121 101 L 121 96 L 116 96 L 116 101 L 116 106 L 116 111 L 111 111 L 111 106 L 106 106 L 101 106 L 101 111 L 101 116 L 106 116 L 111 116 L 111 111 L 116 111 L 121 111 L 121 106 L 121 101 L 126 101 L 126 106 L 121 106 L 121 111 L 121 116 L 116 116 L 111 116 L 106 116 L 101 116 L 96 116 L 91 116 L 86 116 L 81 116 L 81 111 L 81 106 L 86 106 L 86 101 L 91 101 L 91 106 L 91 111 L 86 111 L 81 111 L 81 116 L 86 116 L 91 116 L 91 121 L 96 121 L 101 121 L 101 126 L 96 126 L 96 121 L 96 116 L 91 116 L 91 121 L 96 121 L 96 126 L 101 126 L 101 121 L 101 116 L 96 116 L 91 116 L 91 111 L 91 106 L 96 106 L 101 106 L 106 106 L 106 111 L 106 116 L 101 116 L 96 116 L 96 111 L 101 111 L 101 116 L 96 116 L 91 116 L 86 116 L 86 111 L 91 111 L 91 116 L 86 116 L 81 116 L 81 121 L 81 126 L 86 126 L 91 126 L 91 121 L 86 121 L 81 121 L 81 126 L 81 131 L 76 131 L 76 136 L 81 136 L 86 136 L 86 141 L 91 141 L 91 136 L 91 131 L 96 131 L 101 131 L 101 136 L 96 136 L 96 131 L 96 126 L 91 126 L 91 121 L 96 121 L 101 121 L 101 126 L 106 126 L 111 126 L 111 121 L 106 121 L 101 121 L 101 126 L 101 131 L 96 131 L 96 126 L 91 126 L 91 121 L 96 121 L 101 121 L 101 126 L 101 131 L 96 131 L 91 131 L 91 126 L 96 126 L 96 131 L 96 136 L 101 136 L 101 131 L 106 131 L 106 126 L 106 121 L 111 121 L 111 126 L 111 131 L 116 131 L 116 136 L 121 136 L 121 141 L 121 146 L 116 146 L 116 141 L 111 141 L 111 146 L 116 146 L 121 146 L 126 146 L 131 146 L 131 141 L 136 141 L 136 136 L 136 131 L 131 131 L 131 136 L 131 141 L 131 146 L 136 146 L 141 146 L 141 151 L 146 151 L 151 151 L 156 151 L 161 151 L 161 156 L 166 156 L 171 156 L 176 156 L 181 156 L 181 151 L 181 146 L 186 146 L 186 151 L 186 156 L 186 161 L 181 161 L 181 166 L 181 171 L 186 171 L 186 166 L 191 166 L 196 166 L 201 166 L 201 171 L 196 171 L 196 176 L 196 181 L 191 181 L 191 186 L 186 186 L 181 186 L 181 181 L 181 176 L 176 176 L 176 181 L 181 181 L 181 176 L 176 176 L 176 181 L 171 181 L 171 176 L 176 176 L 181 176 L 186 176 L 186 181 L 186 186 L 181 186 L 181 191 L 176 191 L 176 196 L 171 196 L 171 201 L 166 201 L 161 201 L 161 196 L 166 196 L 166 201 L 166 206 L 171 206 L 171 201 L 166 201 L 166 196 L 161 196 L 161 201 L 166 201 L 166 206 L 161 206 L 161 201 L 156 201 L 151 201 L 146 201 L 146 196 L 141 196 L 141 191 L 141 186 L 146 186 L 151 186 L 156 186 L 156 181 L 156 176 L 156 171 L 161 171 L 161 166 L 166 166 L 171 166 L 171 161 L 176 161 L 176 166 L 176 171 L 181 171 L 181 166 L 186 166 L 191 166 L 191 171 L 186 171 L 181 171 L 181 176 L 181 181 L 186 181 L 191 181 L 191 186 L 191 191 L 196 191 L 196 186 L 201 186 L 201 181 L 196 181 L 191 181 L 191 186 L 196 186 L 201 186 L 201 181 L 206 181 L 206 186 L 206 191 L 206 196 L 206 201 L 206 206 L 201 206 L 201 201 L 206 201 L 206 206 L 201 206 L 196 206 L 191 206 L 186 206 L 181 206 L 176 206 L 176 201 L 181 201 L 181 206 L 176 206 L 171 206 L 166 206 L 161 206 L 156 206 L 156 201 L 161 201 L 161 196 L 156 196 L 156 201 L 151 201 L 151 206 L 146 206 L 146 201 L 146 196 L 141 196 L 141 201 L 136 201 L 136 196 L 136 191 L 141 191 L 141 186 L 136 186 L 136 181 L 136 176 L 136 171 L 141 171 L 146 171 L 146 166 L 141 166 L 141 161 L 141 156 L 146 156 L 146 161 L 141 161 L 141 156 L 146 156 L 151 156 L 156 156 L 156 151 L 161 151 L 161 146 L 161 141 L 166 141 L 166 146 L 171 146 L 171 141 L 166 141 L 166 136 L 171 136 L 176 136 L 176 131 L 181 131 L 181 136 L 176 136 L 171 136 L 171 131 L 166 131 L 166 136 L 166 141 L 161 141 L 161 136 L 161 131 L 161 126 L 161 121 L 161 116 L 161 111 L 166 111 L 171 111 L 176 111 L 176 116 L 171 116 L 171 111 L 171 106 L 166 106 L 161 106 L 161 101 L 156 101 L 156 96 L 151 96 L 151 91 L 151 86 L 146 86 L 146 91 L 141 91 L 141 96 L 146 96 L 146 101 L 141 101 L 136 101 L 131 101 L 131 96 L 126 96 L 126 91 L 126 86 L 126 81 L 131 81 L 131 86 L 126 86 L 121 86 L 121 91 L 126 91 L 126 96 L 126 101 L 131 101 L 136 101 L 141 101 L 146 101 L 146 96 L 151 96 L 151 91 L 156 91 L 156 86 L 156 81 L 151 81 L 151 76 L 151 71 L 156 71 L 161 71 L 161 66 L 161 61 L 166 61 L 166 56 L 171 56 L 171 51 L 176 51 L 181 51 L 181 56 L 181 61 L 186 61 L 191 61 L 191 56 L 186 56 L 181 56 L 181 61 L 176 61 L 171 61 L 166 61 L 161 61 L 161 56 L 166 56 L 166 51 L 171 51 L 171 46 L 176 46 L 176 51 L 171 51 L 166 51 L 161 51 L 161 46 L 166 46 L 171 46 L 171 51 L 166 51 L 166 46 L 166 41 L 171 41 L 171 46 L 176 46 L 176 41 L 171 41 L 171 36 L 166 36 L 161 36 L 161 31 L 166 31 L 166 26 L 166 21 L 166 16 L 161 16 L 161 11 L 166 11 L 166 6 L 171 6 L 171 11 L 166 11 L 166 6 L 161 6 L 161 11 L 156 11 L 156 16 L 161 16 L 166 16 L 166 11 L 166 6 L 171 6 L 176 6 L 181 6 L 186 6 L 191 6 L 196 6 L 201 6 L 201 11 L 206 11 L 206 16 L 206 21 L 201 21 L 201 26 L 201 31 L 206 31 L 206 36 L 206 41 L 201 41 L 196 41 L 196 46 L 201 46 L 201 41 L 206 41 L 206 46 L 206 51 L 201 51 L 196 51 L 196 56 L 191 56 L 191 61 L 191 66 L 196 66 L 196 71 L 191 71 L 186 71 L 186 76 L 191 76 L 196 76 L 196 71 L 201 71 L 206 71 L 206 76 L 201 76 L 201 81 L 196 81 L 191 81 L 186 81 L 186 76 L 186 71 L 191 71 L 191 66 L 196 66 L 196 61 L 196 56 L 201 56 L 206 56 L 206 61 L 201 61 L 201 56 L 196 56 L 191 56 L 191 61 L 191 66 L 191 71 L 196 71 L 196 76 L 201 76 L 201 71 L 196 71 L 191 71 L 191 66 L 191 61 L 191 56 L 191 51 L 191 46 L 196 46 L 196 41 L 196 36 L 191 36 L 191 41 L 186 41 L 186 36 L 186 31 L 191 31 L 191 26 L 196 26 L 196 31 L 196 36 L 196 41 L 196 46 L 201 46 L 201 41 L 196 41 L 196 36 L 201 36 L 206 36 L 206 41 L 201 41 L 196 41 L 196 46 L 196 51 L 196 56 L 191 56 L 191 51 L 186 51" fill="none" stroke="#FFFFFF" stroke-opacity="0.041666666666666664" stroke-width="1" stroke-linecap="round" stroke-linejoin="round"/><path d="M 106 106 L 106 101 L 111 101 L 111 106 L 106 106 L 101 106 L 101 111 L 96 111 L 91 111 L 86 111 L 86 106 L 91 106 L 91 111 L 91 116 L 91 121 L 91 126 L 86 126 L 86 131 L 86 136 L 91 136 L 91 141 L 91 146 L 96 146 L 96 141 L 96 136 L 101 136 L 106 136 L 106 141 L 101 141 L 96 141 L 91 141 L 86 141 L 86 136 L 91 136 L 91 131 L 86 131 L 81 131 L 76 131 L 76 136 L 76 141 L 81 141 L 81 146 L 86 146 L 86 141 L 81 141 L 76 141 L 76 136 L 71 136 L 71 141 L 71 146 L 71 151 L 66 151 L 66 156 L 71 156 L 71 161 L 66 161 L 66 166 L 71 166 L 71 161 L 76 161 L 81 161 L 81 156" fill="none" stroke="#FF3B30" stroke-opacity="0.041666666666666664" stroke-width="1" stroke-linecap="round" stroke-linejoin="round"/></svg>