<?xml version="1.0" encoding="UTF-8"?><svg xmlns="http://www.w3.org/2000/svg" width="212" height="212" viewBox="0 0 212 212"><rect width="100%" height="100%" fill="#000000"/><path d="M 106 106 L 106 101 L 106 96 L 101 96 L 101 101 L 101 106 L 101 111 L 96 111 L 91 111 L 86 111 L 81 111 L 81 106 L 81 101 L 86 101 L 86 96 L 81 96 L 81 101 L 86 101 L 86 106 L 81 106 L 76 106 L 76 101 L 76 96 L 81 96 L 81 101 L 76 101 L 76 106 L 71 106 L 66 106 L 66 101 L 71 101 L 71 106 L 71 111 L 66 111 L 66 116 L 61 116 L 56 116 L 56 111 L 51 111 L 51 106 L 46 106 L 46 111 L 46 116 L 51 116 L 56 116 L 56 111 L 51 111 L 51 106 L 46 106 L 41 106 L 41 111 L 36 111 L 31 111 L 26 111 L 26 106 L 21 106 L 21 111 L 21 116 L 16 116 L 16 111 L 21 111 L 26 111 L 31 111 L 36 111 L 36 106 L 36 101 L 41 101 L 41 96 L 41 91 L 41 86 L 36 86 L 36 81 L 31 81 L 31 76 L 31 71 L 36 71 L 36 66 L 41 66 L 46 66 L 51 66 L 51 71 L 51 76 L 56 76 L 56 71 L 51 71 L 46 71 L 46 66 L 51 66 L 51 71 L 56 71 L 56 76 L 56 81 L 56 86 L 56 91 L 61 91 L 61 96 L 61 101 L 66 101 L 71 101 L 71 106 L 71 111 L 76 111 L 76 106 L 81 106 L 81 111 L 76 111 L 76 116 L 71 116 L 66 116 L 66 121 L 66 126 L 71 126 L 71 131 L 76 131 L 81 131 L 81 136 L 76 136 L 71 136 L 71 131 L 71 126 L 66 126 L 61 126 L 56 126 L 51 126 L 46 126 L 41 126 L 41 131 L 41 136 L 41 141 L 41 146 L 41 151 L 41 156 L 41 161 L 46 161 L 46 156 L 41 156 L 36 156 L 31 156 L 31 151 L 36 151 L 41 151 L 41 146 L 46 146 L 51 146 L 51 151 L 51 156 L 56 156 L 56 161 L 61 161 L 66 161 L 66 156 L 66 151 L 71 151 L 76 151 L 81 151 L 81 146 L 76 146 L 76 151 L 76 156 L 81 156 L 81 151 L 86 151 L 91 151 L 96 151 L 96 146 L 101 146 L 106 146 L 106 141 L 101 141 L 101 136 L 96 136 L 96 141 L 96 146 L 91 146 L 91 141 L 86 141 L 86 136 L 86 131 L 81 131 L 81 136 L 81 141 L 86 141 L 86 146 L 81 146 L 81 141 L 81 136 L 76 136 L 76 131 L 81 131 L 86 131 L 91 131 L 91 126 L 86 126 L 81 126 L 81 121 L 76 121 L 76 126 L 81 126 L 81 131 L 86 131 L 86 136 L 86 141 L 86 146 L 81 146 L 76 146 L 71 146 L 71 141 L 71 136 L 71 131 L 66 131 L 61 131 L 56 131 L 51 131 L 46 131 L 46 126 L 51 126 L 56 126 L 56 121 L 51 121 L 51 116 L 46 116 L 46 121 L 51 121 L 56 121 L 61 121 L 61 116 L 66 116 L 66 111 L 71 111 L 76 111 L 81 111 L 81 106 L 86 106 L 86 111 L 81 111 L 81 116 L 81 121 L 86 121 L 91 121 L 96 121 L 101 121 L 106 121 L 106 126 L 111 126 L 111 131 L 111 136 L 111 141 L 111 146 L 116 146 L 116 151 L 121 151 L 121 146 L 121 141 L 126 141 L 126 136 L 126 131 L 131 131 L 136 131 L 141 131 L 141 136 L 146 136 L 146 131 L 151 131 L 156 131 L 161 131 L 161 126 L 166 126 L 166 121 L 171 121 L 171 126 L 166 126 L 166 131 L 166 136 L 171 136 L 171 141 L 171 146 L 166 146 L 166 151 L 166 156 L 171 156 L 171 151 L 176 151 L 176 146 L 176 141 L 181 141 L 186 141 L 186 136 L 181 136 L 181 131 L 181 126 L 186 126 L 186 131 L 191 131 L 196 131 L 196 136 L 201 136 L 201 131 L 201 126 L 196 126 L 196 121 L 196 116 L 196 111 L 201 111 L 206 111 L 206 106 L 201 106 L 201 101 L 201 96 L 201 91 L 201 86 L 196 86 L 196 81 L 191 81 L 186 81 L 186 86 L 186 91 L 186 96 L 181 96 L 181 101 L 186 101 L 186 96 L 186 91 L 186 86 L 181 86 L 181 91 L 186 91 L 186 96 L 181 96 L 181 91 L 181 86 L 176 86 L 171 86 L 171 91 L 171 96 L 166 96 L 166 91 L 171 91 L 176 91 L 176 86 L 176 81 L 171 81 L 171 76 L 171 71 L 176 71 L 176 66 L 176 61 L 171 61 L 171 66 L 166 66 L 161 66 L 161 61 L 156 61 L 151 61 L 146 61 L 146 56 L 146 51 L 151 51 L 151 46 L 156 46 L 156 51 L 151 51 L 146 51 L 141 51 L 141 56 L 141 61 L 146 61 L 146 66 L 151 66 L 151 71 L 151 76 L 156 76 L 156 81 L 156 86 L 156 91 L 156 96 L 151 96 L 151 91 L 151 86 L 146 86 L 141 86 L 141 91 L 136 91 L 131 91 L 131 86 L 131 81 L 126 81 L 121 81 L 121 86 L 126 86 L 131 86 L 131 81 L 131 76 L 131 71 L 136 71 L 136 66 L 141 66 L 141 71 L 136 71 L 131 71 L 131 66 L 136 66 L 136 61 L 131 61 L 131 56 L 126 56 L 126 61 L 126 66 L 121 66 L 116 66 L 116 71 L 121 71 L 121 66 L 116 66 L 116 71 L 116 76 L 111 76 L 111 71 L 106 71 L 101 71 L 96 71 L 96 66 L 101 66 L 106 66 L 106 61 L 101 61 L 96 61 L 96 66 L 91 66 L 86 66 L 86 71 L 86 76 L 91 76 L 91 81 L 86 81 L 86 86 L 86 91 L 81 91 L 81 86 L 76 86 L 71 86 L 71 91 L 76 91 L 76 96 L 71 96 L 71 91 L 76 91 L 76 96 L 81 96 L 86 96 L 86 91 L 91 91 L 91 86 L 96 86 L 96 91 L 91 91 L 86 91 L 86 96 L 86 101 L 81 101 L 81 96 L 76 96 L 71 96 L 71 101 L 76 101 L 76 106 L 71 106 L 71 101 L 71 96 L 71 91 L 76 91 L 76 86 L 76 81 L 76 76 L 81 76 L 81 71 L 86 71 L 86 66 L 91 66 L 96 66 L 96 71 L 101 71 L 101 66 L 101 61 L 101 56 L 106 56 L 106 61 L 101 61 L 101 66 L 101 71 L 106 71 L 106 66 L 111 66 L 111 61 L 106 61 L 106 56 L 111 56 L 111 51 L 111 46 L 116 46 L 116 41 L 121 41 L 121 36 L 126 36 L 131 36 L 131 41 L 131 46 L 131 51 L 136 51 L 141 51 L 146 51 L 146 56 L 141 56 L 136 56 L 136 61 L 136 66 L 136 71 L 131 71 L 126 71 L 121 71 L 116 71 L 111 71 L 106 71 L 106 76 L 111 76 L 111 81 L 116 81 L 121 81 L 126 81 L 131 81 L 136 81 L 136 76 L 136 71 L 136 66 L 131 66 L 126 66 L 126 71 L 131 71 L 131 66 L 136 66 L 136 61 L 131 61 L 131 56 L 126 56 L 121 56 L 116 56 L 111 56 L 106 56 L 106 61 L 106 66 L 101 66 L 96 66 L 91 66 L 91 71 L 96 71 L 96 76 L 101 76 L 101 81 L 106 81 L 111 81 L 116 81 L 121 81 L 126 81 L 126 76 L 126 71 L 126 66 L 121 66 L 121 61 L 126 61 L 126 66 L 126 71 L 121 71 L 116 71 L 116 66 L 111 66 L 111 61 L 111 56 L 106 56 L 106 61 L 101 61 L 96 61 L 91 61 L 86 61 L 86 66 L 81 66 L 81 71 L 81 76 L 76 76 L 76 81 L 76 86 L 76 91 L 81 91 L 81 96 L 81 101 L 86 101 L 86 96 L 81 96 L 81 91 L 76 91 L 76 96 L 76 101 L 76 106 L 81 106 L 86 106 L 86 101 L 86 96 L 81 96 L 76 96 L 76 101 L 71 101 L 66 101 L 61 101 L 56 101 L 56 96 L 51 96 L 51 91 L 51 86 L 51 81 L 46 81 L 46 76 L 41 76 L 41 81 L 46 81 L 46 76 L 51 76 L 51 81 L 51 86 L 51 91 L 46 91 L 46 86 L 41 86 L 36 86 L 36 81 L 41 81 L 41 86 L 41 91 L 36 91 L 31 91 L 31 86 L 31 81 L 36 81 L 41 81 L 41 76 L 46 76 L 51 76 L 51 71 L 56 71 L 61 71 L 61 76 L 56 76 L 56 71 L 51 71 L 51 66 L 51 61 L 56 61 L 56 56 L 56 51 L 61 51 L 66 51 L 66 46 L 71 46 L 71 41 L 76 41 L 76 36 L 81 36 L 81 41 L 86 41 L 86 36 L 81 36 L 76 36 L 76 41 L 76 46 L 81 46 L 81 51 L 81 56 L 76 56 L 76 61 L 71 61 L 66 61 L 66 56 L 71 56 L 71 61 L 76 61 L 81 61 L 86 61 L 91 61 L 91 56 L 96 56 L 101 56 L 101 61 L 106 61 L 111 61 L 111 66 L 111 71 L 116 71 L 116 66 L 121 66 L 121 61 L 116 61 L 111 61 L 106 61 L 106 66 L 101 66 L 96 66 L 96 61 L 101 61 L 101 56 L 101 51 L 101 46 L 96 46 L 96 51 L 96 56 L 96 61 L 101 61 L 101 66 L 106 66 L 111 66 L 111 71 L 106 71 L 106 76 L 101 76 L 96 76 L 96 81 L 96 86 L 96 91 L 101 91 L 101 96 L 101 101 L 101 106 L 106 106 L 106 111 L 101 111 L 101 106 L 96 106 L 96 101 L 91 101 L 86 101 L 81 101 L 76 101 L 76 106 L 81 106 L 81 101 L 81 96 L 86 96 L 86 101 L 91 101 L 96 101 L 96 96 L 101 96 L 106 96 L 106 91 L 111 91 L 111 86 L 116 86 L 116 91 L 116 96 L 116 101 L 111 101 L 111 96 L 106 96 L 101 96 L 101 101 L 96 101 L 96 106 L 101 106 L 101 111 L 96 111 L 96 106 L 96 101 L 101 101 L 101 96 L 96 96 L 96 91 L 96 86 L 101 86 L 106 86 L 106 91 L 111 91 L 111 96 L 111 101 L 111 106 L 116 106 L 116 111 L 121 111 L 126 111 L 126 116 L 126 121 L 126 126 L 131 126 L 136 126 L 141 126 L 141 131 L 146 131 L 146 126 L 151 126 L 156 126 L 156 131 L 161 131 L 166 131 L 171 131 L 176 131 L 176 126 L 176 121 L 176 116 L 181 116 L 186 116 L 186 111 L 186 106 L 186 101 L 191 101 L 191 106 L 186 106 L 186 101 L 186 96 L 181 96 L 181 91 L 186 91 L 186 86 L 181 86 L 181 91 L 176 91 L 176 96 L 171 96 L 171 91 L 166 91 L 166 86 L 161 86 L 161 91 L 161 96 L 161 101 L 166 101 L 171 101 L 171 106 L 176 106 L 181 106 L 186 106 L 191 106 L 191 101 L 196 101 L 201 101 L 201 106 L 196 106 L 191 106 L 191 101 L 191 96 L 196 96 L 196 91 L 191 91 L 186 91 L 186 96 L 191 96 L 191 91 L 186 91 L 181 91 L 176 91 L 171 91 L 171 96 L 176 96 L 181 96 L 181 91 L 186 91 L 191 91 L 191 96 L 186 96 L 186 101 L 181 101 L 181 96 L 181 91 L 181 86 L 176 86 L 176 91 L 176 96 L 176 101 L 171 101 L 171 106 L 176 106 L 181 106 L 181 111 L 186 111 L 186 116 L 181 116 L 176 116 L 171 116 L 166 116 L 166 111 L 171 111 L 171 106 L 166 106 L 166 111 L 161 111 L 156 111 L 156 116 L 161 116 L 161 111 L 156 111 L 151 111 L 151 106 L 146 106 L 146 111 L 146 116 L 146 121 L 141 121 L 141 116 L 146 116 L 146 121 L 151 121 L 156 121 L 156 126 L 156 131 L 161 131 L 161 136 L 156 136 L 156 131 L 156 126 L 151 126 L 151 131 L 151 136 L 151 141 L 156 141 L 161 141 L 166 141 L 166 146 L 171 146 L 171 151 L 166 151 L 166 146 L 171 146 L 171 151 L 176 151 L 181 151 L 186 151 L 186 156 L 186 161 L 186 166 L 181 166 L 181 161 L 186 161 L 186 156 L 181 156 L 176 156 L 171 156 L 171 151 L 176 151 L 176 156 L 181 156 L 181 161 L 186 161 L 186 156 L 186 151 L 181 151 L 181 156 L 181 161 L 176 161 L 176 156 L 181 156 L 181 151 L 181 146 L 176 146 L 176 151 L 176 156 L 181 156 L 181 151 L 186 151 L 191 151 L 191 146 L 186 146 L 186 151 L 186 156 L 191 156 L 191 161 L 196 161 L 196 166 L 201 166 L 206 166 L 206 171 L 206 176 L 201 176 L 196 176 L 196 181 L 191 181 L 186 181 L 186 176 L 181 176 L 176 176 L 176 181 L 176 186 L 176 191 L 171 191 L 171 196 L 171 201 L 171 206 L 166 206 L 161 206 L 156 206 L 156 201 L 161 201 L 166 201 L 171 201 L 176 201 L 181 201 L 186 201 L 191 201 L 196 201 L 196 206 L 191 206 L 191 201 L 191 196 L 196 196 L 196 201 L 196 206 L 201 206 L 201 201 L 201 196 L 196 196 L 191 196 L 186 196 L 181 196 L 181 201 L 186 201 L 186 196 L 191 196 L 191 191 L 196 191 L 196 196 L 201 196 L 201 191 L 206 191 L 206 196 L 206 201 L 206 206 L 201 206 L 196 206 L 196 201 L 201 201 L 206 201 L 206 206 L 201 206 L 196 206 L 191 206 L 186 206 L 186 201 L 181 201 L 176 201 L 176 196 L 171 196 L 171 191 L 176 191 L 176 196 L 171 196 L 166 196 L 161 196 L 161 201 L 161 206 L 166 206 L 171 206 L 176 206 L 181 206 L 186 206 L 191 206 L 191 201 L 186 201 L 186 206 L 191 206 L 191 201 L 191 196 L 186 196 L 181 196 L 181 191 L 186 191 L 186 186 L 181 186 L 181 191 L 186 191 L 191 191 L 196 191 L 201 191 L 206 191 L 206 196 L 201 196 L 201 201 L 196 201 L 196 206 L 191 206 L 186 206 L 181 206 L 176 206 L 176 201 L 176 196 L 171 196 L 166 196 L 166 191 L 166 186 L 161 186 L 156 186 L 151 186 L 151 181 L 151 176 L 146 176 L 146 171 L 146 166 L 151 166 L 156 166 L 156 171 L 151 171 L 151 166 L 146 166 L 141 166 L 141 171 L 136 171 L 131 171 L 126 171 L 121 171 L 121 176 L 126 176 L 126 181 L 121 181 L 121 176 L 116 176 L 116 181 L 116 186 L 121 186 L 121 181 L 116 181 L 116 186 L 116 191 L 116 196 L 116 201 L 111 201 L 106 201 L 101 201 L 101 206 L 106 206 L 111 206 L 111 201 L 111 196 L 111 191 L 111 186 L 106 186 L 106 191 L 101 191 L 96 191 L 96 186 L 96 181 L 91 181 L 86 181 L 86 176 L 86 171 L 91 171 L 91 166 L 86 166 L 81 166 L 81 161 L 76 161 L 76 166 L 81 166 L 81 161 L 86 161 L 91 161 L 91 156 L 91 151 L 86 151 L 86 146 L 86 141 L 86 136 L 81 136 L 81 141 L 81 146 L 86 146 L 86 151 L 81 151 L 81 156 L 76 156 L 76 151 L 81 151 L 81 156 L 76 156 L 71 156 L 71 151 L 66 151 L 61 151 L 61 146 L 56 146 L 51 146 L 51 151 L 56 151 L 56 146 L 56 141 L 61 141 L 61 146 L 66 146 L 71 146 L 76 146 L 81 146 L 81 151 L 81 156 L 81 161 L 81 166 L 86 166 L 86 161 L 86 156 L 86 151 L 91 151 L 91 156 L 86 156 L 86 161 L 81 161 L 81 156 L 86 156 L 86 151 L 81 151 L 81 146 L 86 146 L 86 151 L 81 151 L 81 156 L 81 161 L 81 166 L 76 166 L 71 166 L 66 166 L 66 161 L 71 161 L 71 156 L 66 156 L 66 151 L 61 151 L 56 151 L 56 156 L 56 161 L 61 161 L 61 156 L 61 151 L 61 146 L 56 146 L 56 151 L 56 156 L 56 161 L 51 161 L 51 156 L 46 156 L 46 161 L 46 166 L 46 171 L 46 176 L 46 181 L 46 186 L 46 191 L 41 191 L 41 196 L 36 196 L 36 191 L 31 191 L 31 186 L 36 186 L 36 191 L 36 196 L 36 201 L 41 201 L 41 206 L 36 206 L 31 206 L 26 206 L 21 206 L 21 201 L 16 201 L 11 201 L 11 206 L 6 206 L 6 201 L 6 196 L 11 196 L 16 196 L 16 201 L 21 201 L 26 201 L 26 196 L 26 191 L 21 191 L 21 196 L 16 196 L 16 191 L 11 191 L 6 191 L 6 186 L 6 181 L 11 181 L 11 176 L 6 176 L 6 181 L 11 181 L 16 181 L 16 176 L 21 176 L 21 181 L 26 181 L 26 176 L 26 171 L 31 171 L 31 166 L 36 166 L 36 161 L 31 161 L 26 161 L 26 156 L 31 156 L 36 156 L 36 151 L 31 151 L 31 156 L 31 161 L 26 161 L 26 156 L 21 156 L 16 156 L 16 151 L 21 151 L 21 156 L 26 156 L 26 151 L 26 146 L 26 141 L 26 136 L 26 131 L 31 131 L 31 126 L 26 126 L 21 126 L 21 131 L 21 136 L 16 136 L 16 141 L 11 141 L 11 146 L 16 146 L 21 146 L 21 151 L 26 151 L 26 146 L 21 146 L 16 146 L 16 141 L 21 141 L 21 136 L 26 136 L 26 131 L 31 131 L 36 131 L 36 126 L 31 126 L 31 131 L 26 131 L 26 136 L 21 136 L 21 131 L 21 126 L 16 126 L 16 131 L 21 131 L 21 126 L 26 126 L 26 131 L 21 131 L 21 126 L 21 121 L 21 116 L 26 116 L 26 111 L 31 111 L 36 111 L 41 111 L 41 116 L 46 116 L 46 111 L 41 111 L 41 106 L 36 106 L 31 106 L 31 111 L 36 111 L 36 106 L 31 106 L 31 101 L 36 101 L 36 106 L 31 106 L 31 111 L 36 111 L 36 116 L 41 116 L 41 121 L 41 126 L 46 126 L 46 131 L 46 136 L 51 136 L 56 136 L 61 136 L 61 131 L 56 131 L 56 126 L 51 126 L 51 121 L 51 116 L 51 111 L 46 111 L 46 106 L 46 101 L 46 96 L 41 96 L 36 96 L 36 101 L 41 101 L 41 106 L 41 111 L 36 111 L 31 111 L 26 111 L 26 106 L 26 101 L 26 96 L 21 96 L 16 96 L 16 91 L 21 91 L 21 96 L 21 101 L 21 106 L 16 106 L 11 106 L 6 106 L 6 101 L 6 96 L 11 96 L 16 96 L 16 101 L 16 106 L 11 106 L 6 106 L 6 111 L 6 116 L 11 116 L 11 121 L 11 126 L 6 126 L 6 121 L 11 121 L 16 121 L 16 126 L 21 126 L 26 126 L 31 126 L 31 131 L 36 131 L 36 136 L 31 136 L 26 136 L 21 136 L 21 131 L 16 131 L 16 126 L 21 126 L 21 131 L 26 131 L 26 126 L 21 126 L 16 126 L 16 121 L 21 121 L 26 121 L 26 116 L 26 111 L 31 111 L 31 116 L 26 116 L 21 116 L 21 121 L 26 121 L 26 116 L 21 116 L 21 111 L 21 106 L 26 106 L 31 106 L 31 101 L 31 96 L 36 96 L 36 101 L 36 106 L 36 111 L 36 116 L 31 116 L 31 111 L 36 111 L 36 106 L 31 106 L 26 106 L 26 111 L 31 111 L 31 116 L 36 116 L 41 116 L 46 116 L 46 111 L 51 111 L 51 116 L 46 116 L 46 111 L 41 111 L 41 106 L 36 106 L 31 106 L 31 111 L 31 116 L 36 116 L 36 121 L 36 126 L 41 126 L 41 131 L 36 131 L 31 131 L 31 126 L 26 126 L 21 126 L 16 126 L 16 121 L 16 116 L 16 111 L 11 111 L 6 111 L 6 106 L 6 101 L 6 96 L 11 96 L 11 101 L 11 106 L 6 106 L 6 111 L 6 116 L 6 121 L 11 121 L 16 121 L 21 121 L 21 116 L 26 116 L 26 111 L 26 106 L 26 101 L 26 96 L 26 91 L 26 86 L 26 81 L 26 76 L 31 76 L 31 81 L 26 81 L 26 76 L 26 71 L 31 71 L 31 76 L 36 76 L 41 76 L 41 71 L 41 66 L 41 61 L 36 61 L 36 56 L 31 56 L 26 56 L 26 51 L 21 51 L 16 51 L 16 56 L 16 61 L 21 61 L 21 56 L 26 56 L 31 56 L 31 51 L 31 46 L 36 46 L 36 51 L 36 56 L 41 56 L 41 61 L 46 61 L 51 61 L 51 56 L 46 56 L 46 61 L 41 61 L 41 56 L 41 51 L 41 46 L 41 41 L 46 41 L 51 41 L 56 41 L 56 36 L 56 31 L 61 31 L 61 36 L 56 36 L 51 36 L 46 36 L 46 41 L 41 41 L 36 41 L 36 36 L 36 31 L 36 26 L 36 21 L 36 16 L 31 16 L 31 11 L 36 11 L 41 11 L 46 11 L 46 16 L 51 16 L 51 11 L 56 11 L 56 6 L 51 6 L 46 6 L 41 6 L 36 6 L 31 6 L 31 11 L 36 11 L 41 11 L 41 16 L 41 21 L 46 21 L 46 26 L 41 26 L 36 26 L 36 21 L 41 21 L 41 16 L 36 16 L 36 11 L 41 11 L 41 6 L 36 6 L 36 11 L 41 11 L 41 16 L 41 21 L 41 26 L 36 26 L 31 26 L 31 31 L 26 31 L 21 31 L 21 26 L 21 21 L 21 16 L 21 11 L 21 6 L 26 6 L 26 11 L 31 11 L 31 16 L 26 16 L 26 21 L 31 21 L 31 26 L 31 31 L 36 31 L 36 26 L 31 26 L 26 26 L 26 21 L 26 16 L 31 16 L 36 16 L 41 16 L 41 21 L 41 26 L 46 26 L 51 26 L 56 26 L 56 21 L 56 16 L 56 11 L 56 6 L 51 6 L 51 11 L 51 16 L 46 16 L 46 21 L 41 21 L 41 16 L 41 11 L 36 11 L 36 16 L 31 16 L 26 16 L 26 11 L 26 6 L 21 6 L 21 11 L 21 16 L 26 16 L 26 11 L 31 11 L 36 11 L 41 11 L 41 16 L 41 21 L 46 21 L 46 16 L 41 16 L 36 16 L 36 11 L 41 11 L 46 11 L 51 11 L 51 16 L 51 21 L 56 21 L 61 21 L 61 26 L 66 26 L 71 26 L 76 26 L 81 26 L 81 31 L 76 31 L 71 31 L 71 36 L 66 36 L 66 41 L 61 41 L 61 46 L 61 51 L 66 51 L 71 51 L 71 56 L 76 56 L 76 61 L 81 61 L 81 66 L 81 71 L 86 71 L 91 71 L 91 76 L 96 76 L 96 81 L 96 86 L 101 86 L 101 81 L 101 76 L 101 71 L 96 71 L 91 71 L 91 76 L 91 81 L 96 81 L 96 76 L 96 71 L 96 66 L 91 66 L 91 71 L 91 76 L 86 76 L 81 76 L 81 71 L 81 66 L 86 66 L 86 61 L 91 61 L 91 66 L 91 71 L 86 71 L 86 76 L 81 76 L 81 71 L 76 71 L 76 66 L 81 66 L 81 61 L 81 56 L 76 56 L 76 61 L 76 66 L 76 71 L 71 71 L 71 76 L 76 76 L 81 76 L 86 76 L 86 71 L 91 71 L 91 66 L 96 66 L 96 71 L 101 71 L 101 76 L 106 76 L 111 76 L 111 81 L 116 81 L 121 81 L 121 76 L 121 71 L 116 71 L 116 76 L 111 76 L 111 81 L 111 86 L 111 91 L 116 91 L 116 86 L 111 86 L 111 91 L 116 91 L 116 86 L 116 81 L 121 81 L 126 81 L 126 86 L 121 86 L 121 91 L 116 91 L 116 86 L 121 86 L 126 86 L 126 91 L 126 96 L 121 96 L 121 101 L 126 101 L 126 106 L 121 106 L 121 111 L 121 116 L 126 116 L 126 111 L 126 106 L 126 101 L 126 96 L 126 91 L 121 91 L 121 86 L 116 86 L 116 91 L 121 91 L 121 96 L 126 96 L 131 96 L 131 91 L 126 91 L 126 96 L 121 96 L 116 96 L 111 96 L 106 96 L 101 96 L 96 96 L 91 96 L 91 101 L 91 106 L 86 106 L 81 106 L 81 111 L 86 111 L 86 116 L 86 121 L 91 121 L 91 116 L 91 111 L 86 111 L 81 111 L 76 111 L 71 111 L 66 111 L 66 116 L 61 116 L 61 111 L 66 111 L 66 106 L 66 101 L 66 96 L 71 96 L 71 91 L 76 91 L 76 86 L 71 86 L 66 86 L 61 86 L 61 91 L 56 91 L 56 96 L 56 101 L 61 101 L 61 106 L 61 111 L 61 116 L 61 121 L 56 121 L 56 116 L 56 111 L 51 111 L 46 111 L 41 111 L 41 116 L 41 121 L 36 121 L 31 121 L 31 126 L 36 126 L 36 121 L 36 116 L 36 111 L 31 111 L 31 106 L 36 106 L 36 101 L 41 101 L 41 96 L 46 96 L 51 96 L 56 96 L 56 91 L 56 86 L 51 86 L 51 81 L 51 76 L 56 76 L 56 81 L 51 81 L 51 76 L 51 71 L 56 71 L 56 66 L 56 61 L 61 61 L 66 61 L 71 61 L 71 66 L 76 66 L 81 66 L 86 66 L 86 71 L 81 71 L 81 66 L 81 61 L 76 61 L 76 56 L 76 51 L 76 46 L 71 46 L 71 51 L 66 51 L 66 46 L 66 41 L 66 36 L 61 36 L 61 41 L 66 41 L 71 41 L 71 46 L 71 51 L 71 56 L 71 61 L 76 61 L 76 66 L 81 66 L 81 71 L 81 76 L 76 76 L 76 71 L 81 71 L 86 71 L 86 76 L 81 76 L 81 81 L 76 81 L 76 86 L 76 91 L 76 96 L 81 96 L 81 91 L 86 91 L 86 86 L 81 86 L 81 91 L 86 91 L 91 91 L 91 96 L 91 101 L 86 101 L 81 101 L 81 96 L 81 91 L 76 91 L 71 91 L 71 86 L 66 86 L 61 86 L 61 91 L 56 91 L 51 91 L 51 96 L 56 96 L 56 101 L 56 106 L 61 106 L 61 111 L 56 111 L 51 111 L 46 111 L 46 116 L 46 121 L 41 121 L 41 126 L 41 131 L 46 131 L 51 131 L 56 131 L 56 126 L 56 121 L 61 121 L 61 116 L 61 111 L 56 111 L 51 111 L 51 116 L 51 121 L 46 121 L 41 121 L 41 126 L 46 126 L 46 121 L 41 121 L 41 116 L 46 116 L 46 121 L 51 121 L 51 116 L 51 111 L 56 111 L 61 111 L 61 116 L 66 116 L 66 111 L 71 111 L 71 116 L 76 116 L 76 121 L 71 121 L 71 116 L 76 116 L 76 111 L 81 111 L 81 116 L 86 116 L 86 111 L 81 111 L 81 116 L 81 121 L 81 126 L 81 131 L 86 131 L 91 131 L 91 126 L 86 126 L 81 126 L 81 131 L 81 136 L 86 136 L 86 141 L 86 146 L 86 151 L 91 151 L 91 156 L 86 156 L 81 156 L 81 151 L 81 146 L 76 146 L 76 141 L 76 136 L 81 136 L 86 136 L 86 141 L 91 141 L 91 146 L 86 146 L 81 146 L 81 141 L 86 141 L 91 141 L 91 136 L 91 131 L 91 126 L 96 126 L 96 121 L 101 121 L 101 116 L 101 111 L 96 111 L 91 111 L 86 111 L 86 106 L 91 106 L 96 106 L 101 106 L 106 106 L 106 101 L 111 101 L 116 101 L 116 96 L 116 91 L 116 86 L 111 86 L 111 91 L 116 91 L 121 91 L 121 96 L 126 96 L 131 96 L 131 101 L 126 101 L 126 96 L 131 96 L 131 101 L 126 101 L 126 96 L 126 91 L 126 86 L 121 86 L 116 86 L 116 81 L 121 81 L 121 86 L 121 91 L 126 91 L 126 96 L 126 101 L 121 101 L 116 101 L 116 96 L 121 96 L 121 91 L 121 86 L 126 86 L 126 81 L 121 81 L 121 86 L 126 86 L 126 81 L 121 81 L 121 86 L 116 86 L 111 86 L 111 91 L 111 96 L 111 101 L 111 106 L 116 106 L 116 111 L 121 111 L 121 106 L 126 106 L 126 101 L 121 101 L 121 96 L 121 91 L 116 91 L 116 86 L 116 81 L 111 81 L 111 76 L 106 76 L 101 76 L 96 76 L 91 76 L 86 76 L 86 71 L 81 71 L 76 71 L 76 66 L 76 61 L 81 61 L 81 56 L 81 51 L 86 51 L 86 46 L 86 41 L 91 41 L 96 41 L 101 41 L 101 36 L 96 36 L 96 31 L 96 26 L 101 26 L 101 31 L 106 31 L 106 36 L 101 36 L 101 31 L 106 31 L 106 36 L 101 36 L 101 31 L 101 26 L 106 26 L 106 31 L 111 31 L 111 26 L 116 26 L 121 26 L 126 26 L 126 21 L 121 21 L 121 26 L 121 31 L 126 31 L 126 26 L 121 26 L 121 21 L 116 21 L 111 21 L 111 26 L 106 26 L 101 26 L 101 31 L 96 31 L 96 36 L 91 36 L 91 31 L 91 26 L 91 21 L 86 21 L 86 16 L 81 16 L 81 11 L 86 11 L 86 6 L 81 6 L 76 6 L 76 11 L 81 11 L 81 16 L 81 21 L 76 21 L 76 16 L 76 11 L 71 11 L 66 11 L 61 11 L 61 6 L 66 6 L 71 6 L 71 11 L 66 11 L 66 16 L 61 16 L 56 16 L 51 16 L 51 11 L 46 11 L 46 6 L 41 6 L 41 11 L 36 11 L 36 16 L 31 16 L 31 21 L 26 21 L 26 16 L 31 16 L 31 21 L 31 26 L 26 26 L 26 21 L 31 21 L 36 21 L 36 26 L 31 26 L 26 26 L 26 21 L 21 21 L 21 16 L 16 16 L 11 16 L 11 11 L 11 6 L 16 6 L 21 6 L 26 6 L 31 6 L 36 6 L 36 11 L 31 11 L 26 11 L 26 6 L 21 6 L 16 6 L 11 6 L 6 6 L 6 11 L 11 11 L 11 16 L 6 16 L 6 11 L 6 6 L 11 6 L 16 6 L 21 6 L 26 6 L 31 6 L 36 6 L 41 6 L 41 11 L 46 11 L 46 6 L 51 6 L 51 11 L 56 11 L 56 16 L 61 16 L 61 11 L 56 11 L 56 6 L 51 6 L 46 6 L 46 11 L 41 11 L 41 6 L 36 6 L 31 6 L 31 11 L 36 11 L 41 11 L 41 6 L 46 6 L 46 11 L 46 16 L 51 16 L 51 11 L 56 11 L 61 11 L 61 6 L 56 6 L 51 6 L 51 11 L 51 16 L 51 21 L 56 21 L 56 26 L 61 26 L 61 21 L 61 16 L 61 11 L 56 11 L 56 6 L 51 6 L 46 6 L 46 11 L 46 16 L 41 16 L 36 16 L 31 16 L 31 21 L 31 26 L 36 26 L 36 31 L 36 36 L 31 36 L 31 31 L 36 31 L 36 26 L 36 21 L 41 21 L 46 21 L 51 21 L 51 26 L 56 26 L 61 26 L 61 21 L 56 21 L 56 26 L 51 26 L 51 21 L 51 16 L 56 16 L 56 21 L 51 21 L 46 21 L 46 26 L 51 26 L 51 21 L 51 16 L 56 16 L 61 16 L 61 11 L 66 11 L 66 16 L 71 16 L 76 16 L 81 16 L 86 16 L 86 21 L 91 21 L 96 21 L 96 26 L 91 26 L 86 26 L 86 31 L 81 31 L 81 36 L 86 36 L 86 41 L 86 46 L 91 46 L 91 41 L 86 41 L 86 36 L 91 36 L 91 41 L 91 46 L 96 46 L 96 41 L 101 41 L 101 36 L 101 31 L 101 26 L 96 26 L 96 31 L 91 31 L 86 31 L 86 26 L 91 26 L 91 21 L 91 16 L 96 16 L 96 11 L 101 11 L 101 6 L 106 6 L 106 11 L 106 16 L 111 16 L 111 21 L 116 21 L 116 26 L 111 26 L 111 21 L 116 21 L 121 21 L 121 16 L 126 16 L 131 16 L 131 21 L 136 21 L 136 26 L 141 26 L 141 21 L 136 21 L 131 21 L 131 26 L 136 26 L 141 26 L 146 26 L 146 31 L 146 36 L 141 36 L 136 36 L 136 31 L 131 31 L 126 31 L 126 26 L 131 26 L 136 26 L 136 31 L 141 31 L 146 31 L 151 31 L 151 26 L 146 26 L 141 26 L 141 21 L 146 21 L 146 16 L 141 16 L 136 16 L 136 11 L 141 11 L 146 11 L 151 11 L 151 16 L 151 21 L 146 21 L 141 21 L 141 26 L 136 26 L 136 31 L 141 31 L 141 36 L 146 36 L 146 41 L 151 41 L 151 36 L 146 36 L 146 31 L 141 31 L 136 31 L 136 26 L 131 26 L 131 21 L 131 16 L 126 16 L 121 16 L 116 16 L 111 16 L 106 16 L 106 11 L 101 11 L 101 16 L 96 16 L 91 16 L 91 21 L 91 26 L 96 26 L 101 26 L 106 26 L 111 26 L 111 31 L 116 31 L 121 31 L 121 26 L 121 21 L 126 21 L 126 16 L 121 16 L 116 16 L 116 11 L 116 6 L 111 6 L 106 6 L 101 6 L 96 6 L 96 11 L 101 11 L 101 16 L 101 21 L 101 26 L 96 26 L 96 21 L 91 21 L 91 26 L 86 26 L 86 31 L 81 31 L 81 26 L 86 26 L 91 26 L 91 31 L 86 31 L 81 31 L 76 31 L 76 26 L 71 26 L 71 21 L 66 21 L 66 16 L 61 16 L 61 11 L 66 11 L 66 16 L 66 21 L 61 21 L 61 16 L 66 16 L 71 16 L 71 11 L 76 11 L 76 6 L 81 6 L 81 11 L 86 11 L 86 6 L 81 6 L 81 11 L 81 16 L 81 21 L 81 26 L 81 31 L 76 31 L 76 26 L 76 21 L 76 16 L 71 16 L 66 16 L 66 11 L 71 11 L 76 11 L 76 16 L 76 21 L 76 26 L 81 26 L 81 21 L 76 21 L 76 16 L 81 16 L 86 16 L 86 11 L 81 11 L 81 16 L 86 16 L 91 16 L 91 21 L 91 26 L 91 31 L 96 31 L 96 36 L 96 41 L 91 41 L 86 41 L 81 41 L 81 46 L 76 46 L 76 51 L 76 56 L 81 56 L 86 56 L 91 56 L 91 61 L 96 61 L 96 66 L 96 71 L 101 71 L 101 76 L 96 76 L 91 76 L 86 76 L 86 81 L 91 81 L 91 86 L 96 86 L 96 81 L 101 81 L 101 86 L 101 91 L 96 91 L 96 96 L 96 101 L 101 101 L 101 96 L 101 91 L 101 86 L 101 81 L 106 81 L 111 81 L 111 86 L 111 91 L 106 91 L 106 96 L 106 101 L 101 101 L 96 101 L 96 106 L 96 111 L 101 111 L 101 116 L 96 116 L 91 116 L 91 111 L 86 111 L 86 106 L 91 106 L 96 106 L 96 101 L 96 96 L 96 91 L 96 86 L 101 86 L 101 81 L 106 81 L 106 86 L 111 86 L 116 86 L 121 86 L 121 81 L 121 76 L 121 71 L 121 66 L 121 61 L 126 61 L 126 56 L 121 56 L 116 56 L 116 51 L 116 46 L 116 41 L 116 36 L 116 31 L 116 26 L 111 26 L 111 21 L 116 21 L 116 26 L 121 26 L 121 21 L 116 21 L 116 26 L 111 26 L 111 21 L 106 21 L 101 21 L 101 16 L 101 11 L 96 11 L 91 11 L 86 11 L 81 11 L 81 6 L 76 6 L 71 6 L 66 6 L 61 6 L 56 6 L 51 6 L 51 11 L 56 11 L 56 16 L 56 21 L 51 21 L 51 16 L 51 11 L 51 6 L 56 6 L 61 6 L 61 11 L 56 11 L 56 6 L 61 6 L 61 11 L 56 11 L 51 11 L 51 16 L 56 16 L 61 16 L 66 16 L 71 16 L 71 21 L 76 21 L 81 21 L 86 21 L 86 26 L 91 26 L 96 26 L 101 26 L 101 21 L 101 16 L 96 16 L 96 21 L 101 21 L 101 16 L 96 16 L 96 11 L 91 11 L 91 16 L 86 16 L 86 11 L 81 11 L 81 16 L 76 16 L 71 16 L 71 21 L 76 21 L 81 21 L 81 26 L 81 31 L 86 31 L 86 26 L 81 26 L 81 31 L 76 31 L 71 31 L 71 26 L 66 26 L 61 26 L 61 21 L 56 21 L 51 21 L 51 26 L 51 31 L 56 31 L 56 36 L 61 36 L 61 41 L 61 46 L 66 46 L 71 46 L 71 51 L 71 56 L 66 56 L 66 61 L 71 61 L 76 61 L 76 66 L 81 66 L 81 61 L 81 56 L 76 56 L 71 56 L 71 51 L 66 51 L 61 51 L 61 56 L 66 56 L 66 61 L 71 61 L 76 61 L 76 56 L 76 51 L 81 51 L 81 56 L 76 56 L 76 61 L 71 61 L 66 61 L 66 56 L 71 56 L 76 56 L 76 51 L 76 46 L 71 46 L 71 51 L 71 56 L 76 56 L 76 61 L 76 66 L 76 71 L 76 76 L 81 76 L 86 76 L 86 71 L 86 66 L 86 61 L 86 56 L 91 56 L 91 61 L 91 66 L 91 71 L 86 71 L 86 66 L 86 61 L 91 61 L 96 61 L 96 56 L 91 56 L 86 56 L 86 51 L 81 51 L 76 51 L 76 56 L 81 56 L 81 61 L 81 66 L 76 66 L 76 71 L 81 71 L 86 71 L 91 71 L 96 71 L 96 66 L 91 66 L 91 71 L 86 71 L 86 76 L 91 76 L 91 81 L 91 86 L 86 86 L 86 81 L 86 76 L 81 76 L 81 71 L 76 71 L 71 71 L 71 76 L 71 81 L 66 81 L 61 81 L 61 76 L 66 76 L 66 81 L 71 81 L 71 86 L 66 86 L 66 81 L 61 81 L 56 81 L 56 76 L 56 71 L 56 66 L 61 66 L 66 66 L 66 71 L 71 71 L 76 71 L 81 71 L 86 71 L 91 71 L 96 71 L 96 76 L 96 81 L 91 81 L 86 81 L 86 86 L 86 91 L 86 96 L 86 101 L 86 106 L 86 111 L 86 116 L 86 121 L 86 126 L 86 131 L 81 131 L 81 126 L 81 121 L 86 121 L 91 121 L 91 126 L 86 126 L 86 121 L 91 121 L 96 121 L 101 121 L 101 126 L 101 131 L 96 131 L 96 136 L 91 136 L 91 141 L 86 141 L 86 146 L 91 146 L 91 141 L 91 136 L 96 136 L 96 131 L 91 131 L 86 131 L 86 136 L 81 136 L 76 136 L 76 141 L 76 146 L 76 151 L 76 156 L 81 156 L 81 151 L 81 146 L 81 141 L 81 136 L 86 136 L 86 131 L 91 131 L 91 136 L 86 136 L 81 136 L 81 141 L 81 146 L 76 146 L 71 146 L 71 151 L 66 151 L 61 151 L 61 156 L 56 156 L 56 161 L 51 161 L 51 156 L 56 156 L 56 151 L 61 151 L 61 156 L 66 156 L 71 156 L 71 151 L 76 151 L 76 146 L 81 146 L 86 146 L 86 141 L 86 136 L 81 136 L 76 136 L 76 131 L 76 126 L 81 126 L 86 126 L 91 126 L 96 126 L 101 126 L 101 121 L 96 121 L 96 116 L 101 116 L 101 111 L 106 111 L 106 106 L 101 106 L 101 111 L 96 111 L 91 111 L 91 116 L 86 116 L 81 116 L 81 121 L 86 121 L 91 121 L 91 116 L 91 111 L 91 106 L 96 106 L 101 106 L 101 101 L 106 101 L 106 106 L 111 106 L 111 101 L 116 101 L 116 106 L 116 111 L 121 111 L 126 111 L 126 106 L 126 101 L 131 101 L 131 106 L 131 111 L 131 116 L 131 121 L 131 126 L 126 126 L 121 126 L 121 121 L 126 121 L 126 116 L 126 111 L 126 106 L 121 106 L 121 101 L 121 96 L 126 96 L 131 96 L 131 91 L 126 91 L 121 91 L 121 86 L 121 81 L 121 76 L 121 71 L 126 71 L 126 76 L 126 81 L 121 81 L 121 86 L 126 86 L 131 86 L 131 91 L 126 91 L 121 91 L 121 96 L 121 101 L 126 101 L 126 96 L 121 96 L 121 91 L 116 91 L 111 91 L 111 86 L 116 86 L 116 91 L 121 91 L 121 96 L 116 96 L 111 96 L 111 91 L 106 91 L 101 91 L 96 91 L 96 86 L 91 86 L 91 91 L 91 96 L 91 101 L 86 101 L 86 96 L 91 96 L 91 91 L 91 86 L 96 86 L 101 86 L 106 86 L 111 86 L 111 91 L 106 91 L 106 96 L 111 96 L 111 101 L 106 101 L 106 106 L 106 111 L 111 111 L 111 106 L 106 106 L 101 106 L 101 101 L 101 96 L 106 96 L 106 91 L 111 91 L 116 91 L 121 91 L 126 91 L 126 86 L 126 81 L 131 81 L 131 76 L 131 71 L 136 71 L 141 71 L 141 76 L 146 76 L 146 71 L 141 71 L 141 76 L 146 76 L 151 76 L 151 71 L 156 71 L 156 76 L 156 81 L 156 86 L 156 91 L 161 91 L 166 91 L 171 91 L 176 91 L 176 86 L 171 86 L 171 91 L 166 91 L 166 96 L 166 101 L 171 101 L 176 101 L 181 101 L 181 106 L 186 106 L 186 111 L 191 111 L 191 116 L 191 121 L 191 126 L 191 131 L 196 131 L 196 136 L 191 136 L 191 131 L 186 131 L 181 131 L 181 136 L 186 136 L 186 131 L 186 126 L 186 121 L 181 121 L 176 121 L 171 121 L 166 121 L 166 116 L 166 111 L 161 111 L 161 106 L 161 101 L 166 101 L 171 101 L 176 101 L 176 96 L 171 96 L 171 91 L 171 86 L 171 81 L 166 81 L 166 86 L 166 91 L 161 91 L 161 96 L 166 96 L 171 96 L 176 96 L 181 96 L 181 101 L 181 106 L 181 111 L 176 111 L 176 116 L 176 121 L 171 121 L 171 116 L 166 116 L 161 116 L 161 121 L 156 121 L 156 126 L 151 126 L 146 126 L 146 131 L 146 136 L 141 136 L 136 136 L 136 141 L 136 146 L 131 146 L 126 146 L 126 151 L 121 151 L 116 151 L 116 156 L 116 161 L 121 161 L 121 156 L 121 151 L 121 146 L 121 141 L 121 136 L 121 131 L 121 126 L 121 121 L 121 116 L 116 116 L 116 121 L 111 121 L 111 116 L 116 116 L 121 116 L 121 121 L 121 126 L 126 126 L 126 121 L 131 121 L 131 116 L 131 111 L 131 106 L 126 106 L 126 101 L 126 96 L 121 96 L 116 96 L 111 96 L 111 101 L 106 101 L 101 101 L 101 96 L 96 96 L 96 91 L 96 86 L 96 81 L 96 76 L 96 71 L 91 71 L 86 71 L 86 66 L 86 61 L 91 61 L 96 61 L 101 61 L 106 61 L 106 66 L 111 66 L 111 71 L 116 71 L 121 71 L 126 71 L 126 66 L 121 66 L 121 71 L 121 76 L 126 76 L 131 76 L 136 76 L 136 71 L 141 71 L 141 76 L 146 76 L 151 76 L 151 71 L 151 66 L 151 61 L 146 61 L 146 56 L 141 56 L 141 61 L 146 61 L 146 66 L 151 66 L 151 61 L 146 61 L 146 56 L 151 56 L 151 51 L 156 51 L 161 51 L 161 56 L 156 56 L 151 56 L 151 51 L 156 51 L 161 51 L 166 51 L 171 51 L 171 46 L 176 46 L 176 51 L 176 56 L 181 56 L 181 61 L 181 66 L 176 66 L 171 66 L 166 66 L 166 61 L 171 61 L 176 61 L 176 56 L 171 56 L 171 61 L 166 61 L 166 66 L 161 66 L 161 71 L 166 71 L 166 76 L 171 76 L 171 81 L 176 81 L 176 76 L 181 76 L 181 71 L 176 71 L 171 71 L 171 66 L 166 66 L 166 61 L 166 56 L 166 51 L 166 46 L 161 46 L 161 41 L 161 36 L 161 31 L 156 31 L 156 26 L 151 26 L 151 31 L 146 31 L 146 36 L 151 36 L 151 31 L 146 31 L 141 31 L 141 36 L 136 36 L 136 41 L 136 46 L 136 51 L 136 56 L 136 61 L 136 66 L 131 66 L 126 66 L 126 61 L 131 61 L 136 61 L 136 66 L 141 66 L 141 71 L 141 76 L 146 76 L 151 76 L 151 71 L 146 71 L 146 76 L 146 81 L 146 86 L 141 86 L 136 86 L 136 81 L 141 81 L 146 81 L 151 81 L 156 81 L 156 76 L 156 71 L 161 71 L 166 71 L 166 76 L 171 76 L 176 76 L 181 76 L 181 71 L 176 71 L 176 66 L 176 61 L 171 61 L 171 56 L 166 56 L 166 61 L 166 66 L 161 66 L 161 71 L 156 71 L 156 66 L 156 61 L 151 61 L 151 66 L 156 66 L 156 71 L 161 71 L 161 66 L 166 66 L 166 71 L 171 71 L 171 76 L 176 76 L 176 71 L 181 71 L 186 71 L 186 76 L 186 81 L 191 81 L 191 76 L 191 71 L 196 71 L 196 76 L 191 76 L 191 81 L 191 86 L 186 86 L 181 86 L 181 91 L 176 91 L 171 91 L 166 91 L 166 96 L 171 96 L 176 96 L 176 91 L 171 91 L 171 86 L 176 86 L 181 86 L 186 86 L 186 91 L 186 96 L 191 96 L 191 101 L 196 101 L 201 101 L 201 106 L 196 106 L 196 101 L 196 96 L 196 91 L 201 91 L 201 86 L 206 86 L 206 91 L 206 96 L 206 101 L 201 101 L 196 101 L 196 106 L 201 106 L 206 106 L 206 111 L 206 116 L 201 116 L 201 111 L 201 106 L 201 101 L 196 101 L 196 96 L 201 96 L 201 91 L 206 91 L 206 86 L 206 81 L 206 76 L 201 76 L 201 71 L 196 71 L 196 66 L 201 66 L 201 61 L 196 61 L 196 66 L 196 71 L 191 71 L 191 76 L 186 76 L 181 76 L 181 71 L 176 71 L 176 66 L 171 66 L 166 66 L 166 71 L 161 71 L 161 66 L 156 66 L 151 66 L 151 61 L 151 56 L 151 51 L 146 51 L 141 51 L 141 46 L 136 46 L 131 46 L 131 51 L 126 51 L 121 51 L 121 46 L 121 41 L 121 36 L 126 36 L 131 36 L 131 31 L 136 31 L 141 31 L 146 31 L 151 31 L 156 31 L 156 36 L 156 41 L 161 41 L 166 41 L 166 46 L 171 46 L 171 41 L 171 36 L 166 36 L 166 31 L 161 31 L 156 31 L 156 36 L 156 41 L 151 41 L 151 46 L 151 51 L 151 56 L 151 61 L 151 66 L 146 66 L 146 61 L 141 61 L 141 56 L 141 51 L 136 51 L 131 51 L 131 56 L 131 61 L 126 61 L 121 61 L 121 66 L 126 66 L 131 66 L 131 71 L 136 71 L 136 76 L 136 81 L 131 81 L 126 81 L 126 86 L 126 91 L 131 91 L 136 91 L 136 96 L 131 96 L 126 96 L 126 91 L 131 91 L 131 96 L 126 96 L 121 96 L 116 96 L 116 101 L 111 101 L 111 106 L 106 106 L 101 106" fill="none" stroke="#FFFFFF" stroke-opacity="1" stroke-width="1" stroke-linecap="round" stroke-linejoin="round"/><path d="M 106 106 L 106 101 L 101 101 L 101 96 L 96 96 L 96 91 L 91 91 L 91 86 L 91 81 L 86 81 L 81 81 L 81 76 L 76 76 L 76 81 L 81 81 L 86 81 L 91 81 L 91 76 L 91 71 L 91 66 L 91 61 L 96 61 L 101 61 L 101 56 L 106 56 L 106 61 L 111 61 L 111 66 L 111 71 L 106 71 L 101 71 L 101 76 L 96 76 L 96 81 L 101 81 L 106 81 L 106 86 L 111 86 L 111 91 L 106 91 L 101 91 L 101 86 L 106 86 L 106 91 L 101 91 L 96 91 L 91 91 L 91 86 L 86 86 L 86 81 L 86 76 L 91 76 L 96 76 L 101 76 L 101 81 L 101 86 L 96 86 L 96 91 L 101 91 L 101 86 L 106 86" fill="none" stroke="#FF3B30" stroke-opacity="1" stroke-width="1" stroke-linecap="round" stroke-linejoin="round"/></svg>