<?xml version="1.0" encoding="UTF-8"?><svg xmlns="http://www.w3.org/2000/svg" width="212" height="212" viewBox="0 0 212 212"><rect width="100%" height="100%" fill="#000000"/><path d="M 106 106 L 106 101 L 101 101 L 101 106 L 101 111 L 96 111 L 96 116 L 101 116 L 106 116 L 106 121 L 106 126 L 111 126 L 116 126 L 116 131 L 116 136 L 116 141 L 111 141 L 111 136 L 116 136 L 116 141 L 116 146 L 121 146 L 121 151 L 121 156 L 126 156 L 131 156 L 136 156 L 141 156 L 141 161 L 146 161 L 146 166 L 146 171 L 151 171 L 156 171 L 161 171 L 161 176 L 161 181 L 156 181 L 156 176 L 161 176 L 166 176 L 166 181 L 171 181 L 171 186 L 176 186 L 176 191 L 171 191 L 171 196 L 171 201 L 176 201 L 181 201 L 181 206 L 176 206 L 176 201 L 171 201 L 171 196 L 171 191 L 166 191 L 161 191 L 156 191 L 156 196 L 161 196 L 166 196 L 171 196 L 171 201 L 176 201 L 181 201 L 186 201 L 186 206 L 181 206 L 181 201 L 181 196 L 176 196 L 176 191 L 181 191 L 186 191 L 186 186 L 191 186 L 196 186 L 201 186 L 201 181 L 206 181 L 206 176 L 206 171 L 201 171 L 201 176 L 196 176 L 196 171 L 196 166 L 201 166 L 201 161 L 206 161 L 206 156 L 201 156 L 201 151 L 196 151 L 196 146 L 201 146 L 201 151 L 206 151 L 206 146 L 201 146 L 196 146 L 196 151 L 201 151 L 201 146 L 206 146 L 206 151 L 201 151 L 201 156 L 201 161 L 201 166 L 206 166 L 206 171 L 201 171 L 201 176 L 206 176 L 206 171 L 206 166 L 201 166 L 196 166 L 196 161 L 196 156 L 201 156 L 206 156 L 206 161 L 201 161 L 201 166 L 196 166 L 196 161 L 191 161 L 191 166 L 191 171 L 196 171 L 196 176 L 196 181 L 196 186 L 191 186 L 191 191 L 186 191 L 181 191 L 176 191 L 171 191 L 171 196 L 171 201 L 171 206 L 166 206 L 166 201 L 161 201 L 156 201 L 156 196 L 161 196 L 161 191 L 156 191 L 151 191 L 151 186 L 151 181 L 146 181 L 146 186 L 151 186 L 156 186 L 156 181 L 156 176 L 156 171 L 151 171 L 146 171 L 141 171 L 141 166 L 146 166 L 151 166 L 156 166 L 156 171 L 151 171 L 146 171 L 146 166 L 151 166 L 151 171 L 151 176 L 146 176 L 146 171 L 151 171 L 151 166 L 151 161 L 151 156 L 151 151 L 151 146 L 156 146 L 156 141 L 156 136 L 151 136 L 151 131 L 156 131 L 156 126 L 161 126 L 161 131 L 156 131 L 156 136 L 156 141 L 151 141 L 146 141 L 141 141 L 136 141 L 136 146 L 141 146 L 141 151 L 146 151 L 146 146 L 151 146 L 156 146 L 156 141 L 161 141 L 166 141 L 166 136 L 161 136 L 156 136 L 156 141 L 156 146 L 151 146 L 151 151 L 156 151 L 156 156 L 151 156 L 151 151 L 146 151 L 146 146 L 151 146 L 156 146 L 156 151 L 151 151 L 146 151 L 141 151 L 141 156 L 141 161 L 146 161 L 146 166 L 151 166 L 156 166 L 156 161 L 156 156 L 161 156 L 161 161 L 166 161 L 166 156 L 166 151 L 166 146 L 171 146 L 171 151 L 171 156 L 176 156 L 176 151 L 176 146 L 171 146 L 171 141 L 171 136 L 166 136 L 166 131 L 161 131 L 156 131 L 151 131 L 146 131 L 146 126 L 141 126 L 141 131 L 146 131 L 151 131 L 156 131 L 156 126 L 161 126 L 161 121 L 166 121 L 166 116 L 171 116 L 171 121 L 166 121 L 161 121 L 161 126 L 166 126 L 171 126 L 171 121 L 171 116 L 176 116 L 181 116 L 186 116 L 191 116 L 191 121 L 186 121 L 181 121 L 181 116 L 176 116 L 176 111 L 171 111 L 171 106 L 171 101 L 171 96 L 171 91 L 171 86 L 171 81 L 176 81 L 181 81 L 181 86 L 181 91 L 176 91 L 171 91 L 171 86 L 171 81 L 166 81 L 161 81 L 156 81 L 156 76 L 151 76 L 151 81 L 151 86 L 146 86 L 146 81 L 141 81 L 141 86 L 136 86 L 136 81 L 136 76 L 136 71 L 141 71 L 141 76 L 136 76 L 131 76 L 126 76 L 121 76 L 116 76 L 116 71 L 121 71 L 126 71 L 126 66 L 131 66 L 131 61 L 131 56 L 136 56 L 141 56 L 141 51 L 136 51 L 136 46 L 136 41 L 141 41 L 141 36 L 136 36 L 131 36 L 131 41 L 136 41 L 141 41 L 141 36 L 146 36 L 151 36 L 156 36 L 156 31 L 156 26 L 161 26 L 161 21 L 156 21 L 156 16 L 151 16 L 151 11 L 156 11 L 156 6 L 161 6 L 166 6 L 166 11 L 161 11 L 156 11 L 156 16 L 151 16 L 151 21 L 151 26 L 156 26 L 156 21 L 156 16 L 156 11 L 156 6 L 151 6 L 146 6 L 141 6 L 141 11 L 136 11 L 136 6 L 141 6 L 146 6 L 151 6 L 151 11 L 146 11 L 146 16 L 146 21 L 146 26 L 141 26 L 141 21 L 141 16 L 146 16 L 151 16 L 156 16 L 156 21 L 156 26 L 161 26 L 161 21 L 161 16 L 166 16 L 171 16 L 171 21 L 171 26 L 171 31 L 176 31 L 181 31 L 186 31 L 186 36 L 181 36 L 181 31 L 176 31 L 176 26 L 176 21 L 176 16 L 171 16 L 171 11 L 176 11 L 176 16 L 176 21 L 176 26 L 181 26 L 186 26 L 186 31 L 181 31 L 176 31 L 176 36 L 171 36 L 171 41 L 166 41 L 161 41 L 156 41 L 151 41 L 146 41 L 141 41 L 141 36 L 146 36 L 146 31 L 151 31 L 151 36 L 151 41 L 146 41 L 146 36 L 141 36 L 141 41 L 136 41 L 136 36 L 136 31 L 141 31 L 141 36 L 146 36 L 151 36 L 151 41 L 156 41 L 161 41 L 166 41 L 166 46 L 161 46 L 161 41 L 161 36 L 166 36 L 166 31 L 171 31 L 171 36 L 176 36 L 181 36 L 181 41 L 181 46 L 181 51 L 181 56 L 186 56 L 186 51 L 186 46 L 191 46 L 191 51 L 186 51 L 186 56 L 191 56 L 196 56 L 196 61 L 201 61 L 201 66 L 201 71 L 196 71 L 196 66 L 201 66 L 206 66 L 206 71 L 201 71 L 201 76 L 201 81 L 196 81 L 191 81 L 191 86 L 186 86 L 186 81 L 186 76 L 181 76 L 176 76 L 176 81 L 171 81 L 166 81 L 161 81 L 156 81 L 156 86 L 151 86 L 151 91 L 156 91 L 156 86 L 151 86 L 146 86 L 141 86 L 141 81 L 141 76 L 136 76 L 131 76 L 131 71 L 131 66 L 131 61 L 126 61 L 126 56 L 126 51 L 126 46 L 126 41 L 121 41 L 121 36 L 126 36 L 131 36 L 136 36 L 141 36 L 141 31 L 146 31 L 151 31 L 151 26 L 156 26 L 156 21 L 161 21 L 166 21 L 171 21 L 176 21 L 176 26 L 181 26 L 186 26 L 191 26 L 191 31 L 186 31 L 181 31 L 176 31 L 176 26 L 181 26 L 181 31 L 186 31 L 186 36 L 186 41 L 186 46 L 186 51 L 186 56 L 181 56 L 176 56 L 176 61 L 171 61 L 166 61 L 166 66 L 171 66 L 176 66 L 181 66 L 186 66 L 186 61 L 181 61 L 181 66 L 176 66 L 176 71 L 171 71 L 171 66 L 166 66 L 161 66 L 161 61 L 166 61 L 171 61 L 176 61 L 176 56 L 171 56 L 171 51 L 176 51 L 176 46 L 176 41 L 176 36 L 171 36 L 171 41 L 166 41 L 166 36 L 161 36 L 161 41 L 166 41 L 166 46 L 161 46 L 156 46 L 156 41 L 156 36 L 156 31 L 156 26 L 156 21 L 151 21 L 151 26 L 156 26 L 161 26 L 161 21 L 166 21 L 166 26 L 166 31 L 171 31 L 176 31 L 176 36 L 176 41 L 176 46 L 171 46 L 171 41 L 166 41 L 161 41 L 156 41 L 151 41 L 151 36 L 151 31 L 146 31 L 146 36 L 151 36 L 151 31 L 156 31 L 156 26 L 161 26 L 166 26 L 166 21 L 161 21 L 156 21 L 151 21 L 151 26 L 146 26 L 146 31 L 141 31 L 141 36 L 141 41 L 136 41 L 131 41 L 131 36 L 126 36 L 126 31 L 126 26 L 131 26 L 136 26 L 141 26 L 141 31 L 136 31 L 136 36 L 131 36 L 131 41 L 131 46 L 136 46 L 136 51 L 141 51 L 141 46 L 146 46 L 151 46 L 151 51 L 156 51 L 161 51 L 166 51 L 166 56 L 166 61 L 166 66 L 171 66 L 171 71 L 171 76 L 166 76 L 166 71 L 161 71 L 156 71 L 156 66 L 151 66 L 146 66 L 141 66 L 136 66 L 131 66 L 126 66 L 126 61 L 121 61 L 121 56 L 116 56 L 116 61 L 121 61 L 121 66 L 121 71 L 121 76 L 116 76 L 111 76 L 111 81 L 106 81 L 101 81 L 96 81 L 96 86 L 91 86 L 86 86 L 81 86 L 81 91 L 86 91 L 86 96 L 91 96 L 91 101 L 96 101 L 96 96 L 96 91 L 91 91 L 91 86 L 96 86 L 96 81 L 91 81 L 91 86 L 96 86 L 96 81 L 96 76 L 101 76 L 101 71 L 101 66 L 101 61 L 106 61 L 106 56 L 106 51 L 111 51 L 116 51 L 121 51 L 121 56 L 126 56 L 126 51 L 121 51 L 116 51 L 116 46 L 121 46 L 126 46 L 126 51 L 131 51 L 131 56 L 126 56 L 126 51 L 131 51 L 131 56 L 126 56 L 126 51 L 126 46 L 131 46 L 136 46 L 136 51 L 141 51 L 141 56 L 141 61 L 136 61 L 131 61 L 131 66 L 126 66 L 126 71 L 126 76 L 131 76 L 136 76 L 141 76 L 141 71 L 136 71 L 131 71 L 131 66 L 126 66 L 126 61 L 126 56 L 121 56 L 121 61 L 126 61 L 126 56 L 121 56 L 121 61 L 126 61 L 131 61 L 131 56 L 126 56 L 121 56 L 121 61 L 126 61 L 131 61 L 136 61 L 136 56 L 131 56 L 126 56 L 126 61 L 131 61 L 136 61 L 136 56 L 141 56 L 146 56 L 146 51 L 141 51 L 136 51 L 136 46 L 131 46 L 131 41 L 126 41 L 126 36 L 126 31 L 121 31 L 116 31 L 111 31 L 111 26 L 116 26 L 116 31 L 121 31 L 121 26 L 116 26 L 116 31 L 116 36 L 111 36 L 111 31 L 106 31 L 101 31 L 96 31 L 91 31 L 91 26 L 96 26 L 101 26 L 101 21 L 96 21 L 96 16 L 101 16 L 101 11 L 106 11 L 111 11 L 111 6 L 116 6 L 116 11 L 111 11 L 106 11 L 106 6 L 111 6 L 111 11 L 111 16 L 111 21 L 111 26 L 106 26 L 106 31 L 101 31 L 101 26 L 106 26 L 106 21 L 101 21 L 101 16 L 96 16 L 96 11 L 91 11 L 91 6 L 96 6 L 101 6 L 106 6 L 106 11 L 101 11 L 101 16 L 101 21 L 101 26 L 106 26 L 111 26 L 111 21 L 116 21 L 121 21 L 121 16 L 121 11 L 116 11 L 116 16 L 116 21 L 111 21 L 111 16 L 116 16 L 116 21 L 121 21 L 121 26 L 116 26 L 116 31 L 116 36 L 116 41 L 116 46 L 121 46 L 121 51 L 126 51 L 126 46 L 131 46 L 131 51 L 126 51 L 126 56 L 126 61 L 126 66 L 121 66 L 121 71 L 126 71 L 131 71 L 131 76 L 136 76 L 141 76 L 141 81 L 141 86 L 136 86 L 131 86 L 131 91 L 136 91 L 136 86 L 131 86 L 131 81 L 131 76 L 131 71 L 136 71 L 141 71 L 141 76 L 141 81 L 146 81 L 146 86 L 146 91 L 146 96 L 141 96 L 136 96 L 136 101 L 141 101 L 141 96 L 136 96 L 136 101 L 131 101 L 126 101 L 126 96 L 126 91 L 126 86 L 121 86 L 116 86 L 116 91 L 121 91 L 121 96 L 126 96 L 126 91 L 121 91 L 121 96 L 126 96 L 126 101 L 121 101 L 116 101 L 116 96 L 121 96 L 121 101 L 116 101 L 116 96 L 111 96 L 111 101 L 106 101 L 106 106 L 101 106 L 101 111 L 101 116 L 101 121 L 101 126 L 106 126 L 106 121 L 111 121 L 116 121 L 116 116 L 111 116 L 106 116 L 101 116 L 101 121 L 96 121 L 96 126 L 101 126 L 101 121 L 101 116 L 106 116 L 111 116 L 111 111 L 116 111 L 116 116 L 121 116 L 121 121 L 126 121 L 126 126 L 126 131 L 126 136 L 126 141 L 126 146 L 131 146 L 131 141 L 126 141 L 126 136 L 131 136 L 131 141 L 126 141 L 121 141 L 116 141 L 116 146 L 121 146 L 121 141 L 121 136 L 126 136 L 131 136 L 131 131 L 136 131 L 141 131 L 146 131 L 146 136 L 146 141 L 151 141 L 156 141 L 161 141 L 166 141 L 171 141 L 171 136 L 166 136 L 166 141 L 166 146 L 166 151 L 171 151 L 176 151 L 176 146 L 171 146 L 171 141 L 171 136 L 171 131 L 171 126 L 171 121 L 166 121 L 166 126 L 161 126 L 161 121 L 166 121 L 166 126 L 171 126 L 171 131 L 171 136 L 171 141 L 171 146 L 166 146 L 166 141 L 171 141 L 171 136 L 171 131 L 171 126 L 166 126 L 166 131 L 171 131 L 171 136 L 176 136 L 176 131 L 181 131 L 186 131 L 186 126 L 181 126 L 181 131 L 181 136 L 176 136 L 171 136 L 171 131 L 166 131 L 161 131 L 156 131 L 151 131 L 151 136 L 156 136 L 161 136 L 161 141 L 156 141 L 151 141 L 151 136 L 151 131 L 151 126 L 151 121 L 156 121 L 156 126 L 156 131 L 156 136 L 151 136 L 146 136 L 146 131 L 151 131 L 156 131 L 156 126 L 161 126 L 166 126 L 166 121 L 166 116 L 161 116 L 161 111 L 166 111 L 166 106 L 171 106 L 171 111 L 171 116 L 166 116 L 166 121 L 166 126 L 166 131 L 161 131 L 156 131 L 151 131 L 151 126 L 151 121 L 146 121 L 141 121 L 136 121 L 131 121 L 126 121 L 126 126 L 131 126 L 131 131 L 126 131 L 126 136 L 121 136 L 116 136 L 116 131 L 111 131 L 111 126 L 116 126 L 116 121 L 121 121 L 126 121 L 126 116 L 121 116 L 121 121 L 121 126 L 126 126 L 126 121 L 121 121 L 116 121 L 116 126 L 116 131 L 121 131 L 121 126 L 126 126 L 131 126 L 131 121 L 126 121 L 126 116 L 131 116 L 131 111 L 136 111 L 136 106 L 141 106 L 146 106 L 146 111 L 151 111 L 151 106 L 146 106 L 146 101 L 141 101 L 136 101 L 136 96 L 136 91 L 131 91 L 131 86 L 136 86 L 141 86 L 141 81 L 136 81 L 131 81 L 131 76 L 136 76 L 136 71 L 131 71 L 131 76 L 131 81 L 136 81 L 136 76 L 141 76 L 141 81 L 141 86 L 141 91 L 141 96 L 146 96 L 146 101 L 141 101 L 141 96 L 146 96 L 151 96 L 151 91 L 156 91 L 156 86 L 156 81 L 151 81 L 151 86 L 146 86 L 146 81 L 146 76 L 146 71 L 141 71 L 141 76 L 136 76 L 131 76 L 126 76 L 121 76 L 121 81 L 121 86 L 116 86 L 116 81 L 116 76 L 121 76 L 121 71 L 116 71 L 111 71 L 111 66 L 116 66 L 121 66 L 126 66 L 126 61 L 131 61 L 136 61 L 136 56 L 141 56 L 141 51 L 146 51 L 146 56 L 141 56 L 136 56 L 136 51 L 136 46 L 141 46 L 141 51 L 146 51 L 146 46 L 141 46 L 136 46 L 131 46 L 126 46 L 126 41 L 126 36 L 121 36 L 121 31 L 116 31 L 116 36 L 111 36 L 106 36 L 101 36 L 96 36 L 91 36 L 91 41 L 86 41 L 86 46 L 86 51 L 81 51 L 76 51 L 76 56 L 71 56 L 71 61 L 66 61 L 66 56 L 66 51 L 66 46 L 71 46 L 71 41 L 71 36 L 66 36 L 66 31 L 71 31 L 71 26 L 71 21 L 71 16 L 66 16 L 66 11 L 66 6 L 71 6 L 76 6 L 81 6 L 81 11 L 86 11 L 86 16 L 81 16 L 76 16 L 71 16 L 71 11 L 71 6 L 76 6 L 81 6 L 86 6 L 91 6 L 96 6 L 101 6 L 106 6 L 106 11 L 111 11 L 116 11 L 116 16 L 121 16 L 121 11 L 121 6 L 116 6 L 116 11 L 116 16 L 111 16 L 111 11 L 106 11 L 101 11 L 101 16 L 96 16 L 96 21 L 91 21 L 86 21 L 86 26 L 81 26 L 81 31 L 81 36 L 76 36 L 76 41 L 71 41 L 71 46 L 76 46 L 76 51 L 76 56 L 71 56 L 66 56 L 66 51 L 66 46 L 61 46 L 61 41 L 66 41 L 71 41 L 71 36 L 71 31 L 71 26 L 76 26 L 81 26 L 81 31 L 81 36 L 81 41 L 81 46 L 81 51 L 81 56 L 81 61 L 86 61 L 91 61 L 96 61 L 96 66 L 91 66 L 86 66 L 86 71 L 81 71 L 76 71 L 76 76 L 71 76 L 71 71 L 76 71 L 81 71 L 81 76 L 81 81 L 81 86 L 76 86 L 71 86 L 71 91 L 71 96 L 71 101 L 66 101 L 66 106 L 66 111 L 61 111 L 56 111 L 56 116 L 61 116 L 61 111 L 56 111 L 56 106 L 61 106 L 61 101 L 61 96 L 56 96 L 56 91 L 61 91 L 61 86 L 61 81 L 61 76 L 61 71 L 61 66 L 66 66 L 66 61 L 61 61 L 56 61 L 56 56 L 51 56 L 46 56 L 46 51 L 46 46 L 41 46 L 36 46 L 36 51 L 31 51 L 26 51 L 26 56 L 21 56 L 21 61 L 26 61 L 26 66 L 21 66 L 21 61 L 21 56 L 26 56 L 26 51 L 21 51 L 16 51 L 16 56 L 21 56 L 26 56 L 31 56 L 31 51 L 36 51 L 36 56 L 31 56 L 31 51 L 31 46 L 36 46 L 41 46 L 41 41 L 46 41 L 46 46 L 51 46 L 51 51 L 46 51 L 46 56 L 51 56 L 51 61 L 51 66 L 56 66 L 61 66 L 66 66 L 71 66 L 71 71 L 71 76 L 66 76 L 66 81 L 71 81 L 71 76 L 76 76 L 76 81 L 81 81 L 86 81 L 86 86 L 81 86 L 81 81 L 76 81 L 76 76 L 81 76 L 86 76 L 86 81 L 91 81 L 91 76 L 96 76 L 96 71 L 91 71 L 91 76 L 96 76 L 96 81 L 91 81 L 91 76 L 86 76 L 86 71 L 91 71 L 91 66 L 96 66 L 96 61 L 101 61 L 101 56 L 96 56 L 91 56 L 91 51 L 86 51 L 81 51 L 81 46 L 81 41 L 81 36 L 86 36 L 86 41 L 81 41 L 81 46 L 86 46 L 91 46 L 96 46 L 96 41 L 91 41 L 91 46 L 91 51 L 91 56 L 91 61 L 86 61 L 86 66 L 81 66 L 76 66 L 71 66 L 71 71 L 66 71 L 66 66 L 61 66 L 61 61 L 61 56 L 56 56 L 56 61 L 56 66 L 61 66 L 61 61 L 61 56 L 56 56 L 56 51 L 51 51 L 46 51 L 46 56 L 41 56 L 41 61 L 36 61 L 36 56 L 36 51 L 36 46 L 36 41 L 36 36 L 36 31 L 31 31 L 31 36 L 36 36 L 36 41 L 31 41 L 26 41 L 21 41 L 21 36 L 26 36 L 26 41 L 31 41 L 36 41 L 36 46 L 36 51 L 41 51 L 46 51 L 46 56 L 51 56 L 51 51 L 56 51 L 61 51 L 61 46 L 66 46 L 66 51 L 71 51 L 76 51 L 76 56 L 81 56 L 81 61 L 81 66 L 86 66 L 86 61 L 91 61 L 91 66 L 86 66 L 81 66 L 81 61 L 76 61 L 76 66 L 71 66 L 71 71 L 71 76 L 76 76 L 76 71 L 81 71 L 81 76 L 76 76 L 76 81 L 71 81 L 71 76 L 66 76 L 61 76 L 56 76 L 56 71 L 56 66 L 56 61 L 51 61 L 46 61 L 41 61 L 41 66 L 41 71 L 36 71 L 31 71 L 26 71 L 21 71 L 21 76 L 21 81 L 21 86 L 21 91 L 16 91 L 11 91 L 11 96 L 11 101 L 16 101 L 21 101 L 21 106 L 26 106 L 26 111 L 26 116 L 21 116 L 16 116 L 16 121 L 21 121 L 21 126 L 21 131 L 21 136 L 21 141 L 21 146 L 21 151 L 26 151 L 26 146 L 26 141 L 26 136 L 31 136 L 31 131 L 36 131 L 36 136 L 31 136 L 31 131 L 36 131 L 36 126 L 41 126 L 46 126 L 46 121 L 46 116 L 46 111 L 51 111 L 56 111 L 56 116 L 51 116 L 51 121 L 46 121 L 41 121 L 41 116 L 41 111 L 46 111 L 46 116 L 46 121 L 51 121 L 56 121 L 56 126 L 56 131 L 56 136 L 56 141 L 51 141 L 51 136 L 56 136 L 56 131 L 56 126 L 61 126 L 61 131 L 61 136 L 56 136 L 51 136 L 51 131 L 56 131 L 56 126 L 51 126 L 46 126 L 46 131 L 46 136 L 51 136 L 51 131 L 46 131 L 46 136 L 46 141 L 46 146 L 41 146 L 41 141 L 36 141 L 31 141 L 31 136 L 36 136 L 36 131 L 31 131 L 26 131 L 26 126 L 21 126 L 21 121 L 26 121 L 26 126 L 31 126 L 36 126 L 36 121 L 36 116 L 36 111 L 41 111 L 46 111 L 46 106 L 41 106 L 36 106 L 36 101 L 31 101 L 31 96 L 36 96 L 36 91 L 31 91 L 26 91 L 26 96 L 31 96 L 31 91 L 36 91 L 36 96 L 31 96 L 31 91 L 31 86 L 26 86 L 26 91 L 21 91 L 16 91 L 16 96 L 16 101 L 16 106 L 11 106 L 6 106 L 6 101 L 11 101 L 11 96 L 6 96 L 6 91 L 6 86 L 6 81 L 6 76 L 6 71 L 11 71 L 11 76 L 11 81 L 16 81 L 21 81 L 26 81 L 31 81 L 31 86 L 36 86 L 36 91 L 31 91 L 31 86 L 26 86 L 26 81 L 26 76 L 31 76 L 36 76 L 41 76 L 46 76 L 46 81 L 46 86 L 46 91 L 51 91 L 51 96 L 51 101 L 56 101 L 61 101 L 66 101 L 66 96 L 71 96 L 71 101 L 76 101 L 76 96 L 71 96 L 71 101 L 71 106 L 76 106 L 81 106 L 81 101 L 76 101 L 71 101 L 71 96 L 76 96 L 81 96 L 81 91 L 76 91 L 76 96 L 71 96 L 66 96 L 61 96 L 61 91 L 66 91 L 66 96 L 71 96 L 71 101 L 71 106 L 66 106 L 61 106 L 56 106 L 56 111 L 56 116 L 51 116 L 51 121 L 56 121 L 56 116 L 51 116 L 51 111 L 46 111 L 46 106 L 41 106 L 41 101 L 46 101 L 51 101 L 56 101 L 56 96 L 61 96 L 61 91 L 56 91 L 56 86 L 61 86 L 61 81 L 56 81 L 56 76 L 56 71 L 56 66 L 51 66 L 46 66 L 41 66 L 36 66 L 31 66 L 26 66 L 21 66 L 21 61 L 21 56 L 21 51 L 16 51 L 16 56 L 16 61 L 11 61 L 11 66 L 6 66 L 6 71 L 11 71 L 11 66 L 6 66 L 6 61 L 6 56 L 6 51 L 11 51 L 16 51 L 16 46 L 21 46 L 21 51 L 16 51 L 16 46 L 16 41 L 16 36 L 21 36 L 26 36 L 26 41 L 31 41 L 36 41 L 36 36 L 31 36 L 31 31 L 31 26 L 26 26 L 26 31 L 21 31 L 21 36 L 26 36 L 26 41 L 21 41 L 21 46 L 21 51 L 26 51 L 26 46 L 31 46 L 31 51 L 31 56 L 26 56 L 21 56 L 21 51 L 16 51 L 16 56 L 21 56 L 26 56 L 31 56 L 36 56 L 36 51 L 36 46 L 31 46 L 31 51 L 36 51 L 36 46 L 41 46 L 41 51 L 36 51 L 36 56 L 41 56 L 41 61 L 41 66 L 46 66 L 46 71 L 51 71 L 51 66 L 46 66 L 41 66 L 36 66 L 36 71 L 41 71 L 41 76 L 41 81 L 36 81 L 36 86 L 41 86 L 46 86 L 46 91 L 46 96 L 51 96 L 51 101 L 46 101 L 41 101 L 41 106 L 46 106 L 46 111 L 51 111 L 56 111 L 56 116 L 61 116 L 66 116 L 71 116 L 76 116 L 76 111 L 81 111 L 81 106 L 76 106 L 71 106 L 66 106 L 66 101 L 71 101 L 71 96 L 76 96 L 76 101 L 81 101 L 81 96 L 86 96 L 91 96 L 96 96 L 96 101 L 96 106 L 101 106 L 101 111 L 106 111 L 106 106 L 106 101 L 111 101 L 111 106 L 111 111 L 116 111 L 116 116 L 111 116 L 111 111 L 116 111 L 116 106 L 121 106 L 121 111 L 121 116 L 126 116 L 126 111 L 121 111 L 121 116 L 116 116 L 111 116 L 106 116 L 106 121 L 101 121 L 101 126 L 96 126 L 91 126 L 91 131 L 86 131 L 86 136 L 81 136 L 81 131 L 86 131 L 86 136 L 86 141 L 91 141 L 96 141 L 96 136 L 91 136 L 86 136 L 86 131 L 81 131 L 81 136 L 76 136 L 76 141 L 76 146 L 71 146 L 71 151 L 71 156 L 71 161 L 66 161 L 66 156 L 61 156 L 61 161 L 66 161 L 66 156 L 61 156 L 61 161 L 56 161 L 56 166 L 56 171 L 56 176 L 56 181 L 61 181 L 66 181 L 71 181 L 71 176 L 76 176 L 76 171 L 76 166 L 71 166 L 71 171 L 66 171 L 61 171 L 61 176 L 61 181 L 56 181 L 51 181 L 46 181 L 41 181 L 41 176 L 41 171 L 36 171 L 31 171 L 26 171 L 26 176 L 31 176 L 36 176 L 36 181 L 36 186 L 41 186 L 41 181 L 41 176 L 41 171 L 36 171 L 36 176 L 31 176 L 31 171 L 36 171 L 36 166 L 31 166 L 26 166 L 26 171 L 26 176 L 31 176 L 31 181 L 36 181 L 36 186 L 36 191 L 31 191 L 31 196 L 36 196 L 36 191 L 36 186 L 36 181 L 41 181 L 46 181 L 46 186 L 46 191 L 51 191 L 56 191 L 56 186 L 56 181 L 61 181 L 66 181 L 66 186 L 61 186 L 56 186 L 56 191 L 61 191 L 61 186 L 61 181 L 61 176 L 61 171 L 61 166 L 66 166 L 71 166 L 71 171 L 76 171 L 76 166 L 81 166 L 81 161 L 81 156 L 86 156 L 86 161 L 81 161 L 76 161 L 71 161 L 71 166 L 76 166 L 81 166 L 86 166 L 86 171 L 91 171 L 96 171 L 101 171 L 106 171 L 106 176 L 106 181 L 106 186 L 101 186 L 101 191 L 106 191 L 106 186 L 101 186 L 101 181 L 106 181 L 106 186 L 106 191 L 101 191 L 101 196 L 101 201 L 101 206 L 96 206 L 96 201 L 96 196 L 91 196 L 91 191 L 86 191 L 86 186 L 91 186 L 91 181 L 91 176 L 86 176 L 86 171 L 91 171 L 91 166 L 91 161 L 91 156 L 91 151 L 91 146 L 96 146 L 96 151 L 101 151 L 106 151 L 106 156 L 101 156 L 96 156 L 91 156 L 86 156 L 86 161 L 86 166 L 81 166 L 76 166 L 76 171 L 71 171 L 71 166 L 71 161 L 71 156 L 66 156 L 66 151 L 66 146 L 71 146 L 76 146 L 81 146 L 81 151 L 76 151 L 71 151 L 66 151 L 61 151 L 61 146 L 66 146 L 66 141 L 61 141 L 56 141 L 56 136 L 56 131 L 61 131 L 61 136 L 61 141 L 56 141 L 51 141 L 46 141 L 46 136 L 51 136 L 51 131 L 56 131 L 56 136 L 61 136 L 61 131 L 66 131 L 66 136 L 61 136 L 61 131 L 61 126 L 56 126 L 51 126 L 51 121 L 51 116 L 46 116 L 41 116 L 41 121 L 36 121 L 36 116 L 41 116 L 41 111 L 46 111 L 51 111 L 51 116 L 56 116 L 56 111 L 61 111 L 66 111 L 66 106 L 61 106 L 61 101 L 66 101 L 66 96 L 71 96 L 71 101 L 76 101 L 81 101 L 81 106 L 81 111 L 86 111 L 91 111 L 91 116 L 91 121 L 91 126 L 91 131 L 96 131 L 96 136 L 91 136 L 86 136 L 86 141 L 81 141 L 76 141 L 76 136 L 76 131 L 81 131 L 81 126 L 81 121 L 81 116 L 86 116 L 86 121 L 91 121 L 91 116 L 96 116 L 101 116 L 101 111 L 101 106 L 101 101 L 106 101 L 106 96 L 101 96 L 96 96 L 96 101 L 101 101 L 101 96 L 106 96 L 106 91 L 111 91 L 111 96 L 116 96 L 116 91 L 121 91 L 121 96 L 121 101 L 116 101 L 116 106 L 111 106 L 111 111 L 116 111 L 121 111 L 121 106 L 126 106 L 126 101 L 131 101 L 136 101 L 136 106 L 131 106 L 131 101 L 131 96 L 131 91 L 126 91 L 121 91 L 121 86 L 126 86 L 126 81 L 126 76 L 131 76 L 131 81 L 126 81 L 126 76 L 131 76 L 131 71 L 126 71 L 121 71 L 121 76 L 121 81 L 116 81 L 116 86 L 121 86 L 121 81 L 116 81 L 111 81 L 111 86 L 106 86 L 106 91 L 101 91 L 101 96 L 101 101 L 96 101 L 96 106 L 91 106 L 86 106 L 81 106 L 81 101 L 76 101 L 76 106 L 71 106 L 66 106 L 66 101 L 61 101 L 56 101 L 56 106 L 56 111 L 61 111 L 66 111 L 66 106 L 71 106 L 76 106 L 76 101 L 81 101 L 81 106 L 86 106 L 86 111 L 91 111 L 96 111 L 101 111 L 101 106 L 101 101 L 106 101 L 106 106 L 111 106 L 116 106 L 116 101 L 121 101 L 126 101 L 131 101 L 136 101 L 136 96 L 141 96 L 146 96 L 146 101 L 141 101 L 141 96 L 141 91 L 146 91 L 146 86 L 141 86 L 141 81 L 141 76 L 136 76 L 136 81 L 136 86 L 136 91 L 131 91 L 131 96 L 126 96 L 126 91 L 131 91 L 131 96 L 131 101 L 131 106 L 136 106 L 136 101 L 136 96 L 136 91 L 141 91 L 141 86 L 136 86 L 136 91 L 136 96 L 136 101 L 136 106 L 141 106 L 146 106 L 146 111 L 141 111 L 136 111 L 136 116 L 141 116 L 146 116 L 151 116 L 156 116 L 161 116 L 166 116 L 171 116 L 171 121 L 176 121 L 176 116 L 171 116 L 166 116 L 166 121 L 171 121 L 176 121 L 176 116 L 181 116 L 181 121 L 186 121 L 186 116 L 191 116 L 191 111 L 186 111 L 186 106 L 181 106 L 181 101 L 181 96 L 176 96 L 176 91 L 171 91 L 166 91 L 161 91 L 161 86 L 161 81 L 166 81 L 166 86 L 171 86 L 171 81 L 176 81 L 176 86 L 171 86 L 171 81 L 171 76 L 171 71 L 171 66 L 171 61 L 176 61 L 176 66 L 181 66 L 181 61 L 181 56 L 181 51 L 176 51 L 176 46 L 171 46 L 171 41 L 166 41 L 166 46 L 171 46 L 171 41 L 176 41 L 176 36 L 171 36 L 171 41 L 171 46 L 171 51 L 171 56 L 176 56 L 181 56 L 186 56 L 186 61 L 186 66 L 181 66 L 181 71 L 181 76 L 181 81 L 181 86 L 186 86 L 186 91 L 181 91 L 181 86 L 181 81 L 181 76 L 176 76 L 176 71 L 176 66 L 176 61 L 181 61 L 186 61 L 191 61 L 191 56 L 196 56 L 196 51 L 196 46 L 196 41 L 191 41 L 191 46 L 191 51 L 196 51 L 196 46 L 196 41 L 191 41 L 186 41 L 186 46 L 186 51 L 186 56 L 181 56 L 181 61 L 176 61 L 176 66 L 176 71 L 171 71 L 166 71 L 166 66 L 166 61 L 171 61 L 171 66 L 166 66 L 161 66 L 161 71 L 156 71 L 151 71 L 151 76 L 146 76 L 146 71 L 141 71 L 136 71 L 136 76 L 141 76 L 141 71 L 141 66 L 136 66 L 136 61 L 136 56 L 131 56 L 131 51 L 136 51 L 141 51 L 141 46 L 146 46 L 146 41 L 151 41 L 151 36 L 146 36 L 146 41 L 151 41 L 156 41 L 156 36 L 156 31 L 156 26 L 151 26 L 146 26 L 146 21 L 141 21 L 141 16 L 146 16 L 146 11 L 141 11 L 141 16 L 141 21 L 141 26 L 146 26 L 151 26 L 151 21 L 156 21 L 156 16 L 161 16 L 161 21 L 166 21 L 166 16 L 166 11 L 171 11 L 171 6 L 166 6 L 161 6 L 156 6 L 151 6 L 151 11 L 156 11 L 156 6 L 161 6 L 161 11 L 166 11 L 171 11 L 171 16 L 176 16 L 176 21 L 176 26 L 171 26 L 171 31 L 171 36 L 176 36 L 176 41 L 171 41 L 171 36 L 166 36 L 166 31 L 161 31 L 161 36 L 156 36 L 156 41 L 161 41 L 166 41 L 166 46 L 171 46 L 176 46 L 181 46 L 181 41 L 176 41 L 171 41 L 171 36 L 176 36 L 176 31 L 176 26 L 176 21 L 171 21 L 171 16 L 166 16 L 166 11 L 171 11 L 176 11 L 176 16 L 181 16 L 186 16 L 186 21 L 186 26 L 181 26 L 176 26 L 171 26 L 166 26 L 166 31 L 166 36 L 171 36 L 171 31 L 166 31 L 166 26 L 171 26 L 176 26 L 181 26 L 181 31 L 181 36 L 181 41 L 186 41 L 186 36 L 181 36 L 176 36 L 171 36 L 166 36 L 166 41 L 166 46 L 166 51 L 161 51 L 161 46 L 156 46 L 156 51 L 151 51 L 146 51 L 146 56 L 146 61 L 151 61 L 151 66 L 151 71 L 146 71 L 141 71 L 141 76 L 146 76 L 146 81 L 146 86 L 141 86 L 136 86 L 131 86 L 131 81 L 136 81 L 141 81 L 141 76 L 141 71 L 146 71 L 146 66 L 141 66 L 141 61 L 141 56 L 141 51 L 146 51 L 151 51 L 151 46 L 156 46 L 161 46 L 166 46 L 171 46 L 176 46 L 176 41 L 171 41 L 171 36 L 176 36 L 176 31 L 176 26 L 176 21 L 181 21 L 186 21 L 191 21 L 191 16 L 186 16 L 181 16 L 176 16 L 176 21 L 171 21 L 166 21 L 166 16 L 166 11 L 171 11 L 171 16 L 171 21 L 176 21 L 176 26 L 181 26 L 186 26 L 191 26 L 191 31 L 196 31 L 196 36 L 196 41 L 191 41 L 186 41 L 181 41 L 181 46 L 186 46 L 191 46 L 196 46 L 196 41 L 191 41 L 186 41 L 186 36 L 181 36 L 176 36 L 171 36 L 166 36 L 166 31 L 171 31 L 176 31 L 181 31 L 181 36 L 186 36 L 191 36 L 196 36 L 201 36 L 206 36 L 206 41 L 206 46 L 206 51 L 201 51 L 201 46 L 206 46 L 206 41 L 206 36 L 201 36 L 201 31 L 206 31 L 206 36 L 201 36 L 201 31 L 201 26 L 196 26 L 196 31 L 196 36 L 191 36 L 186 36 L 186 41 L 186 46 L 191 46 L 191 51 L 191 56 L 186 56 L 186 61 L 181 61 L 176 61 L 176 66 L 176 71 L 181 71 L 186 71 L 186 66 L 186 61 L 186 56 L 191 56 L 191 51 L 191 46 L 191 41 L 191 36 L 186 36 L 186 31 L 181 31 L 181 26 L 176 26 L 171 26 L 171 31 L 171 36 L 171 41 L 176 41 L 181 41 L 181 36 L 181 31 L 186 31 L 186 36 L 186 41 L 181 41 L 176 41 L 176 36 L 181 36 L 181 31 L 186 31 L 186 26 L 186 21 L 186 16 L 191 16 L 196 16 L 201 16 L 201 11 L 206 11 L 206 6 L 201 6 L 201 11 L 206 11 L 206 6 L 201 6 L 196 6 L 191 6 L 191 11 L 191 16 L 186 16 L 186 11 L 186 6 L 191 6 L 196 6 L 196 11 L 196 16 L 196 21 L 196 26 L 191 26 L 191 31 L 191 36 L 191 41 L 196 41 L 196 36 L 201 36 L 201 31 L 196 31 L 191 31 L 186 31 L 181 31 L 176 31 L 176 36 L 181 36 L 186 36 L 186 31 L 191 31 L 196 31 L 196 26 L 191 26 L 191 21 L 186 21 L 181 21 L 181 16 L 181 11 L 176 11 L 176 6 L 171 6 L 166 6 L 166 11 L 166 16 L 166 21 L 161 21 L 161 16 L 156 16 L 151 16 L 146 16 L 141 16 L 141 21 L 141 26 L 136 26 L 136 31 L 131 31 L 131 26 L 136 26 L 136 31 L 136 36 L 141 36 L 141 31 L 146 31 L 146 26 L 141 26 L 136 26 L 131 26 L 131 31 L 136 31 L 136 36 L 141 36 L 146 36 L 151 36 L 151 41 L 146 41 L 146 36 L 151 36 L 156 36 L 161 36 L 161 41 L 166 41 L 171 41 L 171 46 L 176 46 L 176 51 L 181 51 L 181 46 L 176 46 L 176 41 L 181 41 L 181 46 L 186 46 L 186 51 L 191 51 L 191 46 L 191 41 L 186 41 L 186 36 L 191 36 L 196 36 L 201 36 L 201 31 L 206 31 L 206 26 L 206 21 L 206 16 L 206 11 L 201 11 L 201 16 L 206 16 L 206 11 L 201 11 L 201 16 L 201 21 L 201 26 L 201 31 L 206 31 L 206 36 L 206 41 L 201 41 L 201 36 L 196 36 L 196 31 L 191 31 L 191 26 L 191 21 L 196 21 L 196 16 L 191 16 L 191 21 L 186 21 L 186 26 L 186 31 L 191 31 L 191 36 L 196 36 L 196 31 L 196 26 L 191 26 L 191 31 L 196 31 L 196 26 L 201 26 L 201 21 L 196 21 L 196 26 L 191 26 L 191 31 L 191 36 L 191 41 L 186 41 L 181 41 L 181 46 L 176 46 L 171 46 L 171 41 L 171 36 L 166 36 L 161 36 L 156 36 L 156 41 L 161 41 L 161 36 L 156 36 L 156 31 L 151 31 L 146 31 L 146 36 L 141 36 L 136 36 L 136 41 L 131 41 L 126 41 L 126 46 L 121 46 L 121 51 L 126 51 L 131 51 L 136 51 L 136 46 L 131 46 L 131 41 L 136 41 L 136 46 L 136 51 L 136 56 L 131 56 L 131 61 L 126 61 L 126 56 L 121 56 L 121 51 L 116 51 L 116 46 L 116 41 L 111 41 L 111 36 L 106 36 L 106 41 L 111 41 L 111 46 L 106 46 L 101 46 L 101 51 L 96 51 L 96 46 L 101 46 L 101 51 L 106 51 L 106 56 L 106 61 L 111 61 L 116 61 L 116 56 L 111 56 L 106 56 L 106 61 L 101 61 L 101 66 L 101 71 L 106 71 L 106 76 L 106 81 L 106 86 L 101 86 L 101 81 L 106 81 L 106 76 L 101 76 L 101 81 L 101 86 L 101 91 L 101 96 L 101 101 L 96 101 L 96 96 L 101 96 L 101 91 L 96 91 L 96 86 L 91 86 L 91 81 L 86 81 L 86 76 L 91 76 L 91 71 L 91 66 L 91 61 L 91 56 L 96 56 L 96 61 L 101 61 L 101 66 L 96 66 L 91 66 L 86 66 L 86 61 L 81 61 L 81 56 L 86 56 L 91 56 L 96 56 L 96 51 L 96 46 L 96 41 L 91 41 L 91 46 L 91 51 L 86 51 L 86 56 L 81 56 L 76 56 L 71 56 L 71 61 L 66 61 L 66 56 L 71 56 L 76 56 L 76 51 L 81 51 L 81 46 L 76 46 L 71 46 L 71 51 L 76 51 L 76 46 L 71 46 L 71 51 L 66 51 L 66 46 L 61 46 L 56 46 L 56 41 L 61 41 L 61 46 L 66 46 L 71 46 L 71 41 L 71 36 L 76 36 L 76 31 L 71 31 L 71 26 L 76 26 L 76 31 L 81 31 L 86 31 L 86 36 L 81 36 L 81 41 L 86 41 L 86 36 L 86 31 L 91 31 L 96 31 L 96 26 L 96 21 L 91 21 L 91 26 L 96 26 L 96 31 L 96 36 L 91 36 L 91 41 L 91 46 L 91 51 L 86 51 L 81 51 L 76 51 L 76 46 L 76 41 L 81 41 L 86 41 L 86 36 L 86 31 L 91 31 L 91 26 L 86 26 L 86 21 L 91 21 L 91 16 L 96 16 L 96 21 L 101 21 L 101 26 L 106 26 L 111 26 L 116 26 L 116 31 L 116 36 L 116 41 L 116 46 L 116 51 L 116 56 L 121 56 L 121 51 L 121 46 L 121 41 L 126 41 L 126 36 L 126 31 L 131 31 L 131 26 L 131 21 L 136 21 L 136 26 L 141 26 L 146 26 L 151 26 L 156 26 L 161 26 L 161 21 L 161 16 L 156 16 L 151 16 L 151 21 L 146 21 L 146 16 L 141 16 L 141 21 L 136 21 L 136 26 L 141 26 L 141 31 L 136 31 L 131 31 L 126 31 L 126 36 L 121 36 L 121 41 L 126 41 L 126 46 L 126 51 L 126 56 L 131 56 L 131 61 L 136 61 L 136 66 L 141 66 L 141 71 L 141 76 L 146 76 L 146 71 L 151 71 L 156 71 L 161 71 L 161 76 L 156 76 L 156 71 L 161 71 L 161 76 L 156 76 L 156 71 L 161 71 L 161 66 L 166 66 L 171 66 L 171 61 L 166 61 L 166 56 L 171 56 L 176 56 L 176 51 L 181 51 L 181 46 L 181 41 L 186 41 L 191 41 L 196 41 L 196 46 L 201 46 L 201 41 L 196 41 L 196 36 L 201 36 L 201 31 L 206 31 L 206 26 L 206 21 L 201 21 L 201 16 L 196 16 L 191 16 L 186 16 L 181 16 L 181 21 L 176 21 L 171 21 L 171 16 L 176 16 L 181 16 L 181 21 L 176 21 L 176 16 L 176 11 L 171 11 L 171 6 L 166 6 L 166 11 L 171 11 L 171 6 L 166 6 L 166 11 L 166 16 L 166 21 L 166 26 L 161 26 L 161 31 L 156 31 L 156 26 L 156 21 L 161 21 L 166 21 L 171 21 L 176 21 L 176 26 L 181 26 L 181 21 L 181 16 L 176 16 L 176 11 L 171 11 L 171 16 L 176 16 L 176 21 L 181 21 L 181 16 L 186 16 L 191 16 L 191 11 L 186 11 L 181 11 L 176 11 L 171 11 L 166 11 L 166 16 L 161 16 L 161 11 L 166 11 L 166 6 L 171 6 L 176 6 L 181 6 L 186 6 L 191 6 L 196 6 L 201 6 L 206 6 L 206 11 L 206 16 L 201 16 L 201 21 L 201 26 L 196 26 L 196 21 L 191 21 L 186 21 L 186 26 L 181 26 L 181 31 L 186 31 L 186 36 L 181 36 L 181 41 L 176 41 L 176 36 L 171 36 L 171 41 L 176 41 L 181 41 L 181 36 L 186 36 L 186 31 L 191 31 L 191 26 L 186 26 L 181 26 L 181 31 L 181 36 L 186 36 L 186 31 L 181 31 L 176 31 L 176 36 L 176 41 L 176 46 L 176 51 L 181 51 L 181 56 L 186 56 L 186 61 L 181 61 L 181 56 L 181 51 L 181 46 L 186 46 L 186 51 L 191 51 L 191 56 L 191 61 L 196 61 L 196 56 L 196 51 L 196 46 L 201 46 L 206 46 L 206 41 L 201 41 L 201 46 L 196 46 L 191 46 L 191 51 L 196 51 L 201 51 L 201 46 L 196 46 L 196 41 L 201 41 L 201 46 L 201 51 L 201 56 L 201 61 L 196 61 L 196 56 L 201 56 L 206 56 L 206 61 L 201 61 L 201 66 L 206 66 L 206 71 L 206 76 L 201 76 L 201 81 L 196 81 L 196 76 L 196 71 L 201 71 L 206 71 L 206 66 L 201 66 L 196 66 L 196 61 L 191 61 L 186 61 L 186 56 L 181 56 L 181 61 L 176 61 L 176 66 L 171 66 L 166 66 L 166 71 L 171 71 L 171 76 L 166 76 L 166 71 L 166 66 L 161 66 L 161 61 L 161 56 L 156 56 L 156 61 L 156 66 L 156 71 L 151 71 L 151 66 L 156 66 L 161 66 L 161 71 L 166 71 L 166 66 L 166 61 L 166 56 L 161 56 L 161 51 L 156 51 L 151 51 L 146 51 L 146 46 L 146 41 L 141 41 L 141 36 L 141 31 L 146 31 L 146 26 L 141 26 L 141 21 L 146 21 L 146 26 L 146 31 L 146 36 L 141 36 L 141 41 L 136 41 L 131 41 L 126 41 L 121 41 L 121 36 L 116 36 L 116 41 L 111 41 L 111 46 L 116 46 L 121 46 L 121 51 L 126 51 L 126 46 L 131 46 L 131 41 L 131 36 L 136 36 L 141 36 L 141 41 L 136 41 L 136 36 L 141 36 L 146 36 L 146 41 L 141 41 L 136 41 L 131 41 L 126 41 L 126 36 L 121 36 L 116 36 L 111 36 L 111 41 L 106 41 L 106 36 L 101 36 L 101 41 L 106 41 L 111 41 L 111 36 L 116 36 L 116 41 L 116 46 L 111 46 L 106 46 L 101 46 L 96 46 L 96 51 L 91 51 L 91 46 L 96 46 L 101 46 L 101 51 L 106 51 L 111 51 L 111 46 L 116 46 L 116 51 L 121 51 L 121 46 L 126 46 L 126 41 L 131 41 L 131 46 L 136 46 L 136 41 L 131 41 L 131 36 L 126 36 L 121 36 L 116 36 L 116 41 L 121 41 L 121 46 L 116 46 L 111 46 L 111 41 L 116 41 L 116 46 L 121 46 L 121 51 L 116 51 L 111 51 L 106 51 L 101 51 L 101 46 L 106 46 L 106 51 L 106 56 L 106 61 L 111 61 L 111 56 L 111 51 L 116 51 L 116 56 L 121 56 L 121 51 L 116 51 L 116 56 L 121 56 L 121 51 L 121 46 L 126 46 L 126 51 L 126 56 L 121 56 L 116 56 L 116 51 L 116 46 L 116 41 L 111 41 L 106 41 L 101 41 L 101 46 L 96 46 L 96 41 L 101 41 L 101 36 L 101 31 L 101 26 L 106 26 L 111 26 L 111 31 L 106 31 L 101 31 L 101 36 L 96 36 L 96 41 L 91 41 L 91 36 L 86 36 L 86 31 L 81 31 L 76 31 L 71 31 L 71 36 L 66 36 L 66 41 L 66 46 L 66 51 L 66 56 L 61 56 L 56 56 L 56 61 L 61 61 L 61 56 L 66 56 L 71 56 L 71 61 L 71 66 L 66 66 L 61 66" fill="none" stroke="#FFFFFF" stroke-opacity="1" stroke-width="1" stroke-linecap="round" stroke-linejoin="round"/><path d="M 106 106 L 106 101 L 101 101 L 101 106 L 101 111 L 101 116 L 101 121 L 96 121 L 96 116 L 96 111 L 91 111 L 91 106 L 91 101 L 86 101 L 86 106 L 81 106 L 76 106 L 71 106 L 71 111 L 76 111 L 81 111 L 86 111 L 86 106 L 81 106 L 76 106 L 71 106 L 66 106 L 66 101 L 61 101 L 61 96 L 56 96 L 56 101 L 51 101 L 51 96 L 46 96 L 41 96 L 41 101 L 36 101 L 31 101 L 31 96 L 31 91 L 36 91 L 36 96 L 31 96 L 26 96 L 26 91 L 21 91 L 21 96 L 16 96 L 16 91 L 21 91 L 26 91 L 31 91 L 36 91 L 41 91 L 41 96 L 36 96 L 31 96 L 26 96 L 21 96 L 21 91 L 26 91" fill="none" stroke="#FF3B30" stroke-opacity="1" stroke-width="1" stroke-linecap="round" stroke-linejoin="round"/></svg>